<svg width="21" height="21" viewBox="0 0 21 21" fill="none" xmlns="http://www.w3.org/2000/svg">
<path d="M16.5259 20.4998C15.6543 20.4998 14.43 20.1846 12.5965 19.1605C10.3671 17.9105 8.64261 16.7565 6.4252 14.5453C4.28726 12.4091 3.24687 11.0261 1.79077 8.37691C0.145788 5.38581 0.426202 3.81793 0.739659 3.14783C1.11295 2.34693 1.66396 1.86791 2.37615 1.39245C2.78068 1.12747 3.20877 0.900313 3.65499 0.713874C3.69964 0.694677 3.74117 0.676374 3.77823 0.659856C3.99925 0.560301 4.33414 0.409853 4.75834 0.570569C5.04143 0.67682 5.29416 0.894233 5.68978 1.28486C6.50111 2.08487 7.60981 3.86659 8.01883 4.7416C8.29344 5.33134 8.47517 5.72063 8.47562 6.15724C8.47562 6.66841 8.21842 7.06261 7.9063 7.48806C7.84781 7.56797 7.78976 7.64431 7.7335 7.71842C7.3937 8.16486 7.31913 8.29388 7.36825 8.52424C7.46782 8.98719 8.21038 10.3653 9.43072 11.5828C10.6511 12.8002 11.9897 13.4957 12.4546 13.5948C12.6948 13.6462 12.8265 13.5685 13.2873 13.2167C13.3534 13.1663 13.4213 13.114 13.4923 13.0618C13.9683 12.7078 14.3442 12.4573 14.8434 12.4573H14.8461C15.2806 12.4573 15.6525 12.6457 16.2687 12.9564C17.0725 13.3618 18.9081 14.456 19.7132 15.2681C20.1048 15.6627 20.3231 15.9145 20.4298 16.1971C20.5906 16.6225 20.4392 16.956 20.3405 17.1793C20.324 17.2163 20.3057 17.2569 20.2865 17.302C20.0986 17.7474 19.87 18.1745 19.6038 18.5779C19.1291 19.2878 18.6482 19.8373 17.8454 20.211C17.4331 20.4059 16.9819 20.5047 16.5259 20.4998Z" stroke="#1D1914"/>
</svg>
