<svg width="11" height="10" viewBox="0 0 11 10" fill="none" xmlns="http://www.w3.org/2000/svg">
<path d="M9.38781 0.209205C9.82455 -0.128769 10.4531 -0.0487651 10.7911 0.387916C11.1291 0.824656 11.0491 1.45321 10.6124 1.79124C9.53435 2.62551 8.43231 4.03786 7.46594 5.54124C6.51202 7.0253 5.74235 8.51487 5.30969 9.42796C5.15295 9.75876 4.8275 9.97758 4.46203 9.99827C4.09657 10.0189 3.7488 9.83858 3.55578 9.52757C3.25008 9.03472 2.68333 8.37209 2.05188 7.73264C1.42328 7.09608 0.802032 6.5536 0.424924 6.28831C-0.0265916 5.97062 -0.135634 5.34738 0.18176 4.89573C0.499467 4.44412 1.12363 4.33504 1.57531 4.65256C2.09009 5.01471 2.80604 5.65021 3.47473 6.32737C3.72724 6.58308 3.98298 6.85547 4.22668 7.13206C4.65408 6.32589 5.18387 5.39329 5.7843 4.45921C6.78407 2.90391 8.0336 1.25721 9.38781 0.209205Z" fill="#B0C74C"/>
</svg>
