<svg width="20" height="20" viewBox="0 0 20 20" fill="none" xmlns="http://www.w3.org/2000/svg">
<path fill-rule="evenodd" clip-rule="evenodd" d="M10.0419 19.8281H10.0378C8.37112 19.8276 6.73348 19.4114 5.27898 18.6218L0 20L1.41274 14.8645C0.541295 13.3615 0.0827425 11.6566 0.0834898 9.90989C0.0856743 4.44562 4.55292 0 10.0418 0C12.7057 0.00114423 15.206 1.03324 17.0861 2.90654C18.9662 4.77974 20.0011 7.26968 20 9.91771C19.9978 15.3807 15.5323 19.8259 10.0419 19.8281ZM5.52354 16.8276L5.82578 17.0061C7.09657 17.7566 8.55328 18.1537 10.0385 18.1543H10.0418C14.6038 18.1543 18.3168 14.459 18.3186 9.91705C18.3194 7.71603 17.4594 5.6465 15.8967 4.08949C14.334 2.53248 12.2558 1.67459 10.0451 1.67383C5.47962 1.67383 1.76661 5.36874 1.7648 9.91038C1.76415 11.4668 2.20174 12.9826 3.03027 14.2941L3.22707 14.6058L2.39092 17.6454L5.52354 16.8276ZM15.0587 12.2742C14.9966 12.1709 14.8307 12.109 14.5819 11.985C14.3331 11.861 13.1098 11.262 12.8816 11.1793C12.6536 11.0967 12.4877 11.0554 12.3218 11.3033C12.156 11.5511 11.6791 12.109 11.5339 12.2742C11.3888 12.4395 11.2436 12.4602 10.9949 12.3362C10.7461 12.2123 9.94435 11.9508 8.99393 11.1071C8.25423 10.4505 7.75486 9.6396 7.60971 9.39169C7.46457 9.14377 7.59424 9.0098 7.71881 8.88632C7.83075 8.77533 7.96765 8.59702 8.09205 8.45247C8.21645 8.30791 8.25792 8.20455 8.34086 8.0394C8.42379 7.87406 8.38234 7.7295 8.32012 7.60554C8.25792 7.48159 7.7603 6.26269 7.55296 5.76686C7.35097 5.284 7.14585 5.34941 6.99312 5.34178C6.84815 5.33453 6.68209 5.33301 6.51623 5.33301C6.35036 5.33301 6.08078 5.39499 5.85271 5.6429C5.62464 5.89082 4.98185 6.48992 4.98185 7.70872C4.98185 8.92761 5.87344 10.1051 5.99786 10.2704C6.12226 10.4357 7.75239 12.9369 10.2484 14.0095C10.8421 14.2646 11.3055 14.417 11.6669 14.5311C12.263 14.7196 12.8055 14.693 13.2341 14.6292C13.7122 14.5582 14.7063 14.0302 14.9137 13.4518C15.1209 12.8733 15.1209 12.3775 15.0587 12.2742Z" fill="#1D1914"/>
</svg>
