<svg width="20" height="9" viewBox="0 0 20 9" fill="none" xmlns="http://www.w3.org/2000/svg">
<path d="M10 5.85849C10.6725 4.01887 11.8275 2.64623 13.4649 1.74057C15.0731 0.834906 17.2515 0.254717 20 0V0.849057C18.538 0.933963 17.2661 1.24528 16.1842 1.78302C15.0731 2.32076 14.1374 2.9717 13.3772 3.73585C12.5877 4.5 11.9591 5.34906 11.4912 6.28302C10.9942 7.21698 10.6287 8.12264 10.3947 9H9.60526C9.37135 8.12264 9.02047 7.21698 8.55263 6.28302C8.05556 5.34906 7.4269 4.5 6.66667 3.73585C5.87719 2.9717 4.94152 2.32076 3.85965 1.78302C2.74854 1.24528 1.46199 0.933963 3.83431e-08 0.849057L0 7.59116e-07C2.74854 0.254718 4.94152 0.834906 6.57895 1.74057C8.18713 2.64623 9.32749 4.01887 10 5.85849Z" fill="#1D1914"/>
</svg>
