<svg width="17" height="36" viewBox="0 0 17 36" fill="none" xmlns="http://www.w3.org/2000/svg">
<path d="M11.066 18C7.5912 16.7895 4.99843 14.7105 3.28774 11.7632C1.57704 8.86842 0.481132 4.94737 0 0L1.60377 -7.01032e-08C1.76415 2.63158 2.3522 4.92105 3.36792 6.86842C4.38365 8.86842 5.61321 10.5526 7.0566 11.9211C8.5 13.3421 10.1038 14.4737 11.8679 15.3158C13.6321 16.2105 15.3428 16.8684 17 17.2895V18.7105C15.3428 19.1316 13.6321 19.7632 11.8679 20.6053C10.1038 21.5 8.5 22.6316 7.05661 24C5.61321 25.4211 4.38365 27.1053 3.36793 29.0526C2.3522 31.0526 1.76415 33.3684 1.60377 36L1.43389e-06 36C0.481133 31.0526 1.57705 27.1053 3.28774 24.1579C4.99843 21.2632 7.5912 19.2105 11.066 18Z" fill="white"/>
</svg>
