<svg width="25" height="23" viewBox="0 0 25 23" fill="none" xmlns="http://www.w3.org/2000/svg">
<path d="M21.3081 11.5C19.1461 10.7266 17.533 9.39839 16.4686 7.51535C15.4043 5.66594 14.7224 3.16082 14.4231 4.3471e-08L15.4209 0C15.5207 1.68129 15.8865 3.14401 16.5185 4.38816C17.1505 5.66594 17.9155 6.74196 18.8135 7.61623C19.7115 8.52412 20.7094 9.24708 21.807 9.78509C22.9046 10.3567 23.9689 10.777 25 11.0461V11.9539C23.9689 12.223 22.9046 12.6265 21.807 13.1645C20.7094 13.7361 19.7115 14.4591 18.8135 15.3333C17.9155 16.2412 17.1505 17.3173 16.5185 18.5614C15.8865 19.8392 15.5207 21.3187 15.4209 23H14.4231C14.7224 19.8392 15.4043 17.3173 16.4686 15.4342C17.533 13.5848 19.1461 12.2734 21.3081 11.5Z" fill="#7A9362"/>
<path d="M22.1154 10.5417V12.4583L0 11.9792V11.0208L22.1154 10.5417Z" fill="#7A9362"/>
</svg>
