<svg width="20" height="20" viewBox="0 0 20 20" fill="none" xmlns="http://www.w3.org/2000/svg">
<rect x="0.5" y="0.5" width="19" height="19" rx="9.5" stroke="#996D58"/>
<path d="M10.0002 16.12C9.58235 16.12 9.24365 15.7813 9.24365 15.3635V15.3125C9.24365 14.8947 9.58235 14.556 10.0002 14.556C10.418 14.556 10.7567 14.8947 10.7567 15.3125V15.3635C10.7567 15.7813 10.418 16.12 10.0002 16.12ZM10.0002 13.06C9.58235 13.06 9.24365 12.7213 9.24365 12.3035V4.63651C9.24365 4.2187 9.58235 3.88 10.0002 3.88C10.418 3.88 10.7567 4.2187 10.7567 4.63651V12.3035C10.7567 12.7213 10.418 13.06 10.0002 13.06Z" fill="#996D58"/>
</svg>
