<svg width="17" height="36" viewBox="0 0 17 36" fill="none" xmlns="http://www.w3.org/2000/svg">
<path d="M5.93396 18C9.4088 19.2105 12.0016 21.2895 13.7123 24.2368C15.423 27.1316 16.5189 31.0526 17 36L15.3962 36C15.2358 33.3684 14.6478 31.0789 13.6321 29.1316C12.6164 27.1316 11.3868 25.4474 9.9434 24.0789C8.5 22.6579 6.89623 21.5263 5.13208 20.6842C3.36792 19.7895 1.65723 19.1316 -7.86331e-08 18.7105V17.2895C1.65723 16.8684 3.36792 16.2368 5.13208 15.3947C6.89623 14.5 8.5 13.3684 9.94339 12C11.3868 10.5789 12.6164 8.89474 13.6321 6.94737C14.6478 4.94737 15.2358 2.63158 15.3962 1.39121e-07L17 0C16.5189 4.94737 15.423 8.89474 13.7123 11.8421C12.0016 14.7368 9.4088 16.7895 5.93396 18Z" fill="white"/>
</svg>
