<svg width="21" height="21" viewBox="0 0 21 21" fill="none" xmlns="http://www.w3.org/2000/svg">
<path d="M17.1563 2.33625C15.2648 0.822804 12.9141 -0.0011956 10.4916 1.30208e-06C7.63599 1.30208e-06 4.9688 1.10016 2.97474 3.09797C1.04771 5.0311 -0.00838733 7.58344 5.01689e-05 10.283C0.000115773 12.2622 0.581168 14.1978 1.67114 15.8498L1.68005 15.8625C1.69318 15.8817 1.70677 15.9009 1.72036 15.9197C1.73396 15.9384 1.75083 15.9628 1.75458 15.9689L1.76489 15.9877C1.81786 16.0814 1.85864 16.1958 1.82255 16.3111L0.959113 19.4358C0.92457 19.552 0.905654 19.6723 0.902863 19.7934C0.902239 20.1123 1.02806 20.4183 1.25275 20.6445C1.47744 20.8707 1.78265 20.9985 2.10146 21C2.26992 20.9944 2.43594 20.9581 2.5913 20.8927L5.75489 19.7508L5.79474 19.7353C5.8808 19.6992 5.97328 19.6808 6.06661 19.6814C6.15267 19.6816 6.23797 19.6975 6.31833 19.7283C6.39427 19.7578 7.0838 20.0217 7.8113 20.2252C8.41599 20.3939 9.67411 20.647 10.6599 20.647C13.456 20.647 16.0669 19.5642 18.0113 17.5973C19.9388 15.6455 21 13.0509 21 10.2886C21.0003 9.57952 20.9252 8.87242 20.776 8.17922C20.2913 5.90016 19.006 3.82453 17.1563 2.33625ZM6.00005 12C5.70338 12 5.41337 11.912 5.16669 11.7472C4.92002 11.5824 4.72776 11.3481 4.61423 11.074C4.5007 10.7999 4.47099 10.4983 4.52887 10.2074C4.58675 9.91639 4.72961 9.64912 4.93939 9.43934C5.14917 9.22956 5.41644 9.0867 5.70741 9.02882C5.99839 8.97095 6.29999 9.00065 6.57407 9.11418C6.84816 9.22771 7.08243 9.41997 7.24725 9.66665C7.41208 9.91332 7.50005 10.2033 7.50005 10.5C7.50005 10.8978 7.34201 11.2794 7.06071 11.5607C6.77941 11.842 6.39787 12 6.00005 12ZM10.5 12C10.2034 12 9.91337 11.912 9.66669 11.7472C9.42002 11.5824 9.22776 11.3481 9.11423 11.074C9.0007 10.7999 8.97099 10.4983 9.02887 10.2074C9.08675 9.91639 9.22961 9.64912 9.43939 9.43934C9.64917 9.22956 9.91644 9.0867 10.2074 9.02882C10.4984 8.97095 10.8 9.00065 11.0741 9.11418C11.3482 9.22771 11.5824 9.41997 11.7473 9.66665C11.9121 9.91332 12 10.2033 12 10.5C12 10.8978 11.842 11.2794 11.5607 11.5607C11.2794 11.842 10.8979 12 10.5 12ZM15 12C14.7034 12 14.4134 11.912 14.1667 11.7472C13.92 11.5824 13.7278 11.3481 13.6142 11.074C13.5007 10.7999 13.471 10.4983 13.5289 10.2074C13.5868 9.91639 13.7296 9.64912 13.9394 9.43934C14.1492 9.22956 14.4164 9.0867 14.7074 9.02882C14.9984 8.97095 15.3 9.00065 15.5741 9.11418C15.8482 9.22771 16.0824 9.41997 16.2473 9.66665C16.4121 9.91332 16.5 10.2033 16.5 10.5C16.5 10.8978 16.342 11.2794 16.0607 11.5607C15.7794 11.842 15.3979 12 15 12Z" fill="white"/>
</svg>
