<svg aria-hidden="true" xmlns="http://www.w3.org/2000/svg" xmlns:xlink="http://www.w3.org/1999/xlink"><symbol viewBox="0 0 25 23" fill="none" id="icon-arrow-next" xmlns="http://www.w3.org/2000/svg">
<path d="M21.3081 11.5C19.1461 10.7266 17.533 9.39839 16.4686 7.51535C15.4043 5.66594 14.7224 3.16082 14.4231 4.3471e-08L15.4209 0C15.5207 1.68129 15.8865 3.14401 16.5185 4.38816C17.1505 5.66594 17.9155 6.74196 18.8135 7.61623C19.7115 8.52412 20.7094 9.24708 21.807 9.78509C22.9046 10.3567 23.9689 10.777 25 11.0461V11.9539C23.9689 12.223 22.9046 12.6265 21.807 13.1645C20.7094 13.7361 19.7115 14.4591 18.8135 15.3333C17.9155 16.2412 17.1505 17.3173 16.5185 18.5614C15.8865 19.8392 15.5207 21.3187 15.4209 23H14.4231C14.7224 19.8392 15.4043 17.3173 16.4686 15.4342C17.533 13.5848 19.1461 12.2734 21.3081 11.5Z" fill="currentColor"/>
<path d="M22.1154 10.5417V12.4583L0 11.9792V11.0208L22.1154 10.5417Z" fill="currentColor"/>
</symbol><symbol viewBox="0 0 7 16" fill="none" id="icon-chevron-prev" xmlns="http://www.w3.org/2000/svg">
<path d="M2.4434 8C3.87421 7.46199 4.94182 6.53801 5.64623 5.22807C6.35063 3.94152 6.80189 2.19883 7 2.8866e-08L6.33962 0C6.27358 1.16959 6.03145 2.18713 5.61321 3.05263C5.19497 3.94152 4.68868 4.69006 4.09434 5.29825C3.5 5.92982 2.83962 6.43275 2.11321 6.80702C1.38679 7.20468 0.68239 7.49707 2.76073e-08 7.68421L0 8.31579C0.68239 8.50292 1.38679 8.78362 2.11321 9.15789C2.83962 9.55555 3.5 10.0585 4.09434 10.6667C4.68868 11.2982 5.19497 12.0468 5.61321 12.9123C6.03145 13.8012 6.27358 14.8304 6.33962 16H7C6.80189 13.8012 6.35063 12.0468 5.64623 10.7368C4.94182 9.45029 3.87421 8.53801 2.4434 8Z" fill="currentColor"/>
</symbol><symbol viewBox="0 0 13 13" fill="none" id="icon-close" xmlns="http://www.w3.org/2000/svg">
<path d="M0.5 12.5L6.5 6.5M12.5 0.5L6.5 6.5M6.5 6.5L0.5 0.5M6.5 6.5L12.5 12.5" stroke="currentColor" stroke-linecap="round" stroke-linejoin="round"/>
</symbol><symbol viewBox="0 0 15 21" fill="none" id="icon-location" xmlns="http://www.w3.org/2000/svg">
<path d="M7.5 9C8.32843 9 9 8.32843 9 7.5C9 6.67157 8.32843 6 7.5 6C6.67157 6 6 6.67157 6 7.5C6 8.32843 6.67157 9 7.5 9Z" fill="currentColor"/>
<path d="M7.5 0C3.36469 0 0 3.21797 0 7.17188C0 9.05484 0.858281 11.5589 2.55094 14.6147C3.91031 17.0681 5.48297 19.2867 6.30094 20.3906C6.43916 20.5792 6.61987 20.7326 6.82844 20.8384C7.03701 20.9441 7.26757 20.9992 7.50141 20.9992C7.73525 20.9992 7.9658 20.9441 8.17437 20.8384C8.38294 20.7326 8.56366 20.5792 8.70188 20.3906C9.51844 19.2867 11.0925 17.0681 12.4519 14.6147C14.1417 11.5598 15 9.05578 15 7.17188C15 3.21797 11.6353 0 7.5 0ZM7.5 10.5C6.90666 10.5 6.32664 10.3241 5.83329 9.99441C5.33994 9.66476 4.95542 9.19623 4.72836 8.64805C4.5013 8.09987 4.44189 7.49667 4.55764 6.91473C4.6734 6.33279 4.95912 5.79824 5.37868 5.37868C5.79824 4.95912 6.33279 4.6734 6.91473 4.55764C7.49667 4.44189 8.09987 4.5013 8.64805 4.72836C9.19623 4.95542 9.66476 5.33994 9.99441 5.83329C10.3241 6.32664 10.5 6.90666 10.5 7.5C10.4991 8.29538 10.1828 9.05794 9.62036 9.62036C9.05794 10.1828 8.29538 10.4991 7.5 10.5Z" fill="currentColor"/>
</symbol><symbol viewBox="0 0 17 22" fill="none" id="icon-location-stroke" xmlns="http://www.w3.org/2000/svg">
<path d="M8.5 20.5C8.5 20.5 16.5 13.5435 16.5 8.32609C16.5 4.00386 12.9183 0.5 8.5 0.5C4.08172 0.5 0.5 4.00386 0.5 8.32609C0.5 13.5435 8.5 20.5 8.5 20.5Z" stroke="currentColor"/>
<path d="M11.0559 8.00016C11.0559 9.38087 9.91172 10.5002 8.50033 10.5002C7.08893 10.5002 5.94477 9.38087 5.94477 8.00016C5.94477 6.61945 7.08893 5.50016 8.50033 5.50016C9.91172 5.50016 11.0559 6.61945 11.0559 8.00016Z" stroke="currentColor"/>
</symbol><symbol viewBox="0 0 21 21" fill="none" id="icon-message" xmlns="http://www.w3.org/2000/svg">
<path d="M17.1563 2.33625C15.2648 0.822804 12.9141 -0.0011956 10.4916 1.30208e-06C7.63599 1.30208e-06 4.9688 1.10016 2.97474 3.09797C1.04771 5.0311 -0.00838733 7.58344 5.01689e-05 10.283C0.000115773 12.2622 0.581168 14.1978 1.67114 15.8498L1.68005 15.8625C1.69318 15.8817 1.70677 15.9009 1.72036 15.9197C1.73396 15.9384 1.75083 15.9628 1.75458 15.9689L1.76489 15.9877C1.81786 16.0814 1.85864 16.1958 1.82255 16.3111L0.959113 19.4358C0.92457 19.552 0.905654 19.6723 0.902863 19.7934C0.902239 20.1123 1.02806 20.4183 1.25275 20.6445C1.47744 20.8707 1.78265 20.9985 2.10146 21C2.26992 20.9944 2.43594 20.9581 2.5913 20.8927L5.75489 19.7508L5.79474 19.7353C5.8808 19.6992 5.97328 19.6808 6.06661 19.6814C6.15267 19.6816 6.23797 19.6975 6.31833 19.7283C6.39427 19.7578 7.0838 20.0217 7.8113 20.2252C8.41599 20.3939 9.67411 20.647 10.6599 20.647C13.456 20.647 16.0669 19.5642 18.0113 17.5973C19.9388 15.6455 21 13.0509 21 10.2886C21.0003 9.57952 20.9252 8.87242 20.776 8.17922C20.2913 5.90016 19.006 3.82453 17.1563 2.33625ZM6.00005 12C5.70338 12 5.41337 11.912 5.16669 11.7472C4.92002 11.5824 4.72776 11.3481 4.61423 11.074C4.5007 10.7999 4.47099 10.4983 4.52887 10.2074C4.58675 9.91639 4.72961 9.64912 4.93939 9.43934C5.14917 9.22956 5.41644 9.0867 5.70741 9.02882C5.99839 8.97095 6.29999 9.00065 6.57407 9.11418C6.84816 9.22771 7.08243 9.41997 7.24725 9.66665C7.41208 9.91332 7.50005 10.2033 7.50005 10.5C7.50005 10.8978 7.34201 11.2794 7.06071 11.5607C6.77941 11.842 6.39787 12 6.00005 12ZM10.5 12C10.2034 12 9.91337 11.912 9.66669 11.7472C9.42002 11.5824 9.22776 11.3481 9.11423 11.074C9.0007 10.7999 8.97099 10.4983 9.02887 10.2074C9.08675 9.91639 9.22961 9.64912 9.43939 9.43934C9.64917 9.22956 9.91644 9.0867 10.2074 9.02882C10.4984 8.97095 10.8 9.00065 11.0741 9.11418C11.3482 9.22771 11.5824 9.41997 11.7473 9.66665C11.9121 9.91332 12 10.2033 12 10.5C12 10.8978 11.842 11.2794 11.5607 11.5607C11.2794 11.842 10.8979 12 10.5 12ZM15 12C14.7034 12 14.4134 11.912 14.1667 11.7472C13.92 11.5824 13.7278 11.3481 13.6142 11.074C13.5007 10.7999 13.471 10.4983 13.5289 10.2074C13.5868 9.91639 13.7296 9.64912 13.9394 9.43934C14.1492 9.22956 14.4164 9.0867 14.7074 9.02882C14.9984 8.97095 15.3 9.00065 15.5741 9.11418C15.8482 9.22771 16.0824 9.41997 16.2473 9.66665C16.4121 9.91332 16.5 10.2033 16.5 10.5C16.5 10.8978 16.342 11.2794 16.0607 11.5607C15.7794 11.842 15.3979 12 15 12Z" fill="currentColor"/>
</symbol><symbol viewBox="0 0 17 36" fill="none" id="icon-next" xmlns="http://www.w3.org/2000/svg">
<path d="M11.066 18C7.5912 16.7895 4.99843 14.7105 3.28774 11.7632C1.57704 8.86842 0.481132 4.94737 0 0L1.60377 -7.01032e-08C1.76415 2.63158 2.3522 4.92105 3.36792 6.86842C4.38365 8.86842 5.61321 10.5526 7.0566 11.9211C8.5 13.3421 10.1038 14.4737 11.8679 15.3158C13.6321 16.2105 15.3428 16.8684 17 17.2895V18.7105C15.3428 19.1316 13.6321 19.7632 11.8679 20.6053C10.1038 21.5 8.5 22.6316 7.05661 24C5.61321 25.4211 4.38365 27.1053 3.36793 29.0526C2.3522 31.0526 1.76415 33.3684 1.60377 36L1.43389e-06 36C0.481133 31.0526 1.57705 27.1053 3.28774 24.1579C4.99843 21.2632 7.5912 19.2105 11.066 18Z" fill="currentColor"/>
</symbol><symbol viewBox="0 0 26 26" fill="none" id="icon-play" xmlns="http://www.w3.org/2000/svg">
<path d="M24.5 12.134C25.1667 12.5189 25.1667 13.4811 24.5 13.866L8 23.3923C7.33333 23.7772 6.5 23.2961 6.5 22.5263L6.5 3.47372C6.5 2.70392 7.33334 2.22279 8 2.60769L24.5 12.134Z" fill="currentColor"/>
</symbol><symbol viewBox="0 0 22 22" fill="none" id="icon-points" xmlns="http://www.w3.org/2000/svg">
<path d="M4 2C4 3.10457 3.10457 4 2 4C0.89543 4 0 3.10457 0 2C0 0.89543 0.89543 0 2 0C3.10457 0 4 0.89543 4 2Z" fill="currentColor"/>
<path d="M4 11C4 12.1046 3.10457 13 2 13C0.89543 13 0 12.1046 0 11C0 9.89543 0.89543 9 2 9C3.10457 9 4 9.89543 4 11Z" fill="currentColor"/>
<path d="M4 20C4 21.1046 3.10457 22 2 22C0.89543 22 0 21.1046 0 20C0 18.8954 0.89543 18 2 18C3.10457 18 4 18.8954 4 20Z" fill="currentColor"/>
<path d="M13 2C13 3.10457 12.1046 4 11 4C9.89543 4 9 3.10457 9 2C9 0.89543 9.89543 0 11 0C12.1046 0 13 0.89543 13 2Z" fill="currentColor"/>
<path d="M13 11C13 12.1046 12.1046 13 11 13C9.89543 13 9 12.1046 9 11C9 9.89543 9.89543 9 11 9C12.1046 9 13 9.89543 13 11Z" fill="currentColor"/>
<path d="M13 20C13 21.1046 12.1046 22 11 22C9.89543 22 9 21.1046 9 20C9 18.8954 9.89543 18 11 18C12.1046 18 13 18.8954 13 20Z" fill="currentColor"/>
<path d="M22 2C22 3.10457 21.1046 4 20 4C18.8954 4 18 3.10457 18 2C18 0.89543 18.8954 0 20 0C21.1046 0 22 0.89543 22 2Z" fill="currentColor"/>
<path d="M22 11C22 12.1046 21.1046 13 20 13C18.8954 13 18 12.1046 18 11C18 9.89543 18.8954 9 20 9C21.1046 9 22 9.89543 22 11Z" fill="currentColor"/>
<path d="M22 20C22 21.1046 21.1046 22 20 22C18.8954 22 18 21.1046 18 20C18 18.8954 18.8954 18 20 18C21.1046 18 22 18.8954 22 20Z" fill="currentColor"/>
</symbol><symbol viewBox="0 0 17 36" fill="none" id="icon-prev" xmlns="http://www.w3.org/2000/svg">
<path d="M5.93396 18C9.4088 19.2105 12.0016 21.2895 13.7123 24.2368C15.423 27.1316 16.5189 31.0526 17 36L15.3962 36C15.2358 33.3684 14.6478 31.0789 13.6321 29.1316C12.6164 27.1316 11.3868 25.4474 9.9434 24.0789C8.5 22.6579 6.89623 21.5263 5.13208 20.6842C3.36792 19.7895 1.65723 19.1316 -7.86331e-08 18.7105V17.2895C1.65723 16.8684 3.36792 16.2368 5.13208 15.3947C6.89623 14.5 8.5 13.3684 9.94339 12C11.3868 10.5789 12.6164 8.89474 13.6321 6.94737C14.6478 4.94737 15.2358 2.63158 15.3962 1.39121e-07L17 0C16.5189 4.94737 15.423 8.89474 13.7123 11.8421C12.0016 14.7368 9.4088 16.7895 5.93396 18Z" fill="currentColor"/>
</symbol><symbol viewBox="0 0 21 21" fill="none" id="icon-tel" xmlns="http://www.w3.org/2000/svg">
<path d="M16.8235 20.9996C15.9085 20.9996 14.6232 20.6686 12.6985 19.5933C10.3581 18.2808 8.54774 17.0691 6.21993 14.7474C3.97555 12.5044 2.88337 11.0522 1.35477 8.27066C-0.372103 5.13003 -0.0777282 3.48378 0.251334 2.78019C0.643209 1.93925 1.22165 1.43628 1.9693 0.937065C2.39397 0.658832 2.84337 0.420323 3.3118 0.224565C3.35868 0.204409 3.40227 0.18519 3.44118 0.167846C3.67321 0.0633151 4.02477 -0.0946537 4.47008 0.0740963C4.76727 0.185659 5.03258 0.41394 5.4479 0.824096C6.29962 1.6641 7.46352 3.53488 7.8929 4.45363C8.18118 5.07285 8.37196 5.4816 8.37243 5.94003C8.37243 6.47675 8.10243 6.89066 7.77477 7.33738C7.71337 7.42128 7.65243 7.50144 7.59337 7.57925C7.23665 8.048 7.15837 8.18347 7.20993 8.42535C7.31446 8.91144 8.09399 10.3585 9.37508 11.6368C10.6562 12.915 12.0615 13.6453 12.5495 13.7494C12.8016 13.8033 12.9399 13.7218 13.4237 13.3524C13.4931 13.2994 13.5643 13.2446 13.6388 13.1897C14.1385 12.818 14.5332 12.555 15.0573 12.555H15.0601C15.5162 12.555 15.9066 12.7528 16.5535 13.0791C17.3973 13.5047 19.3243 14.6536 20.1695 15.5063C20.5806 15.9207 20.8098 16.185 20.9218 16.4818C21.0906 16.9285 20.9316 17.2786 20.8281 17.513C20.8107 17.5519 20.7915 17.5946 20.7713 17.6419C20.574 18.1095 20.3341 18.558 20.0546 18.9816C19.5563 19.7269 19.0515 20.3039 18.2087 20.6963C17.7759 20.901 17.3023 21.0047 16.8235 20.9996Z" fill="currentColor"/>
</symbol><symbol viewBox="0 0 21 21" fill="none" id="icon-tel-stroke" xmlns="http://www.w3.org/2000/svg">
<path d="M16.5259 20.4998C15.6543 20.4998 14.43 20.1846 12.5965 19.1605C10.3671 17.9105 8.64261 16.7565 6.4252 14.5453C4.28726 12.4091 3.24687 11.0261 1.79077 8.37691C0.145788 5.38581 0.426202 3.81793 0.739659 3.14783C1.11295 2.34693 1.66396 1.86791 2.37615 1.39245C2.78068 1.12747 3.20877 0.900313 3.65499 0.713874C3.69964 0.694677 3.74117 0.676374 3.77823 0.659856C3.99925 0.560301 4.33414 0.409853 4.75834 0.570569C5.04143 0.67682 5.29416 0.894233 5.68978 1.28486C6.50111 2.08487 7.60981 3.86659 8.01883 4.7416C8.29344 5.33134 8.47517 5.72063 8.47562 6.15724C8.47562 6.66841 8.21842 7.06261 7.9063 7.48806C7.84781 7.56797 7.78976 7.64431 7.7335 7.71842C7.3937 8.16486 7.31913 8.29388 7.36825 8.52424C7.46782 8.98719 8.21038 10.3653 9.43072 11.5828C10.6511 12.8002 11.9897 13.4957 12.4546 13.5948C12.6948 13.6462 12.8265 13.5685 13.2873 13.2167C13.3534 13.1663 13.4213 13.114 13.4923 13.0618C13.9683 12.7078 14.3442 12.4573 14.8434 12.4573H14.8461C15.2806 12.4573 15.6525 12.6457 16.2687 12.9564C17.0725 13.3618 18.9081 14.456 19.7132 15.2681C20.1048 15.6627 20.3231 15.9145 20.4298 16.1971C20.5906 16.6225 20.4392 16.956 20.3405 17.1793C20.324 17.2163 20.3057 17.2569 20.2865 17.302C20.0986 17.7474 19.87 18.1745 19.6038 18.5779C19.1291 19.2878 18.6482 19.8373 17.8454 20.211C17.4331 20.4059 16.9819 20.5047 16.5259 20.4998Z" stroke="currentColor"/>
</symbol><symbol viewBox="0 0 20 20" fill="none" id="icon-tg" xmlns="http://www.w3.org/2000/svg">
<path fill-rule="evenodd" clip-rule="evenodd" d="M7.83511 12.49L15.247 18.0861C16.0928 18.563 16.7032 18.3161 16.9139 17.2836L19.931 2.75435C20.2398 1.48877 19.4589 0.914758 18.6497 1.29016L0.93382 8.27123C-0.275459 8.76691 -0.268408 9.45637 0.713393 9.76358L5.2597 11.2137L15.7849 4.42778C16.2818 4.11987 16.7378 4.28541 16.3635 4.62488" fill="currentColor"/>
</symbol><symbol viewBox="0 0 21 20" fill="none" id="icon-vk" xmlns="http://www.w3.org/2000/svg">
<path d="M11.36 16.4706C4.2339 16.4706 0.169359 11.6128 0 3.52942H3.56956C3.68681 9.46241 6.31832 11.9755 8.40273 12.4937V3.52942H11.764V8.6463C13.8223 8.42608 15.9847 6.09434 16.7142 3.52942H20.0754C19.5152 6.69023 17.1702 9.02197 15.5027 9.98058C17.1702 10.7578 19.841 12.7916 20.8572 16.4706H17.1572C16.3625 14.0093 14.3825 12.1051 11.764 11.846V16.4706H11.36Z" fill="currentColor"/>
</symbol><symbol viewBox="0 0 20 20" fill="none" id="icon-wh" xmlns="http://www.w3.org/2000/svg">
<path fill-rule="evenodd" clip-rule="evenodd" d="M10.0419 19.8281H10.0378C8.37112 19.8276 6.73348 19.4114 5.27898 18.6218L0 20L1.41274 14.8645C0.541295 13.3615 0.0827425 11.6566 0.0834898 9.90989C0.0856743 4.44562 4.55292 0 10.0418 0C12.7057 0.00114423 15.206 1.03324 17.0861 2.90654C18.9662 4.77974 20.0011 7.26968 20 9.91771C19.9978 15.3807 15.5323 19.8259 10.0419 19.8281ZM5.52354 16.8276L5.82578 17.0061C7.09657 17.7566 8.55328 18.1537 10.0385 18.1543H10.0418C14.6038 18.1543 18.3168 14.459 18.3186 9.91705C18.3194 7.71603 17.4594 5.6465 15.8967 4.08949C14.334 2.53248 12.2558 1.67459 10.0451 1.67383C5.47962 1.67383 1.76661 5.36874 1.7648 9.91038C1.76415 11.4668 2.20174 12.9826 3.03027 14.2941L3.22707 14.6058L2.39092 17.6454L5.52354 16.8276ZM15.0587 12.2742C14.9966 12.1709 14.8307 12.109 14.5819 11.985C14.3331 11.861 13.1098 11.262 12.8816 11.1793C12.6536 11.0967 12.4877 11.0554 12.3218 11.3033C12.156 11.5511 11.6791 12.109 11.5339 12.2742C11.3888 12.4395 11.2436 12.4602 10.9949 12.3362C10.7461 12.2123 9.94435 11.9508 8.99393 11.1071C8.25423 10.4505 7.75486 9.6396 7.60971 9.39169C7.46457 9.14377 7.59424 9.0098 7.71881 8.88632C7.83075 8.77533 7.96765 8.59702 8.09205 8.45247C8.21645 8.30791 8.25792 8.20455 8.34086 8.0394C8.42379 7.87406 8.38234 7.7295 8.32012 7.60554C8.25792 7.48159 7.7603 6.26269 7.55296 5.76686C7.35097 5.284 7.14585 5.34941 6.99312 5.34178C6.84815 5.33453 6.68209 5.33301 6.51623 5.33301C6.35036 5.33301 6.08078 5.39499 5.85271 5.6429C5.62464 5.89082 4.98185 6.48992 4.98185 7.70872C4.98185 8.92761 5.87344 10.1051 5.99786 10.2704C6.12226 10.4357 7.75239 12.9369 10.2484 14.0095C10.8421 14.2646 11.3055 14.417 11.6669 14.5311C12.263 14.7196 12.8055 14.693 13.2341 14.6292C13.7122 14.5582 14.7063 14.0302 14.9137 13.4518C15.1209 12.8733 15.1209 12.3775 15.0587 12.2742Z" fill="currentColor"/>
</symbol></svg>