<svg width="81" height="80" viewBox="0 0 81 80" fill="none" xmlns="http://www.w3.org/2000/svg">
<path d="M4.92367 71L0.5 66.594M4.92367 71H13.3134M4.92367 71L17.1962 53.0781M68.3042 71L72.7279 66.594M68.3042 71H60.067M68.3042 71L65.8072 67.3797M60.067 71L36.4995 36.6638M60.067 71H36.4995M36.4995 36.6638L13.3134 71M36.4995 36.6638V61.2005M13.3134 71H26.6607M36.4995 71V61.2005M36.4995 71H26.6607M36.4995 61.2005L26.6607 71M36.4995 61.2005H26.6607V71M48.0079 41.5742L36.4995 24.8892L28.929 35.9445M48.0079 41.5742L55.5839 28.5274H51.4911L62.5421 11.6712L73.5931 28.5274H69.5003L78.4907 44.01H72.4521L80.5 57.8695H65.8072V67.3797M48.0079 41.5742L49.6881 44.01M49.6881 44.01H52.6321L51.2864 46.3274M49.6881 44.01L51.2864 46.3274M51.2864 46.3274L65.8072 67.3797M26.7075 39.1887L26.1493 38.2265H27.3663M26.7075 39.1887L27.3663 38.2265M26.7075 39.1887L17.1962 53.0781M27.3663 38.2265L28.929 35.9445M28.929 35.9445L24.1434 27.695H26.9247L19.415 16.2291L11.9053 27.695H14.6866L8.57718 38.2265H12.6807L7.21178 47.654H17.1962V53.0781M1.72027 15.7733C1.72027 18.9619 4.31547 21.5467 7.51681 21.5467C8.40957 21.5467 9.25519 21.3457 10.0105 20.9866C9.74685 21.055 9.47404 21.0909 9.19475 21.0909C6.92012 21.0909 5.07616 18.7102 5.07616 15.7733C5.07616 12.8365 6.92012 10.4558 9.19475 10.4558C9.47404 10.4558 9.74684 10.4917 10.0105 10.5601C9.25519 10.201 8.40957 10 7.51681 10C4.31547 10 1.72027 12.5848 1.72027 15.7733Z" stroke="#B0C74C" stroke-linecap="round" stroke-linejoin="round"/>
<path d="M4.92367 71L0.5 66.594M4.92367 71H13.3134M4.92367 71L17.1962 53.0781L26.7075 39.1887L27.3663 38.2265L28.929 35.9445L36.4995 24.8892L48.0079 41.5742L49.6881 44.01L51.2864 46.3274L65.8072 67.3797L68.3042 71M68.3042 71L72.7279 66.594M68.3042 71H60.067M60.067 71L36.4995 36.6638M60.067 71H36.4995M36.4995 36.6638L13.3134 71M36.4995 36.6638V61.2005M13.3134 71H26.6607M36.4995 71V61.2005M36.4995 71H26.6607M36.4995 61.2005L26.6607 71M36.4995 61.2005H26.6607V71M1.72027 15.7733C1.72027 18.9619 4.31547 21.5467 7.51681 21.5467C8.40957 21.5467 9.25519 21.3457 10.0105 20.9866C9.74685 21.055 9.47404 21.0909 9.19475 21.0909C6.92011 21.0909 5.07616 18.7102 5.07616 15.7733C5.07616 12.8365 6.92011 10.4558 9.19475 10.4558C9.47404 10.4558 9.74684 10.4917 10.0105 10.5601C9.25519 10.201 8.40957 10 7.51681 10C4.31547 10 1.72027 12.5848 1.72027 15.7733Z" stroke="#1D1914" stroke-linecap="round" stroke-linejoin="round"/>
</svg>
