<svg width="5" height="10" viewBox="0 0 5 10" fill="none" xmlns="http://www.w3.org/2000/svg">
<path d="M3.25472 5C2.2327 4.66374 1.47013 4.08626 0.966981 3.26754C0.463837 2.46345 0.14151 1.37427 0 0L0.471698 -2.06186e-08C0.518868 0.730994 0.691824 1.36696 0.990566 1.9079C1.28931 2.46345 1.65094 2.93129 2.07547 3.3114C2.5 3.70614 2.9717 4.02047 3.49057 4.25439C4.00943 4.50292 4.51258 4.68567 5 4.80263V5.19737C4.51258 5.31433 4.00943 5.48977 3.49057 5.72368C2.9717 5.97222 2.5 6.28655 2.07547 6.66667C1.65094 7.0614 1.28931 7.52924 0.990566 8.07018C0.691824 8.62573 0.518868 9.26901 0.471698 10L4.21731e-07 10C0.14151 8.62573 0.463837 7.52924 0.966981 6.71053C1.47013 5.90643 2.2327 5.33626 3.25472 5Z" fill="#1D1914"/>
</svg>
