<svg width="80" height="81" viewBox="0 0 80 81" fill="none" xmlns="http://www.w3.org/2000/svg">
<path d="M75 40.7899V46.2971M75 40.7899C75 38.686 67.61 36.8577 56.7478 35.9304M75 40.7899C75 43.2677 64.7488 45.3634 50.6471 46.055M6 40.7899V46.2971M6 40.7899C6 38.6821 13.4174 36.851 24.3126 35.9252M6 40.7899C6 43.2762 16.3215 45.3777 30.4979 46.0621M75 46.2971L70.0714 75.8623C70.0714 77.8216 62.3242 79.4971 51.3719 80.1765M75 46.2971C75 48.6719 65.584 50.6956 52.3866 51.4687M6 46.2971L10.9286 75.8623C10.9286 77.8216 18.6758 79.4971 29.6282 80.1765M6 46.2971C6 48.6719 15.416 50.6956 28.6134 51.4687M52.3866 51.4687C48.6809 51.6858 44.6772 51.8043 40.5 51.8043C36.3228 51.8043 32.3191 51.6858 28.6134 51.4687M52.3866 51.4687L51.3719 80.1765M51.3719 80.1765C48.0066 80.3853 44.3387 80.5 40.5 80.5C36.6613 80.5 32.9934 80.3853 29.6282 80.1765M28.6134 51.4687L29.6282 80.1765M31.3676 26.8768L30.1103 32.785C30.0061 33.2749 30.3362 33.7513 30.8315 33.8259L40.9349 35.3465M40.9349 35.3465L48.6529 33.8502C49.1169 33.7602 49.4241 33.3164 49.3448 32.8506L48.3277 26.8768M40.9349 35.3465C42.2961 35.5514 43.2337 36.8203 43.0295 38.1814L42.9607 38.6396C42.8139 39.6183 42.2023 40.4139 41.3822 40.8338M41.3822 40.8338C41.5587 41.3864 42.4028 41.512 43.1092 41.4159L50.6471 40.1348M41.3822 40.8338C41.3776 40.8195 41.3734 40.8048 41.3697 40.7899M41.3822 40.8338C40.8652 41.0985 40.2655 41.2139 39.6471 41.1318L30.4979 39.9169M56.7478 35.9304C56.9283 35.369 57.0252 34.7723 57.0252 34.156V29.1957C57.0252 24.3932 53.1312 20.5 48.3277 20.5H32.6723C27.8688 20.5 23.9748 24.3932 23.9748 29.1957V33.9726C23.9748 34.6553 24.0935 35.3132 24.3126 35.9252M56.7478 35.9304C56.1004 37.9434 54.3783 39.5006 52.1987 39.8711L50.6471 40.1348M24.3126 35.9252C25.0263 37.9191 26.8046 39.4265 29.0097 39.7193L30.4979 39.9169M65.1429 25.1377C67.4622 22.7364 67.4622 18.8433 65.1429 16.442C62.8235 14.0408 62.8235 10.1476 65.1429 7.74638M16.1471 25.1377C18.4664 22.7364 18.4664 18.8433 16.1471 16.442C13.8277 14.0408 13.8277 10.1476 16.1471 7.74638M50.6471 40.1348V46.055M50.6471 46.055C47.4389 46.2124 44.0314 46.2971 40.5 46.2971C37.0217 46.2971 33.6637 46.2149 30.4979 46.0621M30.4979 39.9169V46.0621M48.6176 8.61594C48.6176 13.0983 44.9833 16.7319 40.5 16.7319C36.0167 16.7319 32.3824 13.0983 32.3824 8.61594C32.3824 4.13363 36.0167 0.5 40.5 0.5C44.9833 0.5 48.6176 4.13363 48.6176 8.61594Z" stroke="#B0C74C" stroke-linecap="round" stroke-linejoin="round"/>
<path d="M31.3673 26.8768L30.11 32.785C30.0057 33.2749 30.3359 33.7513 30.8312 33.8259L40.9345 35.3465M40.9345 35.3465L48.6526 33.8502C49.1165 33.7602 49.4237 33.3164 49.3444 32.8506L48.3274 26.8768M40.9345 35.3465C42.2957 35.5514 43.2333 36.8203 43.0292 38.1814L42.9604 38.6396C42.8136 39.6183 42.202 40.4139 41.3818 40.8338M41.3818 40.8338C41.5584 41.3864 42.4025 41.512 43.1089 41.4159L50.6467 40.1348M41.3818 40.8338C41.3772 40.8195 41.3731 40.8048 41.3694 40.7899M41.3818 40.8338C40.8649 41.0985 40.2652 41.2139 39.6467 41.1318L30.4976 39.9169M65.1425 25.1377C67.4619 22.7364 67.4619 18.8433 65.1425 16.442C62.8232 14.0408 62.8232 10.1476 65.1425 7.74638M16.1467 25.1377C18.4661 22.7364 18.4661 18.8433 16.1467 16.442C13.8274 14.0408 13.8274 10.1476 16.1467 7.74638M50.6467 40.1348L52.1983 39.8711C54.3779 39.5006 56.1001 37.9434 56.7474 35.9304C56.9279 35.369 57.0249 34.7723 57.0249 34.156V29.1957C57.0249 24.3932 53.1309 20.5 48.3274 20.5H32.6719C27.8684 20.5 23.9745 24.3932 23.9745 29.1957V33.9726C23.9745 34.6553 24.0932 35.3132 24.3123 35.9252C25.026 37.9191 26.8043 39.4265 29.0094 39.7193L30.4976 39.9169M50.6467 40.1348V46.055M30.4976 39.9169V46.0621M48.6173 8.61594C48.6173 13.0983 44.9829 16.7319 40.4997 16.7319C36.0164 16.7319 32.382 13.0983 32.382 8.61594C32.382 4.13363 36.0164 0.5 40.4997 0.5C44.9829 0.5 48.6173 4.13363 48.6173 8.61594Z" stroke="#1D1914" stroke-linecap="round" stroke-linejoin="round"/>
</svg>
