<svg width="38" height="29" viewBox="0 0 38 29" fill="none" xmlns="http://www.w3.org/2000/svg">
<path d="M0.75 27.75V24.4342M0.75 24.4342V16.8553C0.75 14.7624 2.46923 13.0658 4.59 13.0658M0.75 24.4342H36.75M36.75 24.4342V16.8553C36.75 14.7624 35.0308 13.0658 32.91 13.0658M36.75 24.4342V27.75M4.59 13.0658V4.53947C4.59 2.44661 6.30923 0.75 8.43 0.75H29.07C31.1908 0.75 32.91 2.44661 32.91 4.53947V13.0658M4.59 13.0658H32.91M5.07 13.0658V11.1711C5.07 9.6014 6.35942 8.32895 7.95 8.32895H15.63C17.2206 8.32895 18.51 9.6014 18.51 11.1711M18.51 11.1711V13.0658M18.51 11.1711C18.51 9.6014 19.7994 8.32895 21.39 8.32895H29.07C30.6606 8.32895 31.95 9.6014 31.95 11.1711V13.0658" stroke="#B0C74C" stroke-width="1.5" stroke-linecap="round" stroke-linejoin="round"/>
</svg>
