<svg width="16" height="7" viewBox="0 0 16 7" fill="none" xmlns="http://www.w3.org/2000/svg">
<path d="M8 4.5566C8.53801 3.12579 9.46199 2.05818 10.7719 1.35377C12.0585 0.649371 13.8012 0.198113 16 0V0.660377C14.8304 0.726415 13.8129 0.968554 12.9474 1.38679C12.0585 1.80503 11.3099 2.31132 10.7018 2.90566C10.0702 3.5 9.56725 4.16038 9.19298 4.88679C8.79532 5.61321 8.50292 6.31761 8.31579 7H7.68421C7.49708 6.31761 7.21637 5.61321 6.84211 4.88679C6.44444 4.16038 5.94152 3.5 5.33333 2.90566C4.70175 2.31132 3.95322 1.80503 3.08772 1.38679C2.19883 0.968554 1.16959 0.726416 3.06745e-08 0.660378L0 5.90423e-07C2.19883 0.198114 3.95322 0.649372 5.26316 1.35377C6.54971 2.05818 7.46199 3.12579 8 4.5566Z" fill="#1D1914"/>
</svg>
