<svg width="7" height="16" viewBox="0 0 7 16" fill="none" xmlns="http://www.w3.org/2000/svg">
<path d="M4.5566 8C3.12579 7.46199 2.05818 6.53801 1.35377 5.22807C0.649371 3.94152 0.198113 2.19883 -6.99382e-07 0L0.660377 -2.8866e-08C0.726415 1.16959 0.968553 2.18713 1.38679 3.05263C1.80503 3.94152 2.31132 4.69006 2.90566 5.29825C3.5 5.92982 4.16038 6.43275 4.88679 6.80702C5.61321 7.20468 6.31761 7.49707 7 7.68421L7 8.31579C6.31761 8.50292 5.61321 8.78363 4.88679 9.15789C4.16038 9.55556 3.5 10.0585 2.90566 10.6667C2.31132 11.2982 1.80503 12.0468 1.38679 12.9123C0.968554 13.8012 0.726416 14.8304 0.660378 16L5.90423e-07 16C0.198114 13.8012 0.649371 12.0468 1.35377 10.7368C2.05818 9.45029 3.12579 8.53801 4.5566 8Z" fill="#1D1914"/>
</svg>
