<svg width="7" height="16" viewBox="0 0 7 16" fill="none" xmlns="http://www.w3.org/2000/svg">
<path d="M2.4434 8C3.87421 7.46199 4.94182 6.53801 5.64623 5.22807C6.35063 3.94152 6.80189 2.19883 7 2.8866e-08L6.33962 0C6.27358 1.16959 6.03145 2.18713 5.61321 3.05263C5.19497 3.94152 4.68868 4.69006 4.09434 5.29825C3.5 5.92982 2.83962 6.43275 2.11321 6.80702C1.38679 7.20468 0.68239 7.49707 2.76073e-08 7.68421L0 8.31579C0.68239 8.50292 1.38679 8.78362 2.11321 9.15789C2.83962 9.55555 3.5 10.0585 4.09434 10.6667C4.68868 11.2982 5.19497 12.0468 5.61321 12.9123C6.03145 13.8012 6.27358 14.8304 6.33962 16H7C6.80189 13.8012 6.35063 12.0468 5.64623 10.7368C4.94182 9.45029 3.87421 8.53801 2.4434 8Z" fill="#1D1914"/>
</svg>
