<svg width="219" height="254" viewBox="0 0 219 254" fill="none" xmlns="http://www.w3.org/2000/svg">
<path d="M218.5 127.917V145.333M218.5 127.917C218.5 121.263 195.152 115.481 160.833 112.549M218.5 127.917C218.5 135.753 186.112 142.38 141.559 144.568M0.5 127.917V145.333M0.5 127.917C0.5 121.251 23.9346 115.46 58.3572 112.532M0.5 127.917C0.5 135.78 33.1101 142.426 77.8992 144.59M218.5 145.333L202.929 238.833C202.929 245.03 178.452 250.328 143.849 252.477M218.5 145.333C218.5 152.844 188.751 159.244 147.055 161.689M0.5 145.333L16.0714 238.833C16.0714 245.03 40.5482 250.328 75.1513 252.477M0.5 145.333C0.5 152.844 30.2492 159.244 71.9454 161.689M147.055 161.689C135.347 162.375 122.697 162.75 109.5 162.75C96.3026 162.75 83.653 162.375 71.9454 161.689M147.055 161.689L143.849 252.477M143.849 252.477C133.216 253.137 121.628 253.5 109.5 253.5C97.3719 253.5 85.7836 253.137 75.1513 252.477M71.9454 161.689L75.1513 252.477M80.6471 83.9167L76.6746 102.601C76.3452 104.151 77.3883 105.657 78.9533 105.893L110.874 110.702M110.874 110.702L135.258 105.97C136.724 105.686 137.695 104.282 137.444 102.809L134.231 83.9167M110.874 110.702C115.175 111.35 118.137 115.363 117.492 119.667L117.274 121.116C116.811 124.212 114.878 126.728 112.287 128.056M112.287 128.056C112.845 129.803 115.512 130.2 117.744 129.897L141.559 125.845M112.287 128.056C112.273 128.01 112.26 127.964 112.248 127.917M112.287 128.056C110.654 128.893 108.759 129.258 106.805 128.998L77.8992 125.156M160.833 112.549C161.404 110.773 161.71 108.886 161.71 106.937V91.25C161.71 76.0622 149.407 63.75 134.231 63.75H84.7689C69.5927 63.75 57.2899 76.0622 57.2899 91.25V106.357C57.2899 108.516 57.6651 110.597 58.3572 112.532M160.833 112.549C158.788 118.915 153.347 123.839 146.461 125.011L141.559 125.845M58.3572 112.532C60.6121 118.838 66.2306 123.605 73.1974 124.531L77.8992 125.156M187.357 78.4167C194.685 70.8228 194.685 58.5106 187.357 50.9167C180.029 43.3228 180.029 31.0106 187.357 23.4167M32.5588 78.4167C39.8866 70.8228 39.8866 58.5106 32.5588 50.9167C25.2311 43.3228 25.2311 31.0106 32.5588 23.4167M141.559 125.845V144.568M141.559 144.568C131.423 145.065 120.657 145.333 109.5 145.333C98.5107 145.333 87.9013 145.073 77.8992 144.59M77.8992 125.156V144.59M135.147 26.1667C135.147 40.342 123.664 51.8333 109.5 51.8333C95.3355 51.8333 83.8529 40.342 83.8529 26.1667C83.8529 11.9914 95.3355 0.5 109.5 0.5C123.664 0.5 135.147 11.9914 135.147 26.1667Z" stroke="#996D58" stroke-opacity="0.3" stroke-linecap="round" stroke-linejoin="round"/>
</svg>
