<svg width="35" height="126" viewBox="0 0 35 126" fill="none" xmlns="http://www.w3.org/2000/svg">
<path d="M17.5016 69.6316C16.5244 69.6316 15.7323 68.8475 15.7323 67.88V6.67072L3.13988 21.973C2.52351 22.7223 1.40895 22.8362 0.652065 22.226C-0.104823 21.6158 -0.219805 20.5124 0.396563 19.7631L16.1283 0.64464C16.601 0.0692223 17.3898 -0.145779 18.0924 0.100829C18.7982 0.350598 19.2677 1.01139 19.2677 1.75121V67.88C19.2677 68.8475 18.4757 69.6316 17.4984 69.6316H17.5016Z" fill="#9FA87A"/>
<path d="M1.99974 40.8954C1.60693 40.8954 1.21093 40.7658 0.881984 40.5034C0.125097 39.8932 0.0133 38.7898 0.629668 38.0405L15.8984 19.4943C16.5147 18.745 17.6293 18.6312 18.3862 19.2414C19.1431 19.8516 19.258 20.955 18.6417 21.7043L3.37301 40.2505C3.02172 40.6741 2.51391 40.8954 1.99974 40.8954Z" fill="#9FA87A"/>
<path d="M33.0002 40.8954C32.486 40.8954 31.9783 40.6773 31.627 40.2505L16.3583 21.7043C15.7419 20.955 15.8537 19.8516 16.6138 19.2414C17.3707 18.6312 18.4852 18.7418 19.1016 19.4943L34.3703 38.0405C34.9867 38.7898 34.8749 39.8932 34.1148 40.5034C33.7859 40.769 33.3898 40.8954 33.0002 40.8954Z" fill="#9FA87A"/>
<path d="M1.99974 59.7451C1.60693 59.7451 1.21093 59.6155 0.881984 59.3531C0.125097 58.7429 0.0133 57.6395 0.629668 56.8901L15.8984 38.3472C16.5147 37.5979 17.6293 37.484 18.3862 38.0974C19.1431 38.7076 19.2549 39.811 18.6385 40.5603L3.36983 59.1033C3.01853 59.527 2.51073 59.7483 1.99655 59.7483L1.99974 59.7451Z" fill="#9FA87A"/>
<path d="M33.1727 59.7451C32.6585 59.7451 32.1507 59.527 31.7994 59.1002L16.5307 40.5572C15.9144 39.8078 16.0261 38.7044 16.7862 38.0942C17.5431 37.4841 18.6577 37.5947 19.274 38.3472L34.5428 56.8902C35.1591 57.6395 35.0473 58.7429 34.2872 59.3531C33.9583 59.6187 33.5623 59.7451 33.1727 59.7451Z" fill="#9FA87A"/>
<path d="M33.2334 22.6212C32.7192 22.6212 32.2114 22.3999 31.8601 21.9762L16.1251 2.85777C15.5088 2.10846 15.6238 1.00504 16.3806 0.394844C17.1375 -0.215352 18.2521 -0.101513 18.8684 0.647795L34.6034 19.7662C35.2198 20.5155 35.1048 21.6189 34.348 22.2291C34.019 22.4947 33.623 22.6212 33.2334 22.6212Z" fill="#9FA87A"/>
<path d="M17.5016 126C16.5244 126 15.7323 125.216 15.7323 124.248V63.0391L3.13988 78.3415C2.52351 79.0908 1.40895 79.2046 0.652065 78.5944C-0.104823 77.9842 -0.219805 76.8808 0.396563 76.1315L16.1283 57.0131C16.601 56.4376 17.3898 56.2226 18.0924 56.4693C18.7982 56.719 19.2677 57.3798 19.2677 58.1196V124.248C19.2677 125.216 18.4757 126 17.4984 126H17.5016Z" fill="#9FA87A"/>
<path d="M1.99974 97.2639C1.60693 97.2639 1.21093 97.1342 0.881984 96.8718C0.125097 96.2616 0.0133 95.1582 0.629668 94.4089L15.8984 75.8627C16.5147 75.1134 17.6293 74.9996 18.3862 75.6098C19.1431 76.22 19.258 77.3234 18.6417 78.0727L3.37301 96.6189C3.02172 97.0425 2.51391 97.2639 1.99974 97.2639Z" fill="#9FA87A"/>
<path d="M33.0002 97.2639C32.486 97.2639 31.9783 97.0457 31.627 96.6189L16.3583 78.0727C15.7419 77.3234 15.8537 76.22 16.6138 75.6098C17.3707 74.9996 18.4852 75.1103 19.1016 75.8627L34.3703 94.4089C34.9867 95.1582 34.8749 96.2616 34.1148 96.8718C33.7859 97.1374 33.3898 97.2639 33.0002 97.2639Z" fill="#9FA87A"/>
<path d="M1.99974 116.114C1.60693 116.114 1.21093 115.984 0.881984 115.721C0.125097 115.111 0.0133 114.008 0.629668 113.259L15.8984 94.7156C16.5147 93.9663 17.6293 93.8524 18.3862 94.4658C19.1431 95.076 19.2549 96.1794 18.6385 96.9287L3.36983 115.472C3.01853 115.895 2.51073 116.117 1.99655 116.117L1.99974 116.114Z" fill="#9FA87A"/>
<path d="M33.1727 116.114C32.6585 116.114 32.1507 115.895 31.7994 115.469L16.5307 96.9256C15.9144 96.1763 16.0261 95.0729 16.7862 94.4627C17.5431 93.8525 18.6577 93.9631 19.274 94.7156L34.5428 113.259C35.1591 114.008 35.0473 115.111 34.2872 115.722C33.9583 115.987 33.5623 116.114 33.1727 116.114Z" fill="#9FA87A"/>
<path d="M33.2334 78.9896C32.7192 78.9896 32.2114 78.7683 31.8601 78.3446L16.1251 59.2262C15.5088 58.4769 15.6238 57.3735 16.3806 56.7633C17.1375 56.1531 18.2521 56.2669 18.8684 57.0162L34.6034 76.1346C35.2198 76.8839 35.1048 77.9873 34.348 78.5975C34.019 78.8631 33.623 78.9896 33.2334 78.9896Z" fill="#9FA87A"/>
</svg>
