<svg width="52" height="96" viewBox="0 0 52 96" fill="none" xmlns="http://www.w3.org/2000/svg">
<path d="M41.501 42C40.9146 42 40.4394 41.5271 40.4394 40.9435V4.02361L32.8839 13.2536C32.5141 13.7055 31.8454 13.7742 31.3912 13.4061C30.9371 13.0381 30.8681 12.3725 31.2379 11.9206L40.677 0.388831C40.9606 0.0417531 41.4339 -0.0879303 41.8554 0.0608172C42.2789 0.211472 42.5606 0.610043 42.5606 1.05629V40.9435C42.5606 41.5271 42.0854 42 41.4991 42H41.501Z" fill="#99A58E"/>
<path d="M32.1998 24.6671C31.9642 24.6671 31.7266 24.5889 31.5292 24.4306C31.0751 24.0626 31.008 23.397 31.3778 22.9451L40.539 11.7585C40.9088 11.3065 41.5776 11.2379 42.0317 11.6059C42.4859 11.974 42.5548 12.6395 42.185 13.0915L33.0238 24.2781C32.813 24.5336 32.5083 24.6671 32.1998 24.6671Z" fill="#99A58E"/>
<path d="M50.8001 24.6671C50.4916 24.6671 50.187 24.5355 49.9762 24.2781L40.815 13.0915C40.4451 12.6395 40.5122 11.974 40.9683 11.6059C41.4224 11.2379 42.0911 11.3046 42.461 11.7585L51.6222 22.9451C51.992 23.397 51.9249 24.0626 51.4689 24.4306C51.2715 24.5908 51.0339 24.6671 50.8001 24.6671Z" fill="#99A58E"/>
<path d="M32.1998 36.0367C31.9642 36.0367 31.7266 35.9585 31.5292 35.8003C31.0751 35.4322 31.008 34.7667 31.3778 34.3147L40.539 23.13C40.9088 22.6781 41.5776 22.6094 42.0317 22.9794C42.4859 23.3474 42.5529 24.013 42.1831 24.4649L33.0219 35.6496C32.8111 35.9051 32.5064 36.0386 32.1979 36.0386L32.1998 36.0367Z" fill="#99A58E"/>
<path d="M50.9036 36.0367C50.5951 36.0367 50.2904 35.9052 50.0797 35.6477L40.9184 24.463C40.5486 24.0111 40.6157 23.3455 41.0717 22.9775C41.5259 22.6094 42.1946 22.6762 42.5644 23.13L51.7257 34.3147C52.0955 34.7667 52.0284 35.4322 51.5723 35.8003C51.375 35.9605 51.1374 36.0367 50.9036 36.0367Z" fill="#99A58E"/>
<path d="M50.94 13.6445C50.6315 13.6445 50.3268 13.511 50.1161 13.2555L40.6751 1.72374C40.3053 1.27177 40.3743 0.606214 40.8284 0.23816C41.2825 -0.129895 41.9512 -0.0612299 42.3211 0.390734L51.7621 11.9225C52.1319 12.3744 52.0629 13.04 51.6088 13.408C51.4114 13.5682 51.1738 13.6445 50.94 13.6445Z" fill="#99A58E"/>
<path d="M10.501 62C9.91461 62 9.4394 61.5271 9.4394 60.9435V24.0236L1.88393 33.2536C1.51411 33.7055 0.845372 33.7742 0.391239 33.4061C-0.0628935 33.0381 -0.131883 32.3725 0.237938 31.9206L9.677 20.3888C9.96059 20.0418 10.4339 19.9121 10.8554 20.0608C11.2789 20.2115 11.5606 20.61 11.5606 21.0563V60.9435C11.5606 61.5271 11.0854 62 10.4991 62H10.501Z" fill="#99A58E"/>
<path d="M1.19984 44.6671C0.964155 44.6671 0.726556 44.5889 0.529191 44.4306C0.0750581 44.0626 0.00798001 43.397 0.377801 42.9451L9.53903 31.7585C9.90885 31.3065 10.5776 31.2379 11.0317 31.6059C11.4859 31.974 11.5548 32.6395 11.185 33.0915L2.02381 44.2781C1.81303 44.5336 1.50835 44.6671 1.19984 44.6671Z" fill="#99A58E"/>
<path d="M19.8001 44.6671C19.4916 44.6671 19.187 44.5355 18.9762 44.2781L9.81497 33.0915C9.44515 32.6395 9.51222 31.974 9.96827 31.6059C10.4224 31.2379 11.0911 31.3046 11.461 31.7585L20.6222 42.9451C20.992 43.397 20.9249 44.0626 20.4689 44.4306C20.2715 44.5908 20.0339 44.6671 19.8001 44.6671Z" fill="#99A58E"/>
<path d="M1.19984 56.0367C0.964155 56.0367 0.726556 55.9585 0.529191 55.8003C0.0750581 55.4322 0.00798001 54.7667 0.377801 54.3147L9.53903 43.13C9.90885 42.6781 10.5776 42.6094 11.0317 42.9794C11.4859 43.3474 11.5529 44.013 11.1831 44.4649L2.0219 55.6496C1.81112 55.9051 1.50644 56.0386 1.19793 56.0386L1.19984 56.0367Z" fill="#99A58E"/>
<path d="M19.9036 56.0367C19.5951 56.0367 19.2904 55.9052 19.0797 55.6477L9.91844 44.463C9.54862 44.0111 9.61569 43.3455 10.0717 42.9775C10.5259 42.6094 11.1946 42.6762 11.5644 43.13L20.7257 54.3147C21.0955 54.7667 21.0284 55.4322 20.5723 55.8003C20.375 55.9605 20.1374 56.0367 19.9036 56.0367Z" fill="#99A58E"/>
<path d="M19.94 33.6445C19.6315 33.6445 19.3268 33.511 19.1161 33.2555L9.67509 21.7237C9.30527 21.2718 9.37426 20.6062 9.82839 20.2382C10.2825 19.8701 10.9512 19.9388 11.3211 20.3907L20.7621 31.9225C21.1319 32.3744 21.0629 33.04 20.6088 33.408C20.4114 33.5682 20.1738 33.6445 19.94 33.6445Z" fill="#99A58E"/>
<path d="M41.501 76C40.9146 76 40.4394 75.5271 40.4394 74.9435V38.0236L32.8839 47.2536C32.5141 47.7055 31.8454 47.7742 31.3912 47.4061C30.9371 47.0381 30.8681 46.3725 31.2379 45.9206L40.677 34.3888C40.9606 34.0418 41.4339 33.9121 41.8554 34.0608C42.2789 34.2115 42.5606 34.61 42.5606 35.0563V74.9435C42.5606 75.5271 42.0854 76 41.4991 76H41.501Z" fill="#99A58E"/>
<path d="M32.1998 58.6671C31.9642 58.6671 31.7266 58.5889 31.5292 58.4306C31.0751 58.0626 31.008 57.397 31.3778 56.9451L40.539 45.7585C40.9088 45.3065 41.5776 45.2379 42.0317 45.6059C42.4859 45.974 42.5548 46.6395 42.185 47.0915L33.0238 58.2781C32.813 58.5336 32.5083 58.6671 32.1998 58.6671Z" fill="#99A58E"/>
<path d="M50.8001 58.6671C50.4916 58.6671 50.187 58.5355 49.9762 58.2781L40.815 47.0915C40.4451 46.6395 40.5122 45.974 40.9683 45.6059C41.4224 45.2379 42.0911 45.3046 42.461 45.7585L51.6222 56.9451C51.992 57.397 51.9249 58.0626 51.4689 58.4306C51.2715 58.5908 51.0339 58.6671 50.8001 58.6671Z" fill="#99A58E"/>
<path d="M32.1998 70.0367C31.9642 70.0367 31.7266 69.9585 31.5292 69.8003C31.0751 69.4322 31.008 68.7667 31.3778 68.3147L40.539 57.13C40.9088 56.6781 41.5776 56.6094 42.0317 56.9794C42.4859 57.3474 42.5529 58.013 42.1831 58.4649L33.0219 69.6496C32.8111 69.9051 32.5064 70.0386 32.1979 70.0386L32.1998 70.0367Z" fill="#99A58E"/>
<path d="M50.9036 70.0367C50.5951 70.0367 50.2904 69.9052 50.0797 69.6477L40.9184 58.463C40.5486 58.0111 40.6157 57.3455 41.0717 56.9775C41.5259 56.6094 42.1946 56.6762 42.5644 57.13L51.7257 68.3147C52.0955 68.7667 52.0284 69.4322 51.5723 69.8003C51.375 69.9605 51.1374 70.0367 50.9036 70.0367Z" fill="#99A58E"/>
<path d="M50.94 47.6445C50.6315 47.6445 50.3268 47.511 50.1161 47.2555L40.6751 35.7237C40.3053 35.2718 40.3743 34.6062 40.8284 34.2382C41.2825 33.8701 41.9512 33.9388 42.3211 34.3907L51.7621 45.9225C52.1319 46.3744 52.0629 47.04 51.6088 47.408C51.4114 47.5682 51.1738 47.6445 50.94 47.6445Z" fill="#99A58E"/>
<path d="M10.501 96C9.91461 96 9.4394 95.5271 9.4394 94.9435V58.0236L1.88393 67.2536C1.51411 67.7055 0.845372 67.7742 0.391239 67.4061C-0.0628935 67.0381 -0.131883 66.3725 0.237938 65.9206L9.677 54.3888C9.96059 54.0418 10.4339 53.9121 10.8554 54.0608C11.2789 54.2115 11.5606 54.61 11.5606 55.0563V94.9435C11.5606 95.5271 11.0854 96 10.4991 96H10.501Z" fill="#99A58E"/>
<path d="M1.19984 78.6671C0.964155 78.6671 0.726556 78.5889 0.529191 78.4306C0.0750581 78.0626 0.00798001 77.397 0.377801 76.9451L9.53903 65.7585C9.90885 65.3065 10.5776 65.2379 11.0317 65.6059C11.4859 65.974 11.5548 66.6395 11.185 67.0915L2.02381 78.2781C1.81303 78.5336 1.50835 78.6671 1.19984 78.6671Z" fill="#99A58E"/>
<path d="M19.8001 78.6671C19.4916 78.6671 19.187 78.5355 18.9762 78.2781L9.81497 67.0915C9.44515 66.6395 9.51222 65.974 9.96827 65.6059C10.4224 65.2379 11.0911 65.3046 11.461 65.7585L20.6222 76.9451C20.992 77.397 20.9249 78.0626 20.4689 78.4306C20.2715 78.5908 20.0339 78.6671 19.8001 78.6671Z" fill="#99A58E"/>
<path d="M1.19984 90.0367C0.964155 90.0367 0.726556 89.9585 0.529191 89.8003C0.0750581 89.4322 0.00798001 88.7667 0.377801 88.3147L9.53903 77.13C9.90885 76.6781 10.5776 76.6094 11.0317 76.9794C11.4859 77.3474 11.5529 78.013 11.1831 78.4649L2.0219 89.6496C1.81112 89.9051 1.50644 90.0386 1.19793 90.0386L1.19984 90.0367Z" fill="#99A58E"/>
<path d="M19.9036 90.0367C19.5951 90.0367 19.2904 89.9052 19.0797 89.6477L9.91844 78.463C9.54862 78.0111 9.61569 77.3455 10.0717 76.9775C10.5259 76.6094 11.1946 76.6762 11.5644 77.13L20.7257 88.3147C21.0955 88.7667 21.0284 89.4322 20.5723 89.8003C20.375 89.9605 20.1374 90.0367 19.9036 90.0367Z" fill="#99A58E"/>
<path d="M19.94 67.6445C19.6315 67.6445 19.3268 67.511 19.1161 67.2555L9.67509 55.7237C9.30527 55.2718 9.37426 54.6062 9.82839 54.2382C10.2825 53.8701 10.9512 53.9388 11.3211 54.3907L20.7621 65.9225C21.1319 66.3744 21.0629 67.04 20.6088 67.408C20.4114 67.5682 20.1738 67.6445 19.94 67.6445Z" fill="#99A58E"/>
</svg>
