<svg width="207" height="228" viewBox="0 0 207 228" fill="none" xmlns="http://www.w3.org/2000/svg">
<path d="M98.0388 189.657C99.8792 189.547 101.689 189.402 103.469 189.223M98.0388 189.657C73.5 189.657 54.8506 152.547 98.0388 108.895C127.634 143.093 131.086 184.548 103.469 189.223M98.0388 189.657C99.9662 189.657 101.776 189.509 103.469 189.223M98.0388 189.657C97.8248 189.67 97.6107 189.682 97.3967 189.694M103.469 189.223C111.835 188.378 119.52 186.776 126.474 184.496M97.3967 189.694L55.6668 224.688C50.5797 228.954 42.9955 228.291 38.727 223.207C34.4585 218.123 35.122 210.543 40.209 206.277L64.5534 185.863M97.3967 189.694C97.3769 189.695 97.3571 189.696 97.3373 189.697M97.3967 189.694L97.3373 189.697M97.3373 189.697L139.064 224.688C144.151 228.954 151.735 228.291 156.004 223.207C160.272 218.123 159.609 210.544 154.522 206.278L127.953 183.998M97.3373 189.697C86.2404 190.289 75.0321 189.174 64.5534 185.863M126.474 184.496L178.688 200.45C185.038 202.39 191.761 198.818 193.702 192.472C195.644 186.125 192.069 179.407 185.719 177.467L154.749 168.004M126.474 184.496C126.971 184.334 127.464 184.167 127.953 183.998M127.953 183.998C138.789 180.239 147.786 174.801 154.749 168.004M154.749 168.004C157.035 165.774 159.101 163.397 160.941 160.885C183.578 129.985 166.257 82.4091 155.459 58.3759C153.104 71.7167 140.736 86.4963 134.847 92.2185C136.483 69.0028 128.565 18.157 83.8063 0.5C93.6218 27.9665 77.4262 67.2044 68.1015 83.39C62.703 79.1392 52.8875 67.0082 56.8137 52.4902C23.3069 79.0001 4.80373 136.822 36.4535 169.082M64.5534 185.863C64.4281 185.823 64.3028 185.783 64.1777 185.743M64.1777 185.743C56.2718 183.2 48.7883 179.399 42.0904 174.128C40.0582 172.528 38.1811 170.843 36.4535 169.082M64.1777 185.743L16.0428 200.45C9.69231 202.39 2.97028 198.818 1.02873 192.472C-0.912811 186.125 2.66136 179.407 9.01186 177.467L36.4535 169.082M164.784 5.40473L166.134 10.6801C167.037 14.2093 169.822 16.9478 173.368 17.7923L179.017 19.138L173.368 20.4836C169.822 21.3282 167.037 24.0667 166.134 27.5958L164.784 32.8712L163.435 27.5958C162.532 24.0667 159.746 21.3282 156.201 20.4836L150.552 19.138L156.201 17.7923C159.746 16.9478 162.532 14.2093 163.435 10.6801L164.784 5.40473ZM35.7104 15.2142L37.0102 20.476C37.8839 24.0133 40.6476 26.7752 44.1871 27.6485L49.4521 28.9475L44.1871 30.2464C40.6476 31.1197 37.8839 33.8816 37.0102 37.4189L35.7104 42.6807L34.4106 37.4189C33.5368 33.8816 30.7732 31.1197 27.2337 30.2464L21.9687 28.9475L27.2337 27.6485C30.7732 26.7752 33.5368 24.0133 34.4106 20.476L35.7104 15.2142ZM192.758 57.3949L194.058 62.6567C194.932 66.194 197.696 68.956 201.235 69.8292L206.5 71.1282L201.235 72.4271C197.696 73.3004 194.932 76.0623 194.058 79.5996L192.758 84.8614L191.459 79.5996C190.585 76.0623 187.821 73.3004 184.282 72.4271L179.017 71.1282L184.282 69.8292C187.821 68.956 190.585 66.194 191.459 62.6567L192.758 57.3949Z" stroke="#996D58" stroke-opacity="0.3" stroke-linejoin="round"/>
</svg>
