<svg width="186" height="205" viewBox="0 0 186 205" fill="none" xmlns="http://www.w3.org/2000/svg">
<path d="M63.9848 67.0049C63.8425 67.0049 63.6986 66.9683 63.5669 66.8905C63.1656 66.6571 63.0293 66.1401 63.261 65.7374L87.5286 23.4046C87.6785 23.1438 87.9557 22.9822 88.254 22.9822C88.5523 22.9822 88.831 23.1423 88.9794 23.4046L112.772 64.9107C113.003 65.3149 112.865 65.832 112.466 66.0638C112.063 66.2972 111.551 66.1584 111.321 65.7557L88.254 25.5171L64.7132 66.5839C64.5588 66.8554 64.2756 67.0064 63.9863 67.0064L63.9848 67.0049Z" fill="white"/>
<path d="M118.926 66.4421C118.637 66.4421 118.353 66.2911 118.199 66.0196L94.1918 24.1444C93.9601 23.7402 94.0979 23.2232 94.4977 22.9913C94.9005 22.7564 95.4124 22.8968 95.6426 23.2994L119.65 65.1746C119.881 65.5788 119.744 66.0958 119.344 66.3277C119.212 66.4039 119.067 66.4421 118.926 66.4421Z" fill="white"/>
<path d="M125.289 66.4421C125 66.4421 124.717 66.2911 124.562 66.0196L100.555 24.1444C100.323 23.7402 100.461 23.2232 100.861 22.9913C101.264 22.7564 101.776 22.8968 102.006 23.2994L126.013 65.1746C126.245 65.5788 126.107 66.0958 125.707 66.3277C125.575 66.4039 125.43 66.4421 125.289 66.4421Z" fill="white"/>
<path d="M59.2191 66.4421C58.7557 66.4421 58.3802 66.0638 58.3802 65.5971V36.0686L52.409 43.4507C52.1168 43.8122 51.5883 43.8671 51.2294 43.5728C50.8704 43.2784 50.8159 42.7461 51.1082 42.3846L58.5695 33.1615C58.7936 32.884 59.1692 32.7802 59.5008 32.8992C59.8355 33.0197 60.0581 33.3385 60.0581 33.6954V65.5971C60.0581 66.0638 59.6825 66.4421 59.2191 66.4421Z" fill="white"/>
<path d="M51.8684 52.5792C51.6822 52.5792 51.4944 52.5167 51.3399 52.3901C50.981 52.0957 50.9265 51.5634 51.2188 51.202L58.4589 42.255C58.7512 41.8935 59.2797 41.8386 59.6386 42.1329C59.9975 42.4273 60.052 42.9596 59.7598 43.3211L52.5196 52.2681C52.353 52.4725 52.1122 52.5792 51.8684 52.5792Z" fill="white"/>
<path d="M66.5698 52.5792C66.326 52.5792 66.0853 52.474 65.9187 52.2681L58.6785 43.3211C58.3862 42.9596 58.4392 42.4273 58.7997 42.1329C59.1586 41.8386 59.6871 41.892 59.9793 42.255L67.2195 51.202C67.5118 51.5634 67.4588 52.0957 67.0984 52.3901C66.9424 52.5182 66.7546 52.5792 66.5698 52.5792Z" fill="white"/>
<path d="M51.8684 61.6727C51.6822 61.6727 51.4944 61.6101 51.3399 61.4835C50.981 61.1892 50.9265 60.6569 51.2188 60.2954L58.4589 51.3499C58.7512 50.9884 59.2797 50.9335 59.6386 51.2279C59.9975 51.5223 60.052 52.0546 59.7598 52.416L52.5196 61.3615C52.353 61.5659 52.1122 61.6727 51.8684 61.6727Z" fill="white"/>
<path d="M66.6501 61.6727C66.4063 61.6727 66.1655 61.5674 65.9989 61.3615L58.7588 52.416C58.4665 52.0546 58.5195 51.5223 58.8799 51.2279C59.2388 50.9335 59.7673 50.9869 60.0596 51.3499L67.2998 60.2954C67.592 60.6569 67.539 61.1892 67.1786 61.4835C67.0226 61.6117 66.8349 61.6727 66.6501 61.6727Z" fill="white"/>
<path d="M66.6804 43.7634C66.4366 43.7634 66.1958 43.6566 66.0292 43.4523L58.568 34.2292C58.2757 33.8677 58.3302 33.3354 58.6891 33.041C59.048 32.7467 59.5765 32.8016 59.8688 33.1631L67.33 42.3861C67.6223 42.7476 67.5678 43.2799 67.2089 43.5743C67.0529 43.7024 66.8651 43.7634 66.6804 43.7634Z" fill="white"/>
<path d="M130.371 66.4421C129.908 66.4421 129.532 66.0638 129.532 65.5971V36.0686L123.561 43.4507C123.269 43.8122 122.741 43.8671 122.382 43.5728C122.023 43.2784 121.968 42.7461 122.261 42.3846L129.72 33.1615C129.944 32.884 130.318 32.7802 130.652 32.8992C130.986 33.0197 131.209 33.3385 131.209 33.6954V65.5971C131.209 66.0638 130.833 66.4421 130.37 66.4421H130.371Z" fill="white"/>
<path d="M123.021 52.5792C122.834 52.5792 122.647 52.5167 122.491 52.3901C122.132 52.0957 122.079 51.5634 122.371 51.202L129.611 42.255C129.903 41.8935 130.432 41.8386 130.791 42.1329C131.15 42.4273 131.204 42.9596 130.912 43.3211L123.672 52.2681C123.505 52.4725 123.265 52.5792 123.021 52.5792Z" fill="white"/>
<path d="M137.721 52.5792C137.477 52.5792 137.236 52.474 137.069 52.2681L129.829 43.3211C129.537 42.9596 129.59 42.4273 129.95 42.1329C130.309 41.8386 130.838 41.892 131.13 42.255L138.37 51.202C138.663 51.5634 138.61 52.0957 138.249 52.3901C138.093 52.5182 137.905 52.5792 137.721 52.5792Z" fill="white"/>
<path d="M123.021 61.6727C122.834 61.6727 122.647 61.6101 122.491 61.4835C122.132 61.1892 122.079 60.6568 122.371 60.2954L129.611 51.3499C129.903 50.9884 130.432 50.9335 130.791 51.2294C131.15 51.5238 131.203 52.0561 130.911 52.4176L123.67 61.363C123.504 61.5674 123.263 61.6742 123.019 61.6742L123.021 61.6727Z" fill="white"/>
<path d="M137.802 61.6727C137.559 61.6727 137.318 61.5674 137.151 61.3615L129.911 52.416C129.619 52.0546 129.672 51.5223 130.032 51.2279C130.391 50.9335 130.92 50.9869 131.212 51.3499L138.452 60.2954C138.744 60.6569 138.691 61.1892 138.331 61.4835C138.175 61.6117 137.987 61.6727 137.802 61.6727Z" fill="white"/>
<path d="M137.831 43.7634C137.587 43.7634 137.347 43.6566 137.18 43.4523L129.719 34.2292C129.426 33.8677 129.481 33.3354 129.84 33.041C130.199 32.7467 130.727 32.8016 131.02 33.1631L138.481 42.3861C138.773 42.7476 138.719 43.2799 138.36 43.5743C138.204 43.7024 138.016 43.7634 137.831 43.7634Z" fill="white"/>
<path d="M92.1232 66.6281C91.6598 66.6281 91.2842 66.2499 91.2842 65.7832V53.3495H84.9254V65.5971C84.9254 66.0638 84.5499 66.4421 84.0865 66.4421C83.6231 66.4421 83.2475 66.0638 83.2475 65.5971V52.5045C83.2475 52.0378 83.6231 51.6595 84.0865 51.6595H92.1217C92.5851 51.6595 92.9606 52.0378 92.9606 52.5045V65.7832C92.9606 66.2499 92.5851 66.6281 92.1217 66.6281H92.1232Z" fill="white"/>
<path d="M50.2662 97.3295C50.3162 97.3295 50.3647 97.3295 50.4146 97.3295C55.6074 97.3295 58.262 95.7112 60.8319 94.1463C63.3124 92.6348 65.6552 91.2072 70.38 91.2072C70.4269 91.2072 70.4739 91.2072 70.5193 91.2072C75.338 91.2362 77.6868 92.705 80.1734 94.2592C82.7478 95.8698 85.41 97.5339 90.7012 97.5659C90.7512 97.5659 90.7996 97.5659 90.8496 97.5659C96.0424 97.5659 98.6985 95.9476 101.267 94.3827C103.747 92.8712 106.09 91.4436 110.815 91.4436C110.862 91.4436 110.909 91.4436 110.954 91.4436C115.773 91.4726 118.122 92.9414 120.61 94.4956C123.184 96.1062 125.848 97.7703 131.139 97.8023C131.189 97.8023 131.238 97.8023 131.288 97.8023C136.48 97.8023 139.137 96.184 141.706 94.6191C144.187 93.1076 146.531 91.68 151.256 91.68C151.304 91.68 151.359 91.6846 151.401 91.68C151.862 91.68 152.237 91.3048 152.24 90.8412C152.243 90.3744 151.869 89.9946 151.407 89.9916C151.357 89.9916 151.309 89.9916 151.259 89.9916C146.066 89.9916 143.41 91.6099 140.84 93.1748C138.36 94.6862 136.015 96.1139 131.291 96.1139C131.244 96.1139 131.198 96.1139 131.151 96.1139C126.333 96.0849 123.984 94.6161 121.496 93.0619C118.921 91.4512 116.258 89.7872 110.966 89.7552C105.668 89.7338 102.993 91.3582 100.401 92.9368C97.9202 94.4483 95.5774 95.8759 90.8526 95.8759C90.8057 95.8759 90.7588 95.8759 90.7133 95.8759C85.8946 95.8469 83.5458 94.3782 81.0593 92.824C78.4848 91.2133 75.8226 89.5493 70.5314 89.5173C65.2281 89.4913 62.5583 91.1203 59.9657 92.6989C57.4852 94.2104 55.1425 95.638 50.4177 95.638C50.3707 95.638 50.3238 95.638 50.2783 95.638C45.7958 95.6121 43.2396 93.8764 40.7697 92.1986C38.5072 90.6627 36.1811 89.0932 32.58 89.0353C32.7042 89.3754 32.8268 89.7125 32.9661 90.0602C33.06 90.2936 33.163 90.5209 33.2584 90.7527C35.9525 90.9754 37.7954 92.2154 39.8307 93.5988C42.384 95.333 45.2764 97.2974 50.2677 97.3279L50.2662 97.3295Z" fill="white"/>
<path d="M131.291 108.601C131.244 108.601 131.197 108.601 131.151 108.601C126.333 108.572 123.984 107.103 121.496 105.549C118.921 103.938 116.258 102.274 110.966 102.242C110.916 102.242 110.868 102.242 110.818 102.242C105.625 102.242 102.969 103.861 100.401 105.425C97.9202 106.937 95.5774 108.365 90.8526 108.365C90.8057 108.365 90.7588 108.365 90.7133 108.365C85.8946 108.336 83.5458 106.867 81.0593 105.313C78.4848 103.702 75.8226 102.038 70.5314 102.006C70.4814 102.006 70.433 102.006 70.383 102.006C65.1903 102.006 62.5356 103.624 59.9657 105.189C57.4852 106.699 55.1425 108.127 50.4177 108.127C50.3707 108.127 50.3238 108.127 50.2768 108.127C46.3122 108.104 43.8574 106.743 41.6328 105.27C42.543 106.456 43.494 107.611 44.4859 108.732C46.0775 109.367 47.9432 109.803 50.2662 109.817C50.3162 109.817 50.3662 109.817 50.4161 109.817C55.6089 109.817 58.2636 108.198 60.8319 106.635C63.3124 105.123 65.6567 103.696 70.38 103.696C70.4269 103.696 70.4724 103.696 70.5193 103.696C75.338 103.725 77.6868 105.194 80.1734 106.748C82.7478 108.358 85.41 110.022 90.7012 110.054C90.7512 110.054 90.7996 110.054 90.8496 110.054C96.0424 110.054 98.6985 108.436 101.267 106.871C103.747 105.36 106.09 103.932 110.815 103.932C110.862 103.932 110.909 103.932 110.954 103.932C115.773 103.961 118.122 105.43 120.61 106.984C123.184 108.595 125.848 110.259 131.139 110.291C131.189 110.291 131.238 110.291 131.288 110.291C136.48 110.291 139.137 108.673 141.706 107.108C142.991 106.325 144.24 105.569 145.798 105.017C146.147 104.564 146.492 104.108 146.828 103.644C147.023 103.374 147.216 103.104 147.402 102.834C144.576 103.395 142.677 104.541 140.837 105.662C138.357 107.173 136.012 108.601 131.288 108.601H131.291Z" fill="white"/>
<path d="M110.966 114.725C105.668 114.68 102.993 116.326 100.401 117.906C97.9202 119.418 95.5774 120.845 90.8526 120.845C90.8057 120.845 90.7588 120.845 90.7133 120.845C85.8946 120.816 83.5458 119.348 81.0593 117.793C78.4848 116.183 75.8226 114.519 70.5314 114.487C65.2281 114.438 62.5583 116.088 59.9657 117.668C58.9178 118.306 57.8941 118.928 56.7053 119.435C57.255 119.805 57.8077 120.171 58.3665 120.524C59.2434 120.08 60.0429 119.595 60.8334 119.113C63.314 117.601 65.6567 116.174 70.3815 116.174C70.4284 116.174 70.4754 116.174 70.5208 116.174C75.3395 116.203 77.6883 117.671 80.1749 119.226C82.7493 120.836 85.4115 122.5 90.7027 122.532C96.003 122.574 98.6758 120.931 101.268 119.351C103.749 117.839 106.092 116.412 110.816 116.412C110.862 116.412 110.91 116.412 110.956 116.412C115.774 116.441 118.123 117.909 120.611 119.464C122.192 120.452 123.81 121.46 126.046 122.099C126.767 121.695 127.479 121.276 128.185 120.845C125.247 120.368 123.41 119.226 121.497 118.028C118.923 116.419 116.259 114.754 110.968 114.722L110.966 114.725Z" fill="white"/>
<path d="M157.244 52.0652C156.927 48.6014 155.996 44.8677 154.551 41.2666C149.716 29.2173 141.519 18.9449 130.845 11.5597C119.916 3.99611 107.103 0 93.7935 0H90.9511C70.1028 0 50.2253 10.2129 37.7773 27.3199C30.9854 36.6543 29.5119 46.582 33.737 54.5575C37.4941 61.6498 45.3794 66.3536 54.3156 66.8325C62.5371 67.2718 70.9569 67.1193 79.0997 66.9728C83.1824 66.8981 87.4044 66.8218 91.5296 66.8218L95.0277 66.8295C98.9787 66.8234 103.011 66.7502 106.911 66.68C115.019 66.5336 123.404 66.381 131.562 66.8188C139.624 67.2504 146.745 71.3365 150.363 77.532C150.655 77.5213 150.955 77.5137 151.264 77.5137C151.314 77.5137 151.362 77.5137 151.412 77.5137C151.875 77.5168 152.248 77.8965 152.245 78.3632C152.242 78.8284 151.868 79.2021 151.406 79.2021C151.365 79.2097 151.311 79.2021 151.261 79.2021C151.251 79.2021 151.244 79.2021 151.236 79.2021C154.41 86.177 153.04 94.6801 147.408 102.834C148.088 102.698 148.819 102.596 149.619 102.538C155.165 93.8321 156.137 84.7829 152.228 77.4054C148.471 70.3131 140.586 65.6093 131.65 65.1304C123.433 64.6911 115.017 64.8421 106.881 64.99C102.987 65.0602 98.9621 65.1334 95.0277 65.1395L91.5311 65.1319C87.3893 65.1319 83.1597 65.2081 79.0694 65.2829C70.9554 65.4293 62.5659 65.5818 54.405 65.1456C46.0518 64.6987 38.6995 60.3366 35.2165 53.7628C31.3079 46.3838 32.7344 37.1088 39.1311 28.3189C51.2642 11.6451 70.6359 1.68996 90.9511 1.68996H93.7935C106.764 1.68996 119.248 5.5854 129.896 12.9538C140.298 20.1513 148.286 30.1614 152.998 41.9026C154.382 45.3512 155.272 48.9202 155.576 52.2223C155.619 52.6875 156.038 53.0383 156.488 52.9865C156.95 52.9438 157.289 52.532 157.247 52.0683L157.244 52.0652Z" fill="white"/>
<path d="M150.358 77.5305C145.751 77.7059 143.257 79.2235 140.842 80.6953C138.361 82.2068 136.017 83.6345 131.292 83.6345C131.245 83.6345 131.198 83.6345 131.151 83.6345C126.333 83.6055 123.984 82.1367 121.496 80.5825C118.921 78.9718 116.258 77.3078 110.966 77.2758C110.916 77.2758 110.866 77.2758 110.816 77.2758C105.624 77.2758 102.969 78.894 100.401 80.4574C97.9202 81.9689 95.5759 83.3965 90.8526 83.3965C90.8057 83.3965 90.7603 83.3965 90.7133 83.3965C85.8946 83.3675 83.5458 81.8987 81.0593 80.3445C78.4848 78.7339 75.8226 77.0699 70.5314 77.0378C65.2281 76.9997 62.5583 78.6409 59.9657 80.2195C57.4852 81.731 55.1425 83.1586 50.4177 83.1586C50.3707 83.1586 50.3238 83.1586 50.2783 83.1586C45.7958 83.1326 43.2396 81.3969 40.7681 79.7192C37.8833 77.7593 34.897 75.7307 29.2908 76.8807C28.8365 76.9738 28.5427 77.4192 28.6351 77.8767C28.676 78.0826 28.7926 78.2534 28.9455 78.3724C29.0758 78.2397 29.2484 78.1452 29.4483 78.1238C29.7436 78.0887 30.0192 78.2168 30.1918 78.4349C34.7319 77.6693 37.1064 79.2692 39.8292 81.1193C42.3825 82.8535 45.2764 84.818 50.2662 84.8485C55.5604 84.8958 58.2393 83.247 60.8319 81.6669C63.3124 80.1554 65.6552 78.7278 70.38 78.7278C70.4269 78.7278 70.4739 78.7278 70.5193 78.7278C75.338 78.7568 77.6868 80.2255 80.1734 81.7798C82.7478 83.3904 85.41 85.0544 90.7012 85.0864C96.0015 85.1383 98.6743 83.485 101.267 81.9048C103.747 80.3933 106.09 78.9657 110.815 78.9657C110.862 78.9657 110.909 78.9657 110.956 78.9657C115.774 78.9947 118.123 80.4635 120.611 82.0177C123.186 83.6268 125.85 85.2924 131.141 85.3229C131.191 85.3229 131.241 85.3229 131.291 85.3229C136.483 85.3229 139.14 83.7046 141.708 82.1413C144.184 80.6328 146.525 79.2082 151.233 79.2037C151.08 78.8666 150.92 78.5325 150.746 78.2031C150.624 77.9743 150.488 77.7562 150.358 77.532V77.5305Z" fill="white"/>
<path d="M28.9455 78.3694C28.7744 78.5432 28.6775 78.7888 28.7062 79.0527C29.0894 82.5668 29.6164 85.692 30.8203 89.1253C31.4397 89.0566 32.0242 89.0276 32.5785 89.0368C31.3049 85.5623 30.7597 82.4219 30.3736 78.8681C30.3554 78.7019 30.2888 78.5539 30.1934 78.4319C30.0056 78.4639 29.8208 78.4929 29.6255 78.5325C29.3771 78.5829 29.1333 78.5143 28.947 78.3694H28.9455Z" fill="white"/>
<path d="M41.6328 105.265C38.2407 100.842 35.4224 95.9751 33.2569 90.7542C32.6905 90.7069 32.0878 90.7024 31.4351 90.7542C33.157 95.0355 35.3119 99.0865 37.8439 102.868C38.8858 103.406 39.8323 104.047 40.7681 104.681C41.0544 104.875 41.3421 105.07 41.6344 105.264L41.6328 105.265Z" fill="white"/>
<path d="M56.0647 119.009C51.7715 116.038 47.8962 112.582 44.4859 108.728C42.9428 108.113 41.6586 107.312 40.4743 106.519C44.4874 111.705 49.2698 116.287 54.7109 120.112C55.4362 119.926 56.0935 119.697 56.7053 119.435C56.4933 119.291 56.2767 119.156 56.0647 119.009Z" fill="white"/>
<path d="M92.1686 130.273C80.1204 130.273 68.4946 126.907 58.3665 120.524C57.7896 120.815 57.1763 121.088 56.5099 121.327C67.1286 128.284 79.4177 131.961 92.1686 131.961H95.0111C106.902 131.961 118.476 128.633 128.538 122.604C127.623 122.488 126.799 122.314 126.048 122.101C116.633 127.376 105.96 130.273 95.0126 130.273H92.1686Z" fill="white"/>
<path d="M128.185 120.847C129.015 120.981 129.932 121.064 130.965 121.077C137.553 116.733 143.415 111.197 148.185 104.641C148.248 104.553 148.309 104.465 148.373 104.376C147.413 104.524 146.569 104.744 145.801 105.015C140.889 111.404 134.889 116.744 128.185 120.845V120.847Z" fill="white"/>
<path d="M29.6224 78.5325C29.8178 78.4929 30.0025 78.4639 30.1903 78.4319C30.0162 78.2138 29.7406 78.0857 29.4468 78.1207C29.2469 78.1421 29.0758 78.2367 28.944 78.3694C29.1303 78.5143 29.3741 78.5844 29.6224 78.5325Z" fill="white"/>
<path d="M151.233 79.2021C151.242 79.2021 151.25 79.2021 151.258 79.2021C151.306 79.2021 151.36 79.2113 151.403 79.2021C151.863 79.2021 152.239 78.8269 152.242 78.3632C152.245 77.8965 151.871 77.5168 151.409 77.5137C151.359 77.5137 151.311 77.5137 151.261 77.5137C150.95 77.5137 150.652 77.5198 150.359 77.532C150.49 77.7547 150.626 77.9743 150.747 78.2031C150.921 78.5325 151.082 78.8666 151.235 79.2037L151.233 79.2021Z" fill="white"/>
<path d="M33.2569 90.7542C33.1615 90.5224 33.057 90.2951 32.9646 90.0618C32.8253 89.7155 32.7027 89.3769 32.5785 89.0368C32.0242 89.0276 31.4397 89.0566 30.8203 89.1253C31.002 89.6408 31.1959 90.1624 31.4094 90.6947C31.417 90.7146 31.426 90.7344 31.4351 90.7557C32.0878 90.7039 32.6905 90.7085 33.2569 90.7557V90.7542Z" fill="white"/>
<path d="M41.6328 105.265C41.3421 105.072 41.0528 104.878 40.7666 104.683C39.8323 104.048 38.8843 103.408 37.8424 102.869C38.6783 104.117 39.5566 105.334 40.4743 106.519C41.6571 107.312 42.9428 108.113 44.4859 108.728C43.494 107.606 42.543 106.452 41.6328 105.265Z" fill="white"/>
<path d="M146.831 103.644C146.493 104.108 146.15 104.564 145.801 105.017C146.568 104.745 147.413 104.526 148.373 104.378C148.81 103.766 149.225 103.153 149.616 102.538C148.816 102.596 148.085 102.7 147.405 102.834C147.219 103.104 147.028 103.374 146.831 103.644Z" fill="white"/>
<path d="M126.046 122.102C126.799 122.317 127.621 122.49 128.536 122.606C129.355 122.114 130.165 121.605 130.964 121.079C129.931 121.065 129.013 120.983 128.183 120.849C127.477 121.28 126.766 121.7 126.045 122.102H126.046Z" fill="white"/>
<path d="M56.7053 119.435C56.0935 119.695 55.4362 119.926 54.7109 120.112C54.8472 120.208 54.9789 120.307 55.1152 120.402C55.5756 120.72 56.0435 121.022 56.5099 121.327C57.1763 121.088 57.7896 120.815 58.3665 120.524C57.8077 120.171 57.255 119.805 56.7053 119.435Z" fill="white"/>
<path d="M153.091 91.7746C153.052 91.7746 153.011 91.7715 152.97 91.7654C152.511 91.6983 151.942 91.6724 151.226 91.6831C151.221 91.6831 151.217 91.6831 151.212 91.6831C150.755 91.6831 150.381 91.314 150.373 90.8518C150.366 90.3851 150.735 90.0007 151.198 89.9931C152.003 89.9794 152.661 90.013 153.21 90.0923C153.668 90.1594 153.985 90.588 153.92 91.0486C153.859 91.4696 153.5 91.7715 153.091 91.7715V91.7746Z" fill="white"/>
<path d="M28.6184 77.715L28.7047 79.0527L30.372 78.8681L30.3145 78.3312" fill="white"/>
<path d="M10.225 182.186V155.29H0.278637V154.054H21.4509V155.29H11.5046V182.186H10.225Z" fill="white"/>
<path d="M9.94633 182.466V155.57H0V153.771H21.7311V155.57H11.7848V182.466H9.94633ZM10.5051 181.903H11.2245V155.008H21.1708V154.335H0.5588V155.008H10.5051V181.903Z" fill="white"/>
<path d="M49.5317 153.627H50.1314V182.186H48.8533V156.482L30.4387 182.611H29.839V154.053H31.1171V179.756L49.5317 153.627Z" fill="white"/>
<path d="M30.5825 182.893H29.5588V153.772H31.3958V178.873L49.3864 153.345H50.4101V182.466H48.5732V157.366L30.5825 182.893ZM30.1192 182.331H30.2948L49.1335 155.601V181.905H49.8528V153.909H49.6771L30.8385 180.639V154.335H30.1192V182.331Z" fill="white"/>
<path d="M61.5558 182.186V154.053H62.8339V180.949H76.1754V154.053H77.4536V180.949H90.7951V154.053H92.0732V182.186H61.5543H61.5558Z" fill="white"/>
<path d="M92.3534 182.466H61.2756V153.771H63.1126V180.666H75.8953V153.771H77.7322V180.666H90.5149V153.771H92.3519V182.466H92.3534ZM91.7946 181.903V154.335H91.0753V181.231H77.1734V154.335H76.4541V181.231H62.5522V154.335H61.8329V181.903H91.7946Z" fill="white"/>
<path d="M123.192 153.627H123.792V182.186H122.513V156.482L104.099 182.611H103.499V154.053H104.777V179.756L123.192 153.627Z" fill="white"/>
<path d="M104.243 182.893H103.22V153.772H105.057V178.873L123.048 153.345H124.072V182.466H122.235V157.366L104.243 182.893ZM103.779 182.331H103.955L122.794 155.601V181.905H123.513V153.909H123.337L104.499 180.639V154.335H103.779V182.331Z" fill="white"/>
<path d="M135.216 182.186V154.053H136.494V166.244H153.83V154.053H155.109V182.186H153.83V167.481H136.494V182.186H135.216Z" fill="white"/>
<path d="M155.389 182.466H153.552V167.762H136.774V182.466H134.937V153.771H136.774V165.962H153.552V153.771H155.389V182.466ZM154.111 181.903H154.83V154.335H154.111V166.526H136.215V154.335H135.496V181.903H136.215V167.199H154.111V181.903Z" fill="white"/>
<path d="M184.269 182.186L181.352 174.726H166.812L163.936 182.186H162.618L173.803 153.627H174.403L185.588 182.186H184.269ZM174.082 156.014L167.292 173.49H180.874L174.083 156.014H174.082Z" fill="white"/>
<path d="M184.08 182.466L181.163 175.006H167.004L164.128 182.466H162.208L173.614 153.345H174.594L186 182.466H184.08ZM184.46 181.903H185.176L174.212 153.908H173.994L163.03 181.903H163.746L166.622 174.444H181.545L184.461 181.903H184.46ZM181.284 173.771H166.883L174.083 155.241L181.284 173.771ZM167.702 173.208H180.465L174.083 156.786L167.702 173.208Z" fill="white"/>
<path d="M52.9618 198.872C52.9618 199.863 52.6756 200.708 52.1031 201.405C51.5307 202.102 50.8356 202.451 50.0209 202.451C49.0366 202.451 48.2673 201.956 47.7145 200.964L48.3369 200.36C48.7837 201.091 49.3409 201.455 50.0103 201.455C50.5327 201.455 50.9825 201.249 51.3596 200.838C51.7367 200.435 51.9593 199.912 52.0289 199.265H49.606V198.31H52.0047C51.9048 197.722 51.6715 197.24 51.3066 196.864C50.9416 196.491 50.5085 196.303 50.0088 196.303C49.3319 196.303 48.77 196.672 48.3248 197.412L47.7024 196.794C48.2491 195.803 49.0214 195.307 50.0209 195.307C50.828 195.289 51.5247 195.635 52.1092 196.346C52.6937 197.057 52.9784 197.899 52.9633 198.872H52.9618Z" fill="white"/>
<path d="M50.0209 202.474C49.032 202.474 48.2491 201.969 47.6933 200.975L47.6842 200.96L48.3415 200.324L48.3566 200.348C48.7958 201.066 49.3515 201.431 50.0088 201.431C50.5221 201.431 50.9704 201.225 51.3414 200.821C51.7079 200.429 51.9305 199.913 52.0017 199.288H49.5817V198.287H51.9759C51.8745 197.719 51.6443 197.246 51.2899 196.881C50.931 196.514 50.4994 196.328 50.0088 196.328C49.344 196.328 48.7837 196.697 48.3445 197.426L48.3294 197.452L47.6721 196.8L47.6812 196.785C48.2294 195.791 49.0154 195.286 50.0209 195.286C50.8311 195.264 51.5398 195.62 52.1274 196.332C52.7119 197.044 53.0012 197.9 52.986 198.873C52.986 199.866 52.6953 200.723 52.1213 201.422C51.5459 202.122 50.8402 202.476 50.0209 202.476V202.474ZM47.7433 200.967C48.29 201.936 49.0562 202.427 50.0209 202.427C50.825 202.427 51.5201 202.078 52.085 201.39C52.6513 200.7 52.9391 199.854 52.9391 198.872C52.9542 197.908 52.6695 197.064 52.091 196.36C51.5292 195.675 50.8523 195.329 50.0815 195.329C50.0618 195.329 50.0406 195.329 50.0209 195.329C49.0396 195.329 48.2688 195.82 47.7312 196.788L48.3203 197.372C48.767 196.646 49.3349 196.277 50.0088 196.277C50.5131 196.277 50.9553 196.468 51.3232 196.846C51.6897 197.223 51.9275 197.712 52.0274 198.304L52.032 198.332H49.6287V199.239H52.0532L52.0501 199.265C51.9805 199.913 51.7533 200.446 51.3747 200.85C50.9946 201.265 50.5358 201.475 50.0088 201.475C49.3409 201.475 48.7776 201.112 48.3309 200.394L47.7418 200.964L47.7433 200.967Z" fill="white"/>
<path d="M57.0566 202.296V195.461H57.9456V202.296H57.0566ZM59.1449 198.562L61.786 202.296H60.6669L58.0591 198.591L60.4246 195.461H61.5316L59.1434 198.564L59.1449 198.562Z" fill="white"/>
<path d="M61.8314 202.32H60.6548L60.6472 202.311L58.0304 198.591L58.041 198.577L60.4124 195.438H61.5785L59.1722 198.564L61.8299 202.32H61.8314ZM60.679 202.273H61.7405L59.1146 198.562L61.4846 195.484H60.4367L58.0894 198.591L60.679 202.273ZM57.9683 202.32H57.0339V195.438H57.9683V202.32ZM57.0793 202.273H57.9213V195.484H57.0793V202.273Z" fill="white"/>
<path d="M64.9585 198.872C64.9434 197.899 65.2296 197.057 65.8187 196.346C66.4063 195.635 67.1014 195.289 67.901 195.307C68.7081 195.289 69.4047 195.635 69.9893 196.346C70.5738 197.057 70.8585 197.899 70.8434 198.872C70.8585 199.836 70.5708 200.674 69.9787 201.391C69.3866 202.107 68.6899 202.456 67.8904 202.438C67.0908 202.456 66.3987 202.108 65.8142 201.391C65.2296 200.676 64.9449 199.836 64.9601 198.872H64.9585ZM69.9302 198.885C69.9302 198.156 69.7364 197.543 69.3472 197.047C68.958 196.552 68.4764 196.303 67.8995 196.303C67.3225 196.303 66.8394 196.549 66.4517 197.04C66.0625 197.531 65.8687 198.146 65.8687 198.885C65.8687 199.625 66.0625 200.212 66.4517 200.703C66.8394 201.195 67.3179 201.44 67.8873 201.44C68.4567 201.44 68.9383 201.193 69.3351 200.696C69.7303 200.2 69.9287 199.596 69.9287 198.885H69.9302Z" fill="white"/>
<path d="M67.8283 202.46C67.0499 202.46 66.3654 202.105 65.7945 201.405C65.2084 200.688 64.9207 199.836 64.9358 198.872C64.9207 197.897 65.2115 197.043 65.8005 196.331C66.3911 195.617 67.0999 195.263 67.901 195.284C67.9222 195.284 67.9419 195.284 67.9631 195.284C68.7475 195.284 69.435 195.637 70.0074 196.332C70.5935 197.044 70.8812 197.9 70.8661 198.873C70.8812 199.837 70.589 200.69 69.9953 201.407C69.4153 202.107 68.7278 202.462 67.9494 202.462C67.9297 202.462 67.91 202.462 67.8888 202.462C67.8691 202.462 67.848 202.462 67.8283 202.462V202.46ZM67.8404 195.33C67.0756 195.33 66.4017 195.676 65.8354 196.361C65.2539 197.064 64.9661 197.909 64.9813 198.872C64.9661 199.826 65.2508 200.668 65.8293 201.376C66.3911 202.065 67.0635 202.413 67.8283 202.413C67.848 202.413 67.8677 202.413 67.8873 202.413C68.6748 202.433 69.3729 202.082 69.9575 201.376C70.5435 200.668 70.8328 199.826 70.8176 198.872C70.8328 197.908 70.5481 197.063 69.9696 196.36C69.3926 195.658 68.6975 195.312 67.8994 195.33C67.8798 195.33 67.8601 195.33 67.8389 195.33H67.8404ZM67.8888 201.465C67.3149 201.465 66.8258 201.214 66.4351 200.719C66.0459 200.226 65.8475 199.61 65.8475 198.887C65.8475 198.164 66.0459 197.52 66.4351 197.026C66.8258 196.532 67.3195 196.28 67.901 196.28C68.4825 196.28 68.9762 196.533 69.3669 197.032C69.7561 197.531 69.9544 198.153 69.9544 198.885C69.9544 199.617 69.753 200.212 69.3547 200.711C68.9565 201.21 68.4628 201.463 67.8888 201.463V201.465ZM67.901 196.328C67.3346 196.328 66.853 196.573 66.4714 197.055C66.0883 197.54 65.8944 198.155 65.8944 198.885C65.8944 199.616 66.0883 200.203 66.4714 200.688C66.853 201.172 67.33 201.416 67.8888 201.416C68.4476 201.416 68.9292 201.169 69.3184 200.681C69.7091 200.191 69.9075 199.587 69.9075 198.885C69.9075 198.184 69.7136 197.551 69.3305 197.061C68.9489 196.573 68.4673 196.326 67.901 196.326V196.328Z" fill="white"/>
<path d="M85.6432 195.461L82.875 203.251C82.46 204.402 81.8255 204.977 80.9714 204.977C80.6716 204.977 80.3839 204.93 80.1067 204.837V203.925C80.4293 203.972 80.6564 203.995 80.7867 203.995C81.0941 203.995 81.3485 203.913 81.5484 203.749C81.7483 203.586 81.9179 203.302 82.0557 202.9L82.3555 202.085L80.0249 195.461H80.982L82.8386 200.906L84.6953 195.461H85.6432Z" fill="white"/>
<path d="M80.9699 205C80.6685 205 80.3763 204.953 80.0976 204.858L80.081 204.852V203.896L80.1082 203.899C80.4293 203.945 80.6564 203.969 80.7852 203.969C81.085 203.969 81.3364 203.888 81.5317 203.728C81.7271 203.568 81.8952 203.286 82.0315 202.889L82.3283 202.082L79.9901 195.434H80.9972L81.0032 195.449L82.8386 200.83L84.6786 195.434H85.6735L85.6629 195.466L82.8947 203.255C82.4782 204.411 81.8301 204.997 80.9699 204.997V205ZM80.1279 204.82C80.3975 204.908 80.6791 204.954 80.9699 204.954C81.8089 204.954 82.4419 204.379 82.8507 203.243L85.6084 195.486H84.7119L82.8386 200.98L82.8159 200.915L80.9639 195.486H80.0552L82.3767 202.087L82.3737 202.094L82.0739 202.909C81.9346 203.313 81.7619 203.603 81.559 203.768C81.3546 203.934 81.0941 204.018 80.7836 204.018C80.6549 204.018 80.4399 203.996 80.1264 203.951V204.818L80.1279 204.82Z" fill="white"/>
<path d="M88.8264 198.872C88.8113 197.899 89.096 197.057 89.6805 196.346C90.2651 195.635 90.9602 195.289 91.7688 195.307C92.2534 195.307 92.6956 195.438 93.0954 195.701C93.4952 195.963 93.8253 196.328 94.0873 196.796L93.4528 197.414C93.0061 196.674 92.4488 196.305 91.7794 196.305C91.2024 196.305 90.7179 196.555 90.3256 197.055C89.9334 197.555 89.7381 198.162 89.7381 198.873C89.7381 199.584 89.9334 200.205 90.3256 200.705C90.7179 201.205 91.2024 201.455 91.7794 201.455C92.4412 201.455 92.9939 201.091 93.4407 200.36L94.0752 200.964C93.5209 201.956 92.7532 202.451 91.7688 202.451C90.9541 202.451 90.259 202.102 89.6866 201.405C89.1142 200.708 88.8279 199.863 88.8279 198.872H88.8264Z" fill="white"/>
<path d="M91.7673 202.474C90.948 202.474 90.2423 202.119 89.6669 201.42C89.0929 200.722 88.8022 199.865 88.8022 198.872C88.787 197.897 89.0763 197.043 89.6608 196.331C90.2469 195.617 90.9556 195.266 91.7673 195.284C92.2534 195.284 92.7047 195.417 93.106 195.681C93.5073 195.943 93.8435 196.315 94.1055 196.784L94.1146 196.799L94.1025 196.811L93.4467 197.449L93.4316 197.424C92.9924 196.697 92.4366 196.326 91.7794 196.326C91.213 196.326 90.73 196.576 90.3438 197.067C89.9561 197.561 89.7608 198.168 89.7608 198.87C89.7608 199.572 89.9576 200.194 90.3438 200.687C90.73 201.179 91.2115 201.428 91.7794 201.428C92.4291 201.428 92.9818 201.063 93.421 200.345L93.4361 200.321L94.104 200.957L94.0949 200.973C93.5391 201.968 92.7562 202.473 91.7673 202.473V202.474ZM91.7067 195.33C90.9344 195.33 90.259 195.676 89.6972 196.361C89.1187 197.064 88.834 197.909 88.8491 198.872C88.8491 199.854 89.1369 200.7 89.7032 201.39C90.2681 202.078 90.9632 202.427 91.7673 202.427C92.7319 202.427 93.4982 201.936 94.0449 200.967L93.4452 200.395C92.9985 201.114 92.4382 201.477 91.7794 201.477C91.1979 201.477 90.7027 201.22 90.3075 200.717C89.9137 200.215 89.7138 199.593 89.7138 198.872C89.7138 198.15 89.9137 197.542 90.3075 197.04C90.7027 196.535 91.1979 196.28 91.7794 196.28C92.4457 196.28 93.0106 196.649 93.4573 197.375L94.0585 196.791C93.8011 196.337 93.4725 195.977 93.0833 195.721C92.6896 195.463 92.2474 195.332 91.7688 195.332C91.7491 195.332 91.7279 195.332 91.7082 195.332L91.7067 195.33Z" fill="white"/>
<path d="M102.335 198.086V202.297H101.503V201.413C101.073 202.105 100.442 202.451 99.6117 202.451C99.0272 202.451 98.5547 202.276 98.1928 201.925C97.8308 201.574 97.6506 201.109 97.6506 200.528C97.6506 199.947 97.8354 199.485 98.2049 199.139C98.5744 198.792 99.062 198.618 99.6693 198.618H101.446V198.03C101.446 197.478 101.324 197.052 101.082 196.753C100.84 196.454 100.507 196.305 100.084 196.305C99.4542 196.305 98.9075 196.669 98.4456 197.4L97.8581 196.81C98.3578 195.809 99.1195 195.309 100.142 195.309C100.819 195.309 101.353 195.55 101.745 196.032C102.138 196.514 102.333 197.198 102.333 198.088L102.335 198.086ZM101.446 199.672V199.505H99.7722C98.9651 199.505 98.5607 199.828 98.5607 200.473C98.5607 200.81 98.6698 201.074 98.8894 201.266C99.1089 201.458 99.3876 201.555 99.7253 201.555C100.195 201.555 100.598 201.371 100.937 201.007C101.274 200.642 101.444 200.197 101.444 199.674L101.446 199.672Z" fill="white"/>
<path d="M99.6117 202.474C99.0241 202.474 98.541 202.294 98.1761 201.942C97.8111 201.588 97.6264 201.112 97.6264 200.528C97.6264 199.944 97.8157 199.471 98.1882 199.122C98.5607 198.772 99.059 198.596 99.6693 198.596H101.423V198.03C101.423 197.485 101.302 197.061 101.065 196.767C100.829 196.474 100.499 196.326 100.086 196.326C99.4663 196.326 98.9227 196.691 98.4669 197.41L98.4517 197.435L97.8308 196.813L97.8384 196.797C98.3396 195.792 99.1165 195.283 100.143 195.283C100.825 195.283 101.37 195.528 101.765 196.013C102.159 196.497 102.359 197.194 102.359 198.085V202.319H101.482V201.49C101.05 202.143 100.422 202.473 99.6132 202.473L99.6117 202.474ZM99.6693 198.643C99.0711 198.643 98.5835 198.815 98.22 199.155C97.8581 199.495 97.6733 199.958 97.6733 200.528C97.6733 201.098 97.8535 201.564 98.2079 201.908C98.5638 202.253 99.0347 202.428 99.6102 202.428C100.428 202.428 101.058 202.082 101.482 201.4L101.524 201.332V202.274H102.309V198.088C102.309 197.209 102.112 196.521 101.726 196.047C101.34 195.573 100.807 195.333 100.14 195.333C99.1362 195.333 98.3775 195.829 97.8838 196.806L98.4396 197.363C98.9 196.646 99.4527 196.282 100.081 196.282C100.51 196.282 100.85 196.436 101.097 196.739C101.343 197.041 101.465 197.476 101.465 198.031V198.644H99.6662L99.6693 198.643ZM99.7268 201.576C99.3846 201.576 99.0984 201.477 98.8757 201.283C98.6516 201.088 98.5395 200.815 98.5395 200.473C98.5395 199.814 98.9545 199.482 99.7737 199.482H101.47V199.674C101.47 200.202 101.297 200.656 100.956 201.024C100.616 201.391 100.202 201.579 99.7283 201.579L99.7268 201.576ZM99.7722 199.527C98.9726 199.527 98.585 199.837 98.585 200.473C98.585 200.801 98.6925 201.062 98.906 201.248C99.1195 201.436 99.3952 201.53 99.7268 201.53C100.187 201.53 100.588 201.349 100.922 200.99C101.255 200.632 101.423 200.188 101.423 199.672V199.527H99.7722Z" fill="white"/>
<path d="M112.023 201.343V204.276H111.134V202.297H106.717V204.276H105.828V201.343H106.463C106.925 200.763 107.17 199.444 107.2 197.385L107.235 195.461H111.11V201.343H112.023ZM110.223 201.343V196.43H108.077L108.042 197.398C108.004 199.354 107.788 200.668 107.396 201.343H110.223Z" fill="white"/>
<path d="M111.113 204.298V202.32H106.741V204.298H105.807V201.318H106.454C106.905 200.74 107.149 199.416 107.18 197.383L107.215 195.437H111.138V201.318H112.049V204.298H111.113ZM111.159 204.251H112.001V201.365H111.089V195.484H107.259L107.224 197.383C107.194 199.437 106.944 200.774 106.481 201.355L106.473 201.364H105.851V204.25H106.693V202.271H111.157V204.25L111.159 204.251ZM110.247 201.365H107.356L107.377 201.33C107.765 200.664 107.982 199.34 108.019 197.398L108.054 196.407H110.246V201.365H110.247ZM107.438 201.318H110.2V196.453H108.1L108.066 197.398C108.029 199.315 107.817 200.633 107.438 201.318Z" fill="white"/>
<path d="M115.956 202.296V195.461H116.845V197.819H118.184C118.821 197.819 119.332 198.022 119.712 198.429C120.092 198.837 120.283 199.376 120.283 200.051C120.283 200.725 120.092 201.268 119.712 201.678C119.332 202.09 118.821 202.296 118.184 202.296H115.956ZM116.845 201.341H118.137C118.522 201.341 118.823 201.227 119.042 200.998C119.262 200.769 119.371 200.458 119.371 200.064C119.371 199.671 119.259 199.358 119.036 199.123C118.814 198.89 118.509 198.772 118.125 198.772H116.845V201.341Z" fill="white"/>
<path d="M118.184 202.32H115.933V195.438H116.868V197.796H118.182C118.824 197.796 119.344 198.004 119.728 198.414C120.112 198.823 120.305 199.375 120.305 200.051C120.305 200.726 120.112 201.28 119.728 201.695C119.345 202.11 118.824 202.32 118.182 202.32H118.184ZM115.98 202.273H118.184C118.812 202.273 119.321 202.067 119.695 201.663C120.069 201.257 120.26 200.716 120.26 200.051C120.26 199.386 120.071 198.846 119.695 198.446C119.321 198.046 118.812 197.844 118.184 197.844H116.822V195.486H115.98V202.274V202.273ZM118.137 201.365H116.821V198.75H118.125C118.514 198.75 118.826 198.87 119.053 199.108C119.279 199.346 119.394 199.668 119.394 200.064C119.394 200.461 119.282 200.781 119.059 201.015C118.837 201.248 118.526 201.365 118.137 201.365ZM116.868 201.318H118.137C118.512 201.318 118.812 201.205 119.026 200.981C119.239 200.757 119.348 200.449 119.348 200.064C119.348 199.68 119.238 199.369 119.02 199.14C118.802 198.913 118.502 198.797 118.125 198.797H116.868V201.318Z" fill="white"/>
<path d="M129.858 198.998C129.873 199.933 129.589 200.746 129.004 201.432C128.419 202.12 127.727 202.454 126.928 202.436C126.066 202.436 125.368 202.081 124.833 201.37C124.299 200.659 124.032 199.733 124.032 198.591V197.398C124.032 196.332 124.117 195.47 124.287 194.816C124.656 193.413 125.725 192.528 127.494 192.164C128.441 191.958 129.071 191.775 129.386 191.616V192.655C129.024 192.842 128.428 193.01 127.597 193.16C126.805 193.3 126.208 193.549 125.809 193.904C125.409 194.259 125.159 194.671 125.059 195.139C124.952 195.617 124.897 196.216 124.897 196.936C125.135 196.506 125.445 196.169 125.825 195.926C126.205 195.684 126.616 195.562 127.053 195.562C127.808 195.544 128.466 195.882 129.031 196.579C129.596 197.276 129.872 198.083 129.857 199L129.858 198.998ZM128.363 200.731C128.751 200.258 128.946 199.68 128.946 198.998C128.946 198.316 128.753 197.737 128.363 197.264C127.976 196.791 127.5 196.555 126.938 196.555C126.377 196.555 125.912 196.793 125.519 197.27C125.127 197.748 124.932 198.323 124.932 198.997C124.932 199.671 125.13 200.234 125.525 200.716C125.921 201.198 126.392 201.439 126.938 201.439C127.485 201.439 127.974 201.202 128.363 200.729V200.731Z" fill="white"/>
<path d="M126.99 202.46C126.969 202.46 126.947 202.46 126.928 202.46C126.063 202.46 125.353 202.099 124.815 201.385C124.281 200.674 124.01 199.733 124.01 198.593V197.4C124.01 196.335 124.096 195.464 124.264 194.811C124.634 193.405 125.719 192.507 127.488 192.142C128.427 191.938 129.061 191.755 129.373 191.596L129.407 191.58V192.67L129.395 192.676C129.033 192.864 128.428 193.035 127.6 193.184C126.816 193.323 126.219 193.571 125.824 193.922C125.43 194.273 125.18 194.683 125.082 195.144C124.979 195.597 124.926 196.17 124.921 196.848C125.154 196.453 125.454 196.135 125.813 195.905C126.196 195.661 126.614 195.536 127.053 195.536C127.812 195.516 128.483 195.862 129.049 196.562C129.616 197.261 129.894 198.08 129.879 198.998C129.894 199.935 129.605 200.76 129.021 201.448C128.45 202.12 127.765 202.46 126.988 202.46H126.99ZM129.361 191.653C129.036 191.808 128.409 191.987 127.497 192.185C125.747 192.547 124.673 193.433 124.308 194.821C124.14 195.47 124.055 196.337 124.055 197.397V198.589C124.055 199.721 124.323 200.652 124.852 201.355C125.379 202.056 126.077 202.412 126.926 202.412C126.947 202.412 126.967 202.412 126.988 202.412C127.752 202.412 128.424 202.076 128.986 201.416C129.563 200.735 129.849 199.921 129.834 198.997C129.849 198.089 129.573 197.279 129.015 196.59C128.471 195.92 127.83 195.58 127.111 195.58C127.091 195.58 127.073 195.58 127.053 195.58C126.622 195.58 126.211 195.702 125.837 195.942C125.462 196.183 125.151 196.52 124.917 196.944L124.873 197.023V196.933C124.873 196.215 124.927 195.608 125.035 195.132C125.135 194.662 125.391 194.241 125.792 193.884C126.193 193.527 126.799 193.276 127.591 193.135C128.406 192.989 129.001 192.821 129.36 192.638V191.651L129.361 191.653ZM126.938 201.463C126.387 201.463 125.906 201.217 125.507 200.732C125.109 200.249 124.908 199.665 124.908 198.998C124.908 198.332 125.108 197.737 125.501 197.256C125.896 196.776 126.38 196.532 126.938 196.532C127.497 196.532 127.989 196.773 128.382 197.249C128.772 197.723 128.969 198.312 128.969 198.997C128.969 199.682 128.771 200.27 128.382 200.745C127.991 201.22 127.505 201.461 126.938 201.461V201.463ZM126.938 196.579C126.395 196.579 125.924 196.817 125.538 197.287C125.151 197.758 124.955 198.333 124.955 198.998C124.955 199.663 125.153 200.228 125.544 200.702C125.933 201.176 126.402 201.416 126.938 201.416C127.474 201.416 127.964 201.179 128.345 200.716C128.728 200.25 128.922 199.671 128.922 198.997C128.922 198.323 128.728 197.744 128.345 197.278C127.964 196.813 127.49 196.578 126.938 196.578V196.579Z" fill="white"/>
<path d="M138.163 198.086V202.297H137.331V201.413C136.901 202.105 136.27 202.451 135.44 202.451C134.855 202.451 134.383 202.276 134.021 201.925C133.659 201.574 133.479 201.109 133.479 200.528C133.479 199.947 133.664 199.485 134.033 199.139C134.403 198.792 134.89 198.618 135.498 198.618H137.274V198.03C137.274 197.478 137.153 197.052 136.91 196.753C136.668 196.454 136.335 196.305 135.912 196.305C135.283 196.305 134.736 196.669 134.274 197.4L133.686 196.81C134.186 195.809 134.948 195.309 135.97 195.309C136.647 195.309 137.182 195.55 137.574 196.032C137.966 196.514 138.161 197.198 138.161 198.088L138.163 198.086ZM137.274 199.672V199.505H135.601C134.793 199.505 134.389 199.828 134.389 200.473C134.389 200.81 134.498 201.074 134.718 201.266C134.937 201.458 135.216 201.555 135.554 201.555C136.023 201.555 136.426 201.371 136.765 201.007C137.103 200.642 137.272 200.197 137.272 199.674L137.274 199.672Z" fill="white"/>
<path d="M135.44 202.474C134.852 202.474 134.369 202.294 134.004 201.942C133.639 201.588 133.455 201.112 133.455 200.528C133.455 199.944 133.644 199.471 134.016 199.122C134.389 198.772 134.887 198.596 135.498 198.596H137.251V198.03C137.251 197.485 137.13 197.061 136.894 196.767C136.658 196.474 136.327 196.326 135.914 196.326C135.295 196.326 134.751 196.691 134.295 197.41L134.28 197.435L133.659 196.813L133.667 196.797C134.168 195.792 134.945 195.283 135.972 195.283C136.653 195.283 137.198 195.528 137.593 196.013C137.987 196.497 138.187 197.194 138.187 198.085V202.319H137.31V201.49C136.879 202.143 136.25 202.473 135.442 202.473L135.44 202.474ZM135.498 198.643C134.899 198.643 134.412 198.815 134.048 199.155C133.686 199.495 133.502 199.958 133.502 200.528C133.502 201.098 133.682 201.564 134.036 201.908C134.392 202.253 134.863 202.428 135.438 202.428C136.256 202.428 136.886 202.082 137.31 201.4L137.353 201.332V202.274H138.137V198.088C138.137 197.209 137.94 196.521 137.554 196.047C137.168 195.573 136.635 195.333 135.969 195.333C134.964 195.333 134.206 195.829 133.712 196.806L134.268 197.363C134.728 196.646 135.281 196.282 135.909 196.282C136.338 196.282 136.679 196.436 136.926 196.739C137.171 197.041 137.294 197.476 137.294 198.031V198.644H135.495L135.498 198.643ZM135.555 201.576C135.213 201.576 134.927 201.477 134.704 201.283C134.48 201.088 134.368 200.815 134.368 200.473C134.368 199.814 134.783 199.482 135.602 199.482H137.298V199.674C137.298 200.202 137.125 200.656 136.785 201.024C136.444 201.391 136.031 201.579 135.557 201.579L135.555 201.576ZM135.601 199.527C134.801 199.527 134.413 199.837 134.413 200.473C134.413 200.801 134.521 201.062 134.734 201.248C134.948 201.436 135.223 201.53 135.555 201.53C136.015 201.53 136.417 201.349 136.75 200.99C137.083 200.632 137.251 200.188 137.251 199.672V199.527H135.601Z" fill="white"/>
</svg>
