<svg width="84" height="94" viewBox="0 0 84 94" fill="none" xmlns="http://www.w3.org/2000/svg">
<g filter="url(#filter0_d_366_3491)">
<rect x="12" y="12" width="60" height="60" rx="30" fill="#EDE8DD" shape-rendering="crispEdges"/>
<rect x="11" y="11" width="62" height="62" rx="31" stroke="#3C3F2B" stroke-width="2" shape-rendering="crispEdges"/>
<path d="M33.2228 42.3105C33.1797 42.3105 33.1361 42.2994 33.0961 42.2758C32.9744 42.205 32.9331 42.0483 33.0034 41.9263L40.3611 29.0944C40.4065 29.0153 40.4905 28.9663 40.581 28.9663C40.6714 28.9663 40.7559 29.0149 40.8009 29.0944L48.0145 41.6757C48.0847 41.7982 48.0429 41.9549 47.9217 42.0252C47.7996 42.0959 47.6444 42.0539 47.5746 41.9318L40.581 29.7347L33.4437 42.1828C33.3968 42.2651 33.311 42.3109 33.2233 42.3109L33.2228 42.3105Z" fill="#3C3F2B"/>
<path d="M49.8804 42.1399C49.7927 42.1399 49.7068 42.0941 49.66 42.0118L42.3813 29.3186C42.311 29.1961 42.3528 29.0394 42.474 28.9691C42.5962 28.8979 42.7513 28.9404 42.8211 29.0625L50.0999 41.7557C50.1701 41.8782 50.1283 42.0349 50.0071 42.1052C49.9672 42.1283 49.9231 42.1399 49.8804 42.1399Z" fill="#3C3F2B"/>
<path d="M51.8097 42.1399C51.722 42.1399 51.6362 42.0941 51.5893 42.0118L44.3106 29.3186C44.2403 29.1961 44.2821 29.0394 44.4033 28.9691C44.5255 28.8979 44.6806 28.9404 44.7504 29.0625L52.0292 41.7557C52.0994 41.8782 52.0576 42.0349 51.9364 42.1052C51.8965 42.1283 51.8524 42.1399 51.8097 42.1399Z" fill="#3C3F2B"/>
<path d="M31.7779 42.1399C31.6374 42.1399 31.5236 42.0252 31.5236 41.8837V32.9331L29.7132 35.1707C29.6246 35.2803 29.4643 35.297 29.3555 35.2077C29.2467 35.1185 29.2302 34.9572 29.3188 34.8476L31.581 32.0519C31.6489 31.9678 31.7628 31.9363 31.8633 31.9724C31.9648 32.0089 32.0323 32.1055 32.0323 32.2137V41.8837C32.0323 42.0252 31.9184 42.1399 31.7779 42.1399Z" fill="#3C3F2B"/>
<path d="M29.5493 37.9378C29.4928 37.9378 29.4359 37.9188 29.389 37.8804C29.2802 37.7912 29.2637 37.6299 29.3523 37.5203L31.5474 34.8083C31.636 34.6987 31.7963 34.6821 31.9051 34.7713C32.0139 34.8605 32.0304 35.0219 31.9418 35.1315L29.7467 37.8435C29.6962 37.9054 29.6232 37.9378 29.5493 37.9378Z" fill="#3C3F2B"/>
<path d="M34.0066 37.9378C33.9327 37.9378 33.8597 37.9059 33.8092 37.8435L31.614 35.1315C31.5254 35.0219 31.5415 34.8605 31.6507 34.7713C31.7596 34.6821 31.9198 34.6983 32.0084 34.8083L34.2036 37.5203C34.2922 37.6299 34.2761 37.7912 34.1668 37.8804C34.1195 37.9193 34.0626 37.9378 34.0066 37.9378Z" fill="#3C3F2B"/>
<path d="M29.5493 40.6942C29.4928 40.6942 29.4359 40.6752 29.389 40.6368C29.2802 40.5476 29.2637 40.3862 29.3523 40.2767L31.5474 37.5651C31.636 37.4556 31.7963 37.4389 31.9051 37.5281C32.0139 37.6174 32.0304 37.7787 31.9418 37.8883L29.7467 40.5998C29.6962 40.6618 29.6232 40.6942 29.5493 40.6942Z" fill="#3C3F2B"/>
<path d="M34.0309 40.6942C33.957 40.6942 33.884 40.6623 33.8335 40.5998L31.6383 37.8883C31.5497 37.7787 31.5658 37.6174 31.6751 37.5281C31.7839 37.4389 31.9441 37.4551 32.0327 37.5651L34.2279 40.2767C34.3165 40.3862 34.3004 40.5476 34.1912 40.6368C34.1439 40.6757 34.0869 40.6942 34.0309 40.6942Z" fill="#3C3F2B"/>
<path d="M34.0401 35.2655C33.9662 35.2655 33.8932 35.2332 33.8427 35.1712L31.5805 32.3755C31.4919 32.266 31.5084 32.1046 31.6172 32.0154C31.726 31.9261 31.8863 31.9428 31.9749 32.0524L34.2371 34.848C34.3257 34.9576 34.3092 35.119 34.2003 35.2082C34.153 35.247 34.0961 35.2655 34.0401 35.2655Z" fill="#3C3F2B"/>
<path d="M53.3506 42.1399C53.2101 42.1399 53.0962 42.0252 53.0962 41.8837V32.9331L51.2858 35.1707C51.1972 35.2803 51.037 35.297 50.9282 35.2077C50.8193 35.1185 50.8028 34.9572 50.8914 34.8476L53.1531 32.0519C53.2211 31.9678 53.3345 31.9363 53.4355 31.9724C53.537 32.0089 53.6045 32.1055 53.6045 32.2137V41.8837C53.6045 42.0252 53.4906 42.1399 53.3501 42.1399H53.3506Z" fill="#3C3F2B"/>
<path d="M51.1219 37.9378C51.0654 37.9378 51.0085 37.9188 50.9612 37.8804C50.8524 37.7912 50.8363 37.6299 50.9249 37.5203L53.1201 34.8083C53.2087 34.6987 53.3689 34.6821 53.4778 34.7713C53.5866 34.8605 53.6031 35.0219 53.5145 35.1315L51.3193 37.8435C51.2688 37.9054 51.1958 37.9378 51.1219 37.9378Z" fill="#3C3F2B"/>
<path d="M55.5788 37.9378C55.5049 37.9378 55.4319 37.9059 55.3814 37.8435L53.1862 35.1315C53.0976 35.0219 53.1137 34.8605 53.2229 34.7713C53.3318 34.6821 53.492 34.6983 53.5806 34.8083L55.7757 37.5203C55.8644 37.6299 55.8483 37.7912 55.739 37.8804C55.6917 37.9193 55.6348 37.9378 55.5788 37.9378Z" fill="#3C3F2B"/>
<path d="M51.1219 40.6942C51.0654 40.6942 51.0085 40.6752 50.9612 40.6368C50.8524 40.5476 50.8363 40.3862 50.9249 40.2767L53.1201 37.5651C53.2087 37.4556 53.3689 37.4389 53.4778 37.5286C53.5866 37.6178 53.6026 37.7792 53.514 37.8888L51.3189 40.6003C51.2684 40.6623 51.1954 40.6946 51.1215 40.6946L51.1219 40.6942Z" fill="#3C3F2B"/>
<path d="M55.6036 40.6942C55.5297 40.6942 55.4566 40.6623 55.4061 40.5998L53.211 37.8883C53.1224 37.7787 53.1385 37.6174 53.2477 37.5281C53.3565 37.4389 53.5168 37.4551 53.6054 37.5651L55.8005 40.2767C55.8892 40.3862 55.8731 40.5476 55.7638 40.6368C55.7165 40.6757 55.6596 40.6942 55.6036 40.6942Z" fill="#3C3F2B"/>
<path d="M55.6123 35.2655C55.5384 35.2655 55.4654 35.2332 55.4149 35.1712L53.1527 32.3755C53.0641 32.266 53.0806 32.1046 53.1894 32.0154C53.2982 31.9261 53.4585 31.9428 53.5471 32.0524L55.8093 34.848C55.8979 34.9576 55.8814 35.119 55.7725 35.2082C55.7252 35.247 55.6683 35.2655 55.6123 35.2655Z" fill="#3C3F2B"/>
<path d="M41.7541 42.1963C41.6136 42.1963 41.4997 42.0816 41.4997 41.9401V38.1712H39.5718V41.8837C39.5718 42.0252 39.4579 42.1399 39.3174 42.1399C39.1769 42.1399 39.0631 42.0252 39.0631 41.8837V37.9151C39.0631 37.7736 39.1769 37.659 39.3174 37.659H41.7536C41.8941 37.659 42.008 37.7736 42.008 37.9151V41.9401C42.008 42.0816 41.8941 42.1963 41.7536 42.1963H41.7541Z" fill="#3C3F2B"/>
<path d="M29.0635 51.5024C29.0786 51.5024 29.0933 51.5024 29.1085 51.5024C30.6829 51.5024 31.4877 51.0119 32.2669 50.5375C33.019 50.0794 33.7293 49.6466 35.1618 49.6466C35.176 49.6466 35.1902 49.6466 35.204 49.6466C36.665 49.6554 37.3771 50.1006 38.131 50.5718C38.9116 51.06 39.7187 51.5644 41.323 51.5741C41.3381 51.5741 41.3528 51.5741 41.368 51.5741C42.9424 51.5741 43.7477 51.0836 44.5264 50.6092C45.2784 50.151 45.9887 49.7183 47.4213 49.7183C47.4355 49.7183 47.4497 49.7183 47.4635 49.7183C48.9245 49.7271 49.6366 50.1723 50.391 50.6434C51.1715 51.1316 51.9791 51.636 53.5834 51.6457C53.5985 51.6457 53.6132 51.6457 53.6283 51.6457C55.2027 51.6457 56.0081 51.1552 56.7872 50.6809C57.5393 50.2227 58.25 49.79 59.6826 49.79C59.6973 49.79 59.7138 49.7914 59.7266 49.79C59.8662 49.79 59.9801 49.6762 59.981 49.5357C59.9819 49.3942 59.8685 49.2791 59.7285 49.2782C59.7133 49.2782 59.6986 49.2782 59.6835 49.2782C58.1091 49.2782 57.3038 49.7687 56.5246 50.243C55.7725 50.7012 55.0618 51.1339 53.6293 51.1339C53.615 51.1339 53.6013 51.1339 53.587 51.1339C52.126 51.1252 51.4139 50.6799 50.6596 50.2088C49.879 49.7206 49.0714 49.2162 47.4672 49.2065C45.8606 49.2 45.0498 49.6924 44.2638 50.1709C43.5117 50.6291 42.8014 51.0618 41.3689 51.0618C41.3546 51.0618 41.3404 51.0618 41.3266 51.0618C39.8657 51.053 39.1535 50.6078 38.3996 50.1367C37.6191 49.6485 36.8119 49.1441 35.2077 49.1344C33.5998 49.1265 32.7903 49.6203 32.0043 50.0988C31.2522 50.557 30.5419 50.9897 29.1094 50.9897C29.0952 50.9897 29.0809 50.9897 29.0672 50.9897C27.7081 50.9818 26.9331 50.4557 26.1842 49.9472C25.4983 49.4816 24.793 49.0059 23.7012 48.9883C23.7389 49.0914 23.776 49.1936 23.8183 49.299C23.8468 49.3697 23.878 49.4386 23.9069 49.5089C24.7237 49.5764 25.2825 49.9522 25.8996 50.3716C26.6737 50.8972 27.5506 51.4927 29.064 51.502L29.0635 51.5024Z" fill="#3C3F2B"/>
<path d="M47.4672 56.7752C45.8683 56.7619 45.0575 57.256 44.275 57.7328C44.2712 57.7351 44.2675 57.7374 44.2638 57.7397C43.5117 58.1978 42.8014 58.6306 41.3689 58.6306C41.3546 58.6306 41.3404 58.6306 41.3266 58.6306C39.866 58.6218 39.1539 58.1768 38.4002 57.7058L38.3996 57.7054C37.6191 57.2172 36.8119 56.7128 35.2077 56.7031C33.6109 56.6884 32.8016 57.1816 32.0206 57.6576C32.0152 57.6609 32.0097 57.6642 32.0043 57.6675C31.6866 57.8608 31.3762 58.0494 31.0158 58.2029C31.1824 58.3153 31.35 58.4262 31.5194 58.533C31.7853 58.3985 32.0277 58.2515 32.2674 58.1054C33.0194 57.6472 33.7297 57.2145 35.1622 57.2145C35.1765 57.2145 35.1907 57.2145 35.2045 57.2145C35.7795 57.2179 36.2385 57.289 36.6297 57.4026C37.0708 57.5307 37.4258 57.7129 37.7636 57.9135C37.8874 57.987 38.0089 58.063 38.1315 58.1396C38.912 58.6278 39.7192 59.1322 41.3234 59.1419C42.9304 59.1544 43.7408 58.6565 44.5268 58.1775C45.2789 57.7193 45.9892 57.2866 47.4217 57.2866C47.4355 57.2866 47.4502 57.2866 47.4639 57.2866C48.9249 57.2954 49.6371 57.7406 50.3914 58.2117C50.8708 58.5113 51.3611 58.8169 52.0393 59.0106C52.2578 58.8881 52.4736 58.7609 52.6876 58.6306C51.7968 58.4859 51.2399 58.1396 50.66 57.7766L50.6596 57.7764C49.8792 57.2887 49.0716 56.784 47.4676 56.7743L47.4672 56.7752Z" fill="#3C3F2B"/>
<path d="M61.498 37.782C61.402 36.732 61.1197 35.6003 60.6816 34.5087C59.2156 30.8563 56.7303 27.7426 53.4943 25.504C50.1807 23.2113 46.2959 22 42.2605 22H41.3987C35.0778 22 29.0511 25.0957 25.277 30.2812C23.2177 33.1106 22.771 36.1199 24.052 38.5374C25.1911 40.6872 27.5818 42.113 30.2912 42.2582C32.7839 42.3914 35.3367 42.3451 37.8055 42.3007C39.0433 42.2781 40.3234 42.255 41.5741 42.255L42.6347 42.2573C43.8326 42.2554 45.0553 42.2332 46.2376 42.212C48.6958 42.1676 51.2381 42.1214 53.7115 42.254C56.1559 42.3849 58.3148 43.6235 59.4117 45.5014C59.5003 45.4982 59.5912 45.4959 59.6849 45.4959C59.7 45.4959 59.7147 45.4959 59.7299 45.4959C59.8703 45.4968 59.9833 45.6119 59.9824 45.7534C59.9815 45.8944 59.8681 46.0077 59.728 46.0077C59.7156 46.01 59.6991 46.0077 59.6839 46.0077C59.6812 46.0077 59.6789 46.0077 59.6766 46.0077C60.6389 48.1219 60.2234 50.6994 58.5159 53.1709C58.722 53.1298 58.9438 53.0988 59.1862 53.0813C60.8676 50.4423 61.1624 47.6993 59.9773 45.4631C58.8382 43.3132 56.4475 41.8874 53.7381 41.7423C51.2468 41.6091 48.6954 41.6549 46.2284 41.6997C45.048 41.721 43.8276 41.7432 42.6347 41.745L41.5746 41.7427C40.3188 41.7427 39.0365 41.7658 37.7963 41.7885C35.3362 41.8329 32.7926 41.8791 30.3183 41.7469C27.7857 41.6114 25.5566 40.2892 24.5006 38.2965C23.3155 36.0598 23.748 33.2484 25.6874 30.584C29.3661 25.5299 35.2394 22.5123 41.3987 22.5123H42.2605C46.1931 22.5123 49.9782 23.693 53.2064 25.9265C56.3602 28.1083 58.7822 31.1425 60.2106 34.7015C60.6302 35.7468 60.9002 36.8286 60.9925 37.8296C61.0053 37.9706 61.1325 38.0769 61.2689 38.0612C61.4089 38.0483 61.5118 37.9234 61.4989 37.7829L61.498 37.782Z" fill="#3C3F2B"/>
<path d="M59.4103 45.501C58.0136 45.5541 57.2574 46.0142 56.5251 46.4603C55.773 46.9185 55.0622 47.3512 53.6297 47.3512C53.6155 47.3512 53.6013 47.3512 53.587 47.3512C52.126 47.3424 51.4139 46.8972 50.6596 46.4261C49.879 45.9379 49.0714 45.4335 47.4672 45.4238C47.452 45.4238 47.4369 45.4238 47.4217 45.4238C45.8473 45.4238 45.0424 45.9143 44.2638 46.3882C43.5117 46.8463 42.8009 47.2791 41.3689 47.2791C41.3546 47.2791 41.3409 47.2791 41.3266 47.2791C39.8657 47.2703 39.1535 46.8251 38.3996 46.354C37.6191 45.8657 36.8119 45.3613 35.2077 45.3516C33.5998 45.3401 32.7903 45.8375 32.0043 46.316C31.2522 46.7742 30.5419 47.2069 29.1094 47.2069C29.0952 47.2069 29.0809 47.2069 29.0672 47.2069C27.7081 47.1991 26.9331 46.673 26.1838 46.1644C25.3091 45.5703 24.4037 44.9554 22.704 45.304C22.5662 45.3322 22.4771 45.4672 22.5051 45.6059C22.5175 45.6683 22.5529 45.7201 22.5993 45.7562C22.6388 45.716 22.6911 45.6873 22.7517 45.6808C22.8412 45.6702 22.9248 45.709 22.9771 45.7751C24.3536 45.543 25.0736 46.028 25.8991 46.5888L25.8994 46.589C26.6734 47.1146 27.5508 47.71 29.0635 47.7192C30.6609 47.7335 31.473 47.2386 32.2555 46.7618C32.2593 46.7594 32.2631 46.7571 32.2669 46.7548C33.019 46.2966 33.7293 45.8639 35.1618 45.8639C35.176 45.8639 35.1902 45.8639 35.204 45.8639C36.665 45.8727 37.3771 46.3179 38.131 46.789C38.9116 47.2772 39.7187 47.7816 41.323 47.7913C42.9173 47.8069 43.7276 47.3137 44.5079 46.8382C44.514 46.8344 44.5202 46.8307 44.5264 46.8269C45.2784 46.3687 45.9887 45.936 47.4213 45.936C47.4355 45.936 47.4497 45.936 47.4639 45.936C48.9249 45.9448 49.6371 46.39 50.3914 46.8611C50.392 46.8615 50.3926 46.8619 50.3932 46.8622C51.1732 47.3496 51.9808 47.8537 53.5838 47.863C53.599 47.863 53.6141 47.863 53.6293 47.863C55.2037 47.863 56.009 47.3725 56.7877 46.8986C57.5384 46.4413 58.2482 46.0095 59.6757 46.0081C59.6293 45.906 59.5806 45.8047 59.5278 45.7049C59.4911 45.6355 59.4498 45.5694 59.4103 45.5014V45.501Z" fill="#3C3F2B"/>
<path d="M22.5993 45.7552C22.5474 45.8079 22.518 45.8824 22.5267 45.9624C22.6429 47.0276 22.8027 47.9749 23.1677 49.0156C23.3555 48.9948 23.5327 48.986 23.7007 48.9888C23.3146 47.9356 23.1493 46.9836 23.0322 45.9064C23.0267 45.856 23.0065 45.8112 22.9776 45.7742C22.9207 45.7839 22.8647 45.7927 22.8054 45.8047C22.7301 45.82 22.6562 45.7992 22.5997 45.7552H22.5993Z" fill="#3C3F2B"/>
<path d="M26.4459 53.9079C26.4455 53.9074 26.4451 53.9069 26.4447 53.9063C25.4171 52.5664 24.5633 51.0922 23.9071 49.5108C23.9068 49.5103 23.9066 49.5098 23.9064 49.5093C23.7347 49.495 23.552 49.4936 23.3541 49.5093C23.8761 50.8071 24.5295 52.035 25.2972 53.1811C25.6131 53.3443 25.9 53.5385 26.1838 53.7308C26.27 53.7892 26.3567 53.848 26.4447 53.9063C26.4453 53.9067 26.4458 53.9071 26.4464 53.9074L26.4459 53.9079Z" fill="#3C3F2B"/>
<path d="M30.8215 58.0739C30.3337 57.7364 29.8637 57.3783 29.4123 57.0009C29.3633 56.96 29.3146 56.9188 29.2661 56.8774C29.24 56.8551 29.2139 56.8328 29.188 56.8104C28.5201 56.2346 27.8943 55.616 27.313 54.9596C27.3123 54.9588 27.3116 54.9581 27.311 54.9574C26.8431 54.7711 26.4537 54.5283 26.0947 54.2879C27.3114 55.8598 28.7614 57.2487 30.4111 58.4082C30.631 58.3518 30.8303 58.2824 31.0158 58.2029C30.9877 58.1839 30.9593 58.1654 30.9309 58.1468C30.8944 58.1229 30.8577 58.0989 30.8215 58.0739Z" fill="#3C3F2B"/>
<path d="M41.7679 61.4882C38.115 61.4882 34.5901 60.4678 31.5194 58.533C31.3445 58.6213 31.1585 58.7041 30.9565 58.7767C34.176 60.8853 37.9019 62 41.7679 62H42.6297C46.2348 62 49.744 60.9912 52.7946 59.1636C52.5172 59.1285 52.2675 59.0758 52.0397 59.0111C49.1853 60.6102 45.9493 61.4882 42.6301 61.4882H41.7679Z" fill="#3C3F2B"/>
<path d="M52.6876 58.631C52.9392 58.6717 53.2174 58.6967 53.5306 58.7008C55.5278 57.3841 57.3051 55.7059 58.7514 53.7188C58.7707 53.692 58.7891 53.6652 58.8084 53.6384C58.5173 53.6832 58.2615 53.7498 58.0287 53.8321C58.028 53.833 58.0273 53.8339 58.0266 53.8348C56.5376 55.7703 54.7192 57.388 52.6876 58.6306V58.631Z" fill="#3C3F2B"/>
<path d="M22.8045 45.8047C22.8637 45.7927 22.9198 45.7839 22.9767 45.7742C22.9239 45.7081 22.8403 45.6693 22.7512 45.6799C22.6906 45.6864 22.6388 45.715 22.5988 45.7552C22.6553 45.7992 22.7292 45.8204 22.8045 45.8047Z" fill="#3C3F2B"/>
<path d="M59.6757 46.0077C59.6784 46.0077 59.6807 46.0077 59.683 46.0077C59.6977 46.0077 59.7142 46.0104 59.7271 46.0077C59.8667 46.0077 59.9805 45.8939 59.9815 45.7534C59.9824 45.6119 59.869 45.4968 59.7289 45.4959C59.7138 45.4959 59.6991 45.4959 59.6839 45.4959C59.5898 45.4959 59.4994 45.4977 59.4108 45.5014C59.4502 45.5689 59.4916 45.6355 59.5283 45.7048C59.5811 45.8047 59.6298 45.906 59.6761 46.0081L59.6757 46.0077Z" fill="#3C3F2B"/>
<path d="M23.9064 49.5093C23.8775 49.4391 23.8458 49.3702 23.8178 49.2994C23.7756 49.1945 23.7384 49.0919 23.7007 48.9888C23.5327 48.986 23.3555 48.9948 23.1677 49.0156C23.2228 49.1718 23.2816 49.33 23.3463 49.4913C23.3486 49.4973 23.3513 49.5033 23.3541 49.5098C23.552 49.4941 23.7347 49.4955 23.9064 49.5098V49.5093Z" fill="#3C3F2B"/>
<path d="M26.4459 53.9079C26.3578 53.8492 26.2701 53.7905 26.1833 53.7313C25.9 53.539 25.6126 53.3448 25.2967 53.1816C25.5502 53.5598 25.8165 53.9287 26.0947 54.2879C26.4533 54.5283 26.8431 54.7711 27.311 54.9574C27.0112 54.6187 26.7237 54.2698 26.4486 53.9113L26.4481 53.9107C26.4474 53.9098 26.4467 53.9088 26.4459 53.9079Z" fill="#3C3F2B"/>
<path d="M58.341 53.4164C58.2386 53.557 58.1343 53.6952 58.0287 53.8325C58.2611 53.7502 58.5173 53.6837 58.8084 53.6388C58.9411 53.4534 59.0669 53.2676 59.1853 53.0813C58.9429 53.0988 58.7211 53.1303 58.515 53.1709C58.4585 53.2528 58.4006 53.3346 58.341 53.4164Z" fill="#3C3F2B"/>
<path d="M52.0393 59.0115C52.2675 59.0767 52.5168 59.1289 52.7941 59.1641C53.0425 59.0152 53.2881 58.8608 53.5301 58.7013C53.217 58.6971 52.9387 58.6722 52.6871 58.6315C52.4732 58.7623 52.2574 58.8895 52.0388 59.0115H52.0393Z" fill="#3C3F2B"/>
<path d="M31.0158 58.2029C30.8303 58.282 30.631 58.3518 30.4111 58.4082C30.4524 58.4373 30.4923 58.4674 30.5337 58.496C30.6732 58.5927 30.8151 58.6842 30.9565 58.7767C31.1585 58.7041 31.3445 58.6213 31.5194 58.533C31.35 58.4262 31.1824 58.3153 31.0158 58.2029Z" fill="#3C3F2B"/>
<path d="M60.239 49.8186C60.2271 49.8186 60.2147 49.8177 60.2023 49.8159C60.1504 49.8083 60.0939 49.8024 60.0322 49.7982C59.9484 49.7926 59.8549 49.7899 59.7505 49.7902C59.7254 49.7903 59.6997 49.7905 59.6734 49.7909C59.672 49.7909 59.6706 49.7909 59.6692 49.7909C59.5306 49.7909 59.4172 49.679 59.4149 49.5389C59.4126 49.3974 59.5246 49.2809 59.6651 49.2786C59.9089 49.2745 60.1086 49.2846 60.2748 49.3087C60.414 49.329 60.5099 49.4589 60.4902 49.5986C60.4718 49.7262 60.363 49.8177 60.239 49.8177V49.8186Z" fill="#3C3F2B"/>
<path d="M22.5001 45.5569L22.5263 45.9624L23.0318 45.9064L23.0143 45.7437" fill="#3C3F2B"/>
<path fill-rule="evenodd" clip-rule="evenodd" d="M52.0393 59.0115H52.0388C49.1845 60.6104 45.9489 61.4882 42.6301 61.4882H41.7679C38.1152 61.4882 34.5905 60.4681 31.5199 58.5335C34.5906 60.4683 38.1154 61.4887 41.7683 61.4887H42.6301C45.9497 61.4887 49.1853 60.6112 52.0397 59.0115H52.0393Z" fill="#3C3F2B"/>
<path fill-rule="evenodd" clip-rule="evenodd" d="M51.5559 54.5025C51.234 54.3526 50.9506 54.1757 50.6611 53.9949L50.6608 53.9947L50.6596 53.9939C50.3009 53.7696 49.9366 53.5419 49.4919 53.3603C49.454 53.3448 49.4156 53.3297 49.3765 53.3149L49.3721 53.3133C48.8746 53.1259 48.2751 52.9977 47.4789 52.9917L47.4783 52.9916L47.478 52.9916L47.471 52.9916L47.4672 52.9916H47.4222C47.2793 52.9916 47.1427 52.9956 47.012 53.0033C46.9625 53.0062 46.9138 53.0096 46.8659 53.0136C46.8514 53.0148 46.837 53.016 46.8226 53.0173C46.8059 53.0188 46.7894 53.0203 46.773 53.022C45.6106 53.136 44.9275 53.5521 44.2638 53.9564C43.6218 54.3475 43.0103 54.72 41.9542 54.8207C41.9469 54.8214 41.9396 54.8221 41.9323 54.8228C41.9247 54.8235 41.9171 54.8242 41.9095 54.8248C41.8975 54.8259 41.8854 54.8269 41.8732 54.8279C41.7943 54.8342 41.7128 54.8391 41.6287 54.8424C41.5448 54.8456 41.4582 54.8473 41.3689 54.8473H41.3266L41.3235 54.8473C41.2331 54.8468 41.1456 54.8446 41.0608 54.8408C39.7768 54.7828 39.1069 54.3642 38.4005 53.9228L38.4002 53.9226L38.3996 53.9222C38.0436 53.6995 37.682 53.4735 37.2417 53.2925C36.7168 53.0768 36.0801 52.9252 35.2077 52.9199H35.1627C33.5892 52.9199 32.7843 53.4099 32.0056 53.884L32.0043 53.8848L32.0031 53.8855C31.2515 54.3429 30.5412 54.7752 29.1094 54.7752H29.0667C28.8938 54.7742 28.7304 54.7649 28.5753 54.7482C27.6532 54.6491 27.025 54.2926 26.4481 53.9107L26.4459 53.9093C26.7219 54.269 27.0102 54.619 27.311 54.9588L27.313 54.9596C27.7951 55.1515 28.3602 55.2833 29.0635 55.2875H29.1089C29.8941 55.2875 30.4879 55.1655 30.9825 54.9844C31.4789 54.8026 31.8755 54.5613 32.2653 54.324L32.2669 54.3231C32.5257 54.1654 32.7796 54.0107 33.0597 53.8757C33.5936 53.6183 34.2225 53.4322 35.1618 53.4322H35.204C36.6646 53.4409 37.3768 53.886 38.1305 54.3569L38.131 54.3573C38.9116 54.8455 39.7187 55.3499 41.323 55.3596H41.368C42.4645 55.3596 43.1879 55.1217 43.7892 54.817C43.8087 54.8071 43.8281 54.7971 43.8474 54.7871C44.0868 54.6625 44.3076 54.528 44.5264 54.3947L44.5268 54.3945C44.7808 54.2397 45.0301 54.0878 45.3041 53.9546C45.841 53.6935 46.4729 53.5038 47.4213 53.5038H47.4635C48.9237 53.5126 49.6358 53.9574 50.3897 54.4282L50.391 54.4289C50.4795 54.4844 50.5685 54.54 50.6589 54.5951C51.3651 55.0253 52.1612 55.4227 53.5834 55.4313H53.6283H53.6294L53.6297 55.4327C55.2037 55.4327 56.009 54.9424 56.788 54.4681L56.7886 54.4678C57.1768 54.231 57.5549 54.0017 58.0266 53.8348L58.0192 53.8356L58.0278 53.8325C58.1334 53.6952 58.2381 53.557 58.34 53.4164C58.3993 53.3346 58.4576 53.2528 58.514 53.1709C58.4607 53.1816 58.4083 53.193 58.3571 53.205C57.6227 53.3759 57.0991 53.6786 56.5993 53.9821C56.574 53.9974 56.5488 54.0128 56.5237 54.0281C56.0476 54.3181 55.5881 54.598 54.9516 54.7644C55.5884 54.5981 56.048 54.3182 56.5241 54.0281C56.5494 54.0128 56.5746 53.9974 56.5999 53.982L58.0192 53.8356C57.5508 54.0027 57.1742 54.2307 56.7872 54.4664L56.7866 54.4668C56.0078 54.9409 55.2027 55.431 53.6294 55.4313L53.6293 55.4308H53.5843C52.1624 55.4226 51.3667 55.0251 50.6604 54.5949L51.5548 54.5026C52.0188 54.7187 52.5631 54.8785 53.3212 54.9124C53.4048 54.9162 53.491 54.9184 53.58 54.919C52.6846 54.9127 52.0709 54.7422 51.5559 54.5025ZM53.6499 54.919C53.656 54.919 53.6621 54.9189 53.6681 54.9189C53.6549 54.919 53.6417 54.919 53.6283 54.919C53.6356 54.919 53.6427 54.919 53.6499 54.919Z" fill="#3C3F2B"/>
<path d="M53.5843 55.4308H53.6293L53.6294 55.4313C55.2027 55.431 56.0078 54.9409 56.7866 54.4668L56.7872 54.4664C57.1742 54.2307 57.5508 54.0027 58.0192 53.8356L56.5999 53.982C56.5746 53.9974 56.5494 54.0128 56.5241 54.0281C56.048 54.3182 55.5884 54.5981 54.9516 54.7644C54.8862 54.7815 54.8188 54.7974 54.7494 54.812C54.5862 54.8463 54.4116 54.8733 54.2227 54.8916C54.0504 54.9083 53.8662 54.9178 53.6681 54.9189L53.6499 54.919C53.643 54.919 53.6362 54.919 53.6293 54.919L53.6288 54.919L53.6283 54.919H53.587L53.5866 54.919L53.5847 54.919L53.5838 54.919L53.58 54.919C53.491 54.9184 53.4048 54.9162 53.3212 54.9124C52.5631 54.8785 52.0188 54.7187 51.5548 54.5026L50.6604 54.5949C51.3667 55.0251 52.1624 55.4226 53.5843 55.4308Z" fill="#3C3F2B"/>
<path d="M47 77L42 82L37 77" stroke="#3C3F2B" stroke-width="3" stroke-linecap="square" stroke-linejoin="round"/>
</g>
<defs>
<filter id="filter0_d_366_3491" x="0" y="0" width="84" height="93.5" filterUnits="userSpaceOnUse" color-interpolation-filters="sRGB">
<feFlood flood-opacity="0" result="BackgroundImageFix"/>
<feColorMatrix in="SourceAlpha" type="matrix" values="0 0 0 0 0 0 0 0 0 0 0 0 0 0 0 0 0 0 127 0" result="hardAlpha"/>
<feOffset/>
<feGaussianBlur stdDeviation="5"/>
<feComposite in2="hardAlpha" operator="out"/>
<feColorMatrix type="matrix" values="0 0 0 0 0 0 0 0 0 0 0 0 0 0 0 0 0 0 0.25 0"/>
<feBlend mode="normal" in2="BackgroundImageFix" result="effect1_dropShadow_366_3491"/>
<feBlend mode="normal" in="SourceGraphic" in2="effect1_dropShadow_366_3491" result="shape"/>
</filter>
</defs>
</svg>
