<svg width="91" height="100" viewBox="0 0 91 100" fill="none" xmlns="http://www.w3.org/2000/svg">
<path d="M31.3044 32.6853C31.2348 32.6853 31.1644 32.6674 31.0999 32.6295C30.9036 32.5157 30.8369 32.2634 30.9503 32.067L42.8231 11.4169C42.8965 11.2897 43.0321 11.2108 43.178 11.2108C43.324 11.2108 43.4603 11.2889 43.5329 11.4169L55.1732 31.6638C55.2865 31.8609 55.2191 32.1132 55.0235 32.2262C54.8264 32.3401 54.576 32.2724 54.4634 32.076L43.178 12.4474L31.6608 32.4799C31.5852 32.6124 31.4467 32.686 31.3051 32.686L31.3044 32.6853Z" fill="white"/>
<path d="M58.1842 32.4108C58.0427 32.4108 57.9041 32.3371 57.8285 32.2047L46.0831 11.7778C45.9697 11.5806 46.0372 11.3284 46.2327 11.2153C46.4298 11.1007 46.6802 11.1691 46.7929 11.3656L58.5383 31.7925C58.6517 31.9896 58.5843 32.2419 58.3887 32.355C58.3242 32.3922 58.2531 32.4108 58.1842 32.4108Z" fill="white"/>
<path d="M61.2974 32.4108C61.1559 32.4108 61.0174 32.3371 60.9418 32.2047L49.1963 11.7778C49.083 11.5806 49.1504 11.3284 49.346 11.2153C49.5431 11.1007 49.7935 11.1691 49.9061 11.3656L61.6516 31.7925C61.7649 31.9896 61.6975 32.2419 61.5019 32.355C61.4374 32.3922 61.3663 32.4108 61.2974 32.4108Z" fill="white"/>
<path d="M28.9728 32.4108C28.7461 32.4108 28.5623 32.2262 28.5623 31.9986V17.5945L25.641 21.1955C25.498 21.3718 25.2394 21.3986 25.0638 21.255C24.8882 21.1114 24.8616 20.8517 25.0046 20.6754L28.655 16.1764C28.7646 16.041 28.9484 15.9904 29.1106 16.0484C29.2743 16.1072 29.3833 16.2627 29.3833 16.4368V31.9986C29.3833 32.2262 29.1995 32.4108 28.9728 32.4108Z" fill="white"/>
<path d="M25.3765 25.6484C25.2854 25.6484 25.1935 25.6179 25.1179 25.5562C24.9423 25.4126 24.9156 25.1529 25.0586 24.9766L28.6009 20.6122C28.7439 20.4358 29.0024 20.4091 29.178 20.5527C29.3536 20.6963 29.3803 20.9559 29.2373 21.1322L25.6951 25.4966C25.6136 25.5963 25.4958 25.6484 25.3765 25.6484Z" fill="white"/>
<path d="M32.5691 25.6484C32.4498 25.6484 32.332 25.5971 32.2505 25.4966L28.7083 21.1322C28.5653 20.9559 28.5912 20.6963 28.7676 20.5527C28.9432 20.4091 29.2017 20.4351 29.3447 20.6122L32.887 24.9766C33.03 25.1529 33.004 25.4126 32.8277 25.5562C32.7514 25.6187 32.6595 25.6484 32.5691 25.6484Z" fill="white"/>
<path d="M25.3765 30.0842C25.2854 30.0842 25.1935 30.0537 25.1179 29.992C24.9423 29.8484 24.9156 29.5887 25.0586 29.4124L28.6009 25.0487C28.7439 24.8724 29.0024 24.8456 29.178 24.9892C29.3536 25.1328 29.3803 25.3925 29.2373 25.5688L25.6951 29.9324C25.6136 30.0321 25.4958 30.0842 25.3765 30.0842Z" fill="white"/>
<path d="M32.6084 30.0842C32.4891 30.0842 32.3713 30.0329 32.2898 29.9324L28.7476 25.5688C28.6046 25.3925 28.6305 25.1328 28.8068 24.9892C28.9824 24.8456 29.241 24.8717 29.384 25.0487L32.9262 29.4124C33.0692 29.5887 33.0433 29.8484 32.867 29.992C32.7906 30.0545 32.6988 30.0842 32.6084 30.0842Z" fill="white"/>
<path d="M32.6232 21.348C32.5039 21.348 32.3861 21.2959 32.3046 21.1962L28.6542 16.6972C28.5112 16.5208 28.5379 16.2612 28.7135 16.1176C28.8891 15.974 29.1476 16.0008 29.2906 16.1771L32.941 20.6762C33.084 20.8525 33.0574 21.1122 32.8818 21.2557C32.8055 21.3182 32.7136 21.348 32.6232 21.348Z" fill="white"/>
<path d="M63.7839 32.4108C63.5572 32.4108 63.3734 32.2262 63.3734 31.9986V17.5945L60.4521 21.1955C60.3091 21.3718 60.0505 21.3986 59.8749 21.255C59.6993 21.1114 59.6726 20.8517 59.8156 20.6754L63.4653 16.1764C63.5749 16.041 63.7579 15.9904 63.9209 16.0484C64.0847 16.1072 64.1936 16.2627 64.1936 16.4368V31.9986C64.1936 32.2262 64.0098 32.4108 63.7831 32.4108H63.7839Z" fill="white"/>
<path d="M60.1876 25.6484C60.0964 25.6484 60.0046 25.6179 59.9282 25.5562C59.7526 25.4126 59.7267 25.1529 59.8697 24.9766L63.4119 20.6122C63.5549 20.4358 63.8135 20.4091 63.9891 20.5527C64.1647 20.6963 64.1914 20.9559 64.0484 21.1322L60.5061 25.4966C60.4246 25.5963 60.3068 25.6484 60.1876 25.6484Z" fill="white"/>
<path d="M67.3794 25.6484C67.2602 25.6484 67.1424 25.5971 67.0609 25.4966L63.5186 21.1322C63.3756 20.9559 63.4016 20.6963 63.5779 20.5527C63.7535 20.4091 64.0121 20.4351 64.1551 20.6122L67.6973 24.9766C67.8403 25.1529 67.8144 25.4126 67.638 25.5562C67.5617 25.6187 67.4698 25.6484 67.3794 25.6484Z" fill="white"/>
<path d="M60.1876 30.0842C60.0964 30.0842 60.0046 30.0537 59.9282 29.992C59.7526 29.8484 59.7267 29.5887 59.8697 29.4124L63.4119 25.0487C63.5549 24.8724 63.8135 24.8456 63.9891 24.99C64.1647 25.1335 64.1906 25.3932 64.0476 25.5695L60.5054 29.9332C60.4239 30.0329 60.3061 30.085 60.1868 30.085L60.1876 30.0842Z" fill="white"/>
<path d="M67.4195 30.0842C67.3002 30.0842 67.1824 30.0329 67.1009 29.9324L63.5586 25.5688C63.4156 25.3925 63.4416 25.1328 63.6179 24.9892C63.7935 24.8456 64.0521 24.8717 64.1951 25.0487L67.7373 29.4124C67.8803 29.5887 67.8544 29.8484 67.678 29.992C67.6017 30.0545 67.5098 30.0842 67.4195 30.0842Z" fill="white"/>
<path d="M67.4335 21.348C67.3143 21.348 67.1964 21.2959 67.115 21.1962L63.4645 16.6972C63.3216 16.5208 63.3482 16.2612 63.5238 16.1176C63.6994 15.974 63.958 16.0008 64.101 16.1771L67.7514 20.6762C67.8944 20.8525 67.8677 21.1122 67.6921 21.2557C67.6158 21.3182 67.5239 21.348 67.4335 21.348Z" fill="white"/>
<path d="M45.071 32.5015C44.8443 32.5015 44.6606 32.317 44.6606 32.0893V26.0241H41.5495V31.9986C41.5495 32.2262 41.3658 32.4108 41.1391 32.4108C40.9124 32.4108 40.7286 32.2262 40.7286 31.9986V25.612C40.7286 25.3843 40.9124 25.1998 41.1391 25.1998H45.0703C45.297 25.1998 45.4807 25.3843 45.4807 25.612V32.0893C45.4807 32.317 45.297 32.5015 45.0703 32.5015H45.071Z" fill="white"/>
<path d="M24.5926 47.4778C24.6171 47.4778 24.6408 47.4778 24.6652 47.4778C27.2058 47.4778 28.5045 46.6884 29.7619 45.925C30.9754 45.1877 32.1216 44.4913 34.4332 44.4913C34.4562 44.4913 34.4792 44.4913 34.5014 44.4913C36.8589 44.5055 38.008 45.2219 39.2246 45.9801C40.4841 46.7658 41.7866 47.5775 44.3753 47.5931C44.3998 47.5931 44.4235 47.5931 44.4479 47.5931C46.9885 47.5931 48.288 46.8037 49.5446 46.0404C50.7581 45.303 51.9043 44.6066 54.2159 44.6066C54.2389 44.6066 54.2619 44.6066 54.2841 44.6066C56.6416 44.6208 57.7907 45.3373 59.008 46.0954C60.2676 46.8811 61.5708 47.6928 64.1595 47.7084C64.184 47.7084 64.2077 47.7084 64.2321 47.7084C66.7727 47.7084 68.0722 46.919 69.3295 46.1557C70.5431 45.4184 71.69 44.722 74.0016 44.722C74.0253 44.722 74.052 44.7242 74.0727 44.722C74.298 44.722 74.4817 44.5389 74.4832 44.3128C74.4846 44.0851 74.3017 43.8998 74.0757 43.8983C74.0512 43.8983 74.0275 43.8983 74.0031 43.8983C71.4625 43.8983 70.163 44.6877 68.9057 45.4511C67.6921 46.1884 66.5452 46.8848 64.2336 46.8848C64.2106 46.8848 64.1884 46.8848 64.1654 46.8848C61.8079 46.8707 60.6588 46.1542 59.4415 45.396C58.1819 44.6104 56.8787 43.7986 54.29 43.783C51.6976 43.7726 50.3892 44.565 49.1208 45.335C47.9072 46.0724 46.761 46.7687 44.4494 46.7687C44.4264 46.7687 44.4035 46.7687 44.3812 46.7687C42.0237 46.7546 40.8746 46.0381 39.658 45.28C38.3985 44.4943 37.096 43.6826 34.5073 43.667C31.9127 43.6543 30.6065 44.4489 29.3381 45.219C28.1245 45.9563 26.9783 46.6527 24.6667 46.6527C24.6437 46.6527 24.6208 46.6527 24.5985 46.6527C22.4055 46.64 21.1548 45.7933 19.9464 44.9749C18.8395 44.2257 17.7015 43.4601 15.9397 43.4318C16.0004 43.5978 16.0604 43.7622 16.1286 43.9318C16.1745 44.0457 16.2249 44.1565 16.2716 44.2696C17.5896 44.3782 18.4913 44.9831 19.4871 45.6579C20.7362 46.5039 22.1514 47.4622 24.5934 47.477L24.5926 47.4778Z" fill="white"/>
<path d="M64.2336 52.9761C64.2106 52.9761 64.1877 52.9761 64.1654 52.9761C61.8079 52.9619 60.6588 52.2454 59.4415 51.4873C58.1819 50.7016 56.8787 49.8899 54.29 49.8743C54.2656 49.8743 54.2419 49.8743 54.2174 49.8743C51.6769 49.8743 50.3773 50.6637 49.1208 51.427C47.9072 52.1643 46.761 52.8607 44.4494 52.8607C44.4264 52.8607 44.4035 52.8607 44.3812 52.8607C42.0237 52.8466 40.8746 52.1301 39.658 51.372C38.3985 50.5863 37.096 49.7746 34.5073 49.7589C34.4829 49.7589 34.4591 49.7589 34.4347 49.7589C31.8942 49.7589 30.5954 50.5483 29.3381 51.3117C28.1245 52.0483 26.9783 52.7447 24.6667 52.7447C24.6437 52.7447 24.6208 52.7447 24.5978 52.7447C22.6581 52.7335 21.4571 52.0699 20.3688 51.3511C20.814 51.93 21.2793 52.4932 21.7646 53.04C22.5433 53.3496 23.4561 53.5623 24.5926 53.569C24.6171 53.569 24.6415 53.569 24.666 53.569C27.2065 53.569 28.5053 52.7796 29.7619 52.017C30.9754 51.2797 32.1224 50.5833 34.4332 50.5833C34.4562 50.5833 34.4784 50.5833 34.5014 50.5833C36.8589 50.5974 38.008 51.3139 39.2246 52.0721C40.4841 52.8578 41.7866 53.6695 44.3753 53.6851C44.3998 53.6851 44.4235 53.6851 44.4479 53.6851C46.9885 53.6851 48.288 52.8957 49.5446 52.1323C50.7581 51.395 51.9043 50.6986 54.2159 50.6986C54.2389 50.6986 54.2619 50.6986 54.2841 50.6986C56.6416 50.7128 57.7907 51.4293 59.008 52.1874C60.2676 52.9731 61.5708 53.7848 64.1595 53.8004C64.184 53.8004 64.2077 53.8004 64.2321 53.8004C66.7727 53.8004 68.0722 53.011 69.3295 52.2477C69.9578 51.866 70.569 51.497 71.3314 51.2276C71.5018 51.0067 71.6707 50.7842 71.8352 50.558C71.9308 50.4263 72.0249 50.2946 72.116 50.1629C70.7335 50.4367 69.8044 50.9955 68.9042 51.5423C67.6906 52.2797 66.5437 52.9761 64.2321 52.9761H64.2336Z" fill="white"/>
<path d="M54.29 55.9633C51.6976 55.9417 50.3892 56.7445 49.1208 57.5153C47.9072 58.2526 46.761 58.949 44.4494 58.949C44.4264 58.949 44.4035 58.949 44.3812 58.949C42.0237 58.9349 40.8746 58.2184 39.658 57.4602C38.3985 56.6746 37.096 55.8628 34.5073 55.8472C31.9127 55.8234 30.6065 56.6284 29.3381 57.3992C28.8254 57.7102 28.3245 58.0138 27.7429 58.2608C28.0119 58.4416 28.2823 58.6202 28.5557 58.792C28.9847 58.5755 29.3758 58.3389 29.7626 58.1038C30.9762 57.3665 32.1224 56.6701 34.434 56.6701C34.4569 56.6701 34.4799 56.6701 34.5021 56.6701C36.8596 56.6842 38.0088 57.4007 39.2253 58.1589C40.4849 58.9445 41.7874 59.7563 44.3761 59.7719C46.9692 59.792 48.2769 58.9907 49.5453 58.2199C50.7589 57.4826 51.9051 56.7862 54.2167 56.7862C54.2389 56.7862 54.2626 56.7862 54.2848 56.7862C56.6424 56.8003 57.7915 57.5168 59.0088 58.2749C59.7823 58.757 60.5736 59.2488 61.6679 59.5606C62.0205 59.3634 62.3688 59.1588 62.714 58.949C61.2767 58.7161 60.378 58.1589 59.4422 57.5748C58.1827 56.7899 56.8794 55.9774 54.2908 55.9618L54.29 55.9633Z" fill="white"/>
<path d="M76.9311 25.3977C76.7763 23.708 76.3206 21.8867 75.6138 20.1301C73.2481 14.2523 69.2376 9.24141 64.0158 5.63889C58.6687 1.94932 52.4 0 45.8882 0H44.4976C34.2976 0 24.5726 4.98192 18.4824 13.3268C15.1595 17.8802 14.4386 22.7229 16.5057 26.6134C18.3439 30.0731 22.2017 32.3676 26.5738 32.6012C30.5961 32.8155 34.7155 32.7411 38.6993 32.6697C40.6968 32.6332 42.7624 32.596 44.7806 32.596L46.4921 32.5997C48.4251 32.5968 50.3981 32.5611 52.3059 32.5268C56.2727 32.4554 60.375 32.381 64.3662 32.5945C68.3108 32.8051 71.7945 34.7983 73.5645 37.8205C73.7075 37.8153 73.8541 37.8116 74.0053 37.8116C74.0297 37.8116 74.0535 37.8116 74.0779 37.8116C74.3046 37.813 74.4869 37.9983 74.4854 38.226C74.4839 38.4529 74.3009 38.6352 74.0749 38.6352C74.0549 38.6389 74.0283 38.6352 74.0038 38.6352C73.9994 38.6352 73.9957 38.6352 73.992 38.6352C75.5449 42.0376 74.8744 46.1854 72.119 50.1629C72.4516 50.0967 72.8095 50.0469 73.2007 50.0186C75.9138 45.7718 76.3895 41.3575 74.4772 37.7587C72.6391 34.2991 68.7812 32.0045 64.4092 31.7709C60.3891 31.5566 56.2719 31.6303 52.2911 31.7025C50.3862 31.7367 48.4169 31.7724 46.4921 31.7754L44.7813 31.7716C42.755 31.7716 40.6856 31.8088 38.6845 31.8453C34.7148 31.9167 30.6102 31.9911 26.6175 31.7783C22.5307 31.5604 18.9336 29.4325 17.2296 26.2258C15.3173 22.6262 16.0152 18.1019 19.1448 13.8141C25.0809 5.68055 34.5584 0.824369 44.4976 0.824369H45.8882C52.234 0.824369 58.342 2.72458 63.5512 6.31892C68.6405 9.82992 72.5487 14.7129 74.8536 20.4403C75.5308 22.1225 75.9664 23.8635 76.1154 25.4743C76.1361 25.7012 76.3413 25.8724 76.5614 25.8471C76.7874 25.8262 76.9533 25.6253 76.9326 25.3992L76.9311 25.3977Z" fill="white"/>
<path d="M73.5622 37.8197C71.3084 37.9053 70.0882 38.6456 68.9064 39.3636C67.6928 40.1009 66.5459 40.7973 64.2343 40.7973C64.2114 40.7973 64.1884 40.7973 64.1654 40.7973C61.8079 40.7832 60.6588 40.0667 59.4415 39.3085C58.1819 38.5228 56.8787 37.7111 54.29 37.6955C54.2656 37.6955 54.2411 37.6955 54.2167 37.6955C51.6761 37.6955 50.3773 38.4849 49.1208 39.2475C47.9072 39.9848 46.7603 40.6812 44.4494 40.6812C44.4264 40.6812 44.4042 40.6812 44.3812 40.6812C42.0237 40.6671 40.8746 39.9506 39.658 39.1925C38.3985 38.4068 37.096 37.5951 34.5073 37.5794C31.9127 37.5608 30.6065 38.3614 29.3381 39.1314C28.1245 39.8688 26.9783 40.5652 24.6667 40.5652C24.6437 40.5652 24.6208 40.5652 24.5985 40.5652C22.4055 40.5525 21.1548 39.7058 19.9457 38.8874C18.5343 37.9314 17.0732 36.9418 14.3304 37.5028C14.1082 37.5482 13.9644 37.7654 14.0096 37.9886C14.0296 38.0891 14.0867 38.1724 14.1615 38.2304C14.2252 38.1657 14.3097 38.1196 14.4075 38.1092C14.552 38.0921 14.6868 38.1545 14.7713 38.2609C16.9925 37.8874 18.1542 38.6679 19.4863 39.5704C20.7355 40.4163 22.1514 41.3746 24.5926 41.3895C27.1828 41.4126 28.4934 40.6083 29.7619 39.8375C30.9754 39.1002 32.1216 38.4038 34.4332 38.4038C34.4562 38.4038 34.4792 38.4038 34.5014 38.4038C36.8589 38.4179 38.008 39.1344 39.2246 39.8926C40.4841 40.6782 41.7866 41.49 44.3753 41.5056C46.9685 41.5309 48.2761 40.7244 49.5446 39.9536C50.7581 39.2163 51.9043 38.5199 54.2159 38.5199C54.2389 38.5199 54.2619 38.5199 54.2848 38.5199C56.6424 38.534 57.7915 39.2505 59.0088 40.0086C60.2683 40.7936 61.5716 41.606 64.1602 41.6209C64.1847 41.6209 64.2091 41.6209 64.2336 41.6209C66.7741 41.6209 68.0737 40.8315 69.3302 40.0689C70.5416 39.3331 71.687 38.6382 73.9905 38.6359C73.9156 38.4715 73.8371 38.3086 73.7519 38.1479C73.6926 38.0363 73.626 37.9299 73.5622 37.8205V37.8197Z" fill="white"/>
<path d="M14.1615 38.229C14.0778 38.3138 14.0304 38.4336 14.0445 38.5623C14.2319 40.2765 14.4897 41.801 15.0787 43.4757C15.3818 43.4423 15.6678 43.4281 15.9389 43.4326C15.3158 41.7377 15.0491 40.2058 14.8602 38.4722C14.8513 38.3911 14.8187 38.319 14.772 38.2594C14.6801 38.2751 14.5898 38.2892 14.4942 38.3086C14.3727 38.3331 14.2534 38.2996 14.1623 38.229H14.1615Z" fill="white"/>
<path d="M20.3688 51.3489C18.7091 49.1913 17.3303 46.8171 16.2709 44.2703C15.9938 44.2473 15.6989 44.245 15.3795 44.2703C16.2219 46.3588 17.2762 48.3349 18.515 50.1793C19.0248 50.4419 19.4878 50.7544 19.9457 51.0639C20.0857 51.1584 20.2265 51.2537 20.3695 51.3482L20.3688 51.3489Z" fill="white"/>
<path d="M27.4295 58.0532C25.3291 56.6039 23.4331 54.9179 21.7646 53.0378C21.0096 52.738 20.3813 52.3474 19.802 51.9605C21.7653 54.4901 24.1051 56.7251 26.7671 58.5911C27.122 58.5004 27.4436 58.3888 27.7429 58.2608C27.6392 58.1909 27.5332 58.1246 27.4295 58.0532Z" fill="white"/>
<path d="M45.0933 63.5478C39.1987 63.5478 33.5108 61.9057 28.5557 58.792C28.2734 58.9341 27.9733 59.0673 27.6473 59.1841C32.8425 62.5776 38.8549 64.3714 45.0933 64.3714H46.4839C52.3014 64.3714 57.9641 62.7479 62.8867 59.8069C62.4391 59.7503 62.0361 59.6655 61.6686 59.5613C57.0624 62.1349 51.8406 63.5478 46.4847 63.5478H45.0933Z" fill="white"/>
<path d="M62.714 58.9498C63.12 59.0152 63.569 59.0554 64.0743 59.0621C67.2972 56.9431 70.1652 54.2424 72.4991 51.0446C72.5302 51.0014 72.5598 50.9583 72.5909 50.9151C72.1212 50.9873 71.7085 51.0944 71.3329 51.2269C68.9294 54.3436 65.994 56.9484 62.714 58.949V58.9498Z" fill="white"/>
<path d="M14.4927 38.3086C14.5883 38.2892 14.6787 38.2751 14.7705 38.2594C14.6853 38.1531 14.5505 38.0906 14.4068 38.1077C14.309 38.1181 14.2252 38.1642 14.1608 38.229C14.2519 38.2996 14.3712 38.3339 14.4927 38.3086Z" fill="white"/>
<path d="M73.9905 38.6352C73.9949 38.6352 73.9986 38.6352 74.0023 38.6352C74.026 38.6352 74.0527 38.6396 74.0735 38.6352C74.2987 38.6352 74.4824 38.4522 74.4839 38.226C74.4854 37.9983 74.3024 37.813 74.0764 37.8116C74.052 37.8116 74.0283 37.8116 74.0038 37.8116C73.8519 37.8116 73.706 37.8145 73.563 37.8205C73.6267 37.9291 73.6934 38.0362 73.7526 38.1478C73.8379 38.3086 73.9164 38.4715 73.9912 38.6359L73.9905 38.6352Z" fill="white"/>
<path d="M16.2709 44.2703C16.2242 44.1573 16.1731 44.0464 16.1279 43.9326C16.0597 43.7637 15.9997 43.5985 15.9389 43.4326C15.6678 43.4281 15.3818 43.4423 15.0787 43.4757C15.1677 43.7272 15.2625 43.9817 15.367 44.2413C15.3707 44.251 15.3751 44.2607 15.3795 44.2711C15.6989 44.2458 15.9938 44.248 16.2709 44.2711V44.2703Z" fill="white"/>
<path d="M20.3688 51.3489C20.2265 51.2544 20.085 51.1599 19.945 51.0647C19.4878 50.7552 19.024 50.4427 18.5143 50.1801C18.9233 50.7887 19.353 51.3824 19.802 51.9605C20.3806 52.3474 21.0096 52.738 21.7646 53.0378C21.2793 52.491 20.814 51.9277 20.3688 51.3489Z" fill="white"/>
<path d="M71.8367 50.558C71.6715 50.7842 71.5033 51.0067 71.3329 51.2276C71.7078 51.0952 72.1212 50.9881 72.5909 50.9159C72.805 50.6175 73.008 50.3184 73.1992 50.0186C72.808 50.0469 72.4501 50.0975 72.1175 50.1629C72.0264 50.2946 71.933 50.4263 71.8367 50.558Z" fill="white"/>
<path d="M61.6679 59.5621C62.0361 59.667 62.4384 59.751 62.8859 59.8076C63.2867 59.568 63.6831 59.3195 64.0736 59.0628C63.5683 59.0561 63.1193 59.016 62.7133 58.9505C62.368 59.1611 62.0198 59.3657 61.6671 59.5621H61.6679Z" fill="white"/>
<path d="M27.7429 58.2608C27.4436 58.388 27.122 58.5004 26.7671 58.5911C26.8338 58.638 26.8983 58.6864 26.965 58.7325C27.1902 58.888 27.4191 59.0353 27.6473 59.1841C27.9733 59.0673 28.2734 58.9341 28.5557 58.792C28.2823 58.6202 28.0119 58.4416 27.7429 58.2608Z" fill="white"/>
<path d="M74.8996 44.7681C74.8803 44.7681 74.8603 44.7666 74.8403 44.7636C74.6158 44.7309 74.3372 44.7182 73.9868 44.7234C73.9846 44.7234 73.9823 44.7234 73.9801 44.7234C73.7564 44.7234 73.5733 44.5434 73.5696 44.318C73.5659 44.0903 73.7467 43.9028 73.9734 43.8991C74.3669 43.8924 74.6891 43.9088 74.9573 43.9474C75.1818 43.9802 75.3367 44.1893 75.3048 44.4139C75.2752 44.6193 75.0996 44.7666 74.8996 44.7666V44.7681Z" fill="white"/>
<path d="M14.0015 37.9098L14.0437 38.5623L14.8594 38.4722L14.8313 38.2104" fill="white"/>
<path d="M5.00254 88.871V75.7511H0.136323V75.1484H10.4948V75.7511H5.6286V88.871H5.00254Z" fill="white"/>
<path d="M4.86621 89.0079V75.888H0V75.01H10.6319V75.888H5.76567V89.0079H4.86621ZM5.13961 88.7334H5.49153V75.6134H10.3577V75.2853H0.273391V75.6134H5.13961V88.7334Z" fill="white"/>
<path d="M24.2333 74.9401H24.5267V88.871H23.9014V76.3329L14.892 89.0786H14.5986V75.1477H15.224V87.6858L24.2333 74.9401Z" fill="white"/>
<path d="M14.9624 89.2163H14.4616V75.0108H15.3603V87.255L24.1622 74.8025H24.663V89.0079H23.7643V76.7637L14.9624 89.2163ZM14.7357 88.9417H14.8217L24.0384 75.9029V88.7341H24.3903V75.0778H24.3044L15.0876 88.1166V75.2853H14.7357V88.9417Z" fill="white"/>
<path d="M30.116 88.871V75.1477H30.7413V88.2676H37.2686V75.1477H37.8939V88.2676H44.4212V75.1477H45.0466V88.871H30.1153H30.116Z" fill="white"/>
<path d="M45.1836 89.0079H29.9789V75.01H30.8776V88.13H37.1316V75.01H38.0303V88.13H44.2842V75.01H45.1829V89.0079H45.1836ZM44.9103 88.7334V75.2853H44.5583V88.4053H37.7569V75.2853H37.405V88.4053H30.6035V75.2853H30.2516V88.7334H44.9103Z" fill="white"/>
<path d="M60.2713 74.9401H60.5647V88.871H59.9394V76.3329L50.93 89.0786H50.6366V75.1477H51.262V87.6858L60.2713 74.9401Z" fill="white"/>
<path d="M51.0004 89.2163H50.5003V75.0108H51.399V87.255L60.2009 74.8025H60.7017V89.0079H59.803V76.7637L51.0004 89.2163ZM50.7737 88.9417H50.8597L60.0764 75.9029V88.7341H60.4283V75.0778H60.3424L51.1256 88.1166V75.2853H50.7737V88.9417Z" fill="white"/>
<path d="M66.154 88.871V75.1477H66.7793V81.0946H75.2611V75.1477H75.8864V88.871H75.2611V81.698H66.7793V88.871H66.154Z" fill="white"/>
<path d="M76.0235 89.0079H75.1248V81.8349H66.9164V89.0079H66.0177V75.01H66.9164V80.9569H75.1248V75.01H76.0235V89.0079ZM75.3982 88.7334H75.7501V75.2853H75.3982V81.2322H66.643V75.2853H66.2911V88.7334H66.643V81.5603H75.3982V88.7334Z" fill="white"/>
<path d="M90.1532 88.871L88.7262 85.2321H81.6121L80.2051 88.871H79.5605L85.0328 74.9401H85.3262L90.7985 88.871H90.1532ZM85.1691 76.1045L81.847 84.6294H88.4921L85.1699 76.1045H85.1691Z" fill="white"/>
<path d="M90.0605 89.0079L88.6336 85.369H81.7062L80.2992 89.0079H79.3598L84.9402 74.8025H85.4196L91 89.0079H90.0605ZM90.2465 88.7334H90.597L85.2329 75.077H85.1262L79.7621 88.7334H80.1125L81.5195 85.0944H88.8203L90.2472 88.7334H90.2465ZM88.6928 84.7663H81.6469L85.1699 75.7273L88.6928 84.7663ZM82.0477 84.4918H88.292L85.1699 76.481L82.0477 84.4918Z" fill="white"/>
<path d="M25.9114 97.0106C25.9114 97.4942 25.7714 97.9063 25.4913 98.2464C25.2113 98.5864 24.8712 98.7567 24.4726 98.7567C23.991 98.7567 23.6146 98.5149 23.3442 98.0313L23.6487 97.7367C23.8673 98.0931 24.1399 98.2709 24.4674 98.2709C24.723 98.2709 24.9431 98.1705 25.1275 97.9696C25.312 97.7732 25.4209 97.518 25.455 97.2025H24.2696V96.7368H25.4432C25.3943 96.4496 25.2802 96.2144 25.1016 96.0314C24.9231 95.8491 24.7112 95.7576 24.4667 95.7576C24.1355 95.7576 23.8606 95.9377 23.6428 96.2985L23.3383 95.9972C23.6057 95.5136 23.9836 95.2718 24.4726 95.2718C24.8675 95.2629 25.2083 95.4318 25.4943 95.7785C25.7803 96.1252 25.9196 96.5359 25.9122 97.0106H25.9114Z" fill="white"/>
<path d="M24.4726 98.7679C23.9888 98.7679 23.6057 98.5216 23.3338 98.0365L23.3294 98.0291L23.6509 97.7188L23.6583 97.7308C23.8732 98.0812 24.1451 98.259 24.4667 98.259C24.7178 98.259 24.9371 98.1586 25.1186 97.9614C25.2979 97.7702 25.4069 97.5187 25.4417 97.2137H24.2577V96.7256H25.4291C25.3794 96.4481 25.2668 96.2174 25.0935 96.0396C24.9179 95.8603 24.7067 95.7695 24.4667 95.7695C24.1414 95.7695 23.8673 95.9496 23.6524 96.3052L23.645 96.3179L23.3235 96.0002L23.3279 95.9927C23.5961 95.5076 23.9806 95.2614 24.4726 95.2614C24.869 95.251 25.2157 95.4243 25.5032 95.7718C25.7892 96.1192 25.9307 96.5366 25.9233 97.0113C25.9233 97.4956 25.781 97.9138 25.5002 98.2545C25.2187 98.596 24.8734 98.7687 24.4726 98.7687V98.7679ZM23.3583 98.0328C23.6257 98.5053 24.0006 98.7449 24.4726 98.7449C24.866 98.7449 25.2061 98.5745 25.4824 98.2389C25.7595 97.9026 25.9003 97.4897 25.9003 97.0106C25.9077 96.5403 25.7684 96.1289 25.4854 95.7852C25.2105 95.4511 24.8793 95.2822 24.5022 95.2822C24.4926 95.2822 24.4822 95.2822 24.4726 95.2822C23.9925 95.2822 23.6154 95.5218 23.3524 95.9942L23.6406 96.2792C23.8591 95.925 24.137 95.745 24.4667 95.745C24.7134 95.745 24.9297 95.838 25.1098 96.0225C25.2891 96.2063 25.4054 96.4451 25.4543 96.7338L25.4565 96.7472H24.2807V97.1899H25.4669L25.4654 97.2025C25.4313 97.5187 25.3202 97.7784 25.135 97.9755C24.949 98.1779 24.7245 98.2806 24.4667 98.2806C24.1399 98.2806 23.8643 98.1035 23.6457 97.7531L23.3575 98.0313L23.3583 98.0328Z" fill="white"/>
<path d="M27.9148 98.6809V95.3469H28.3497V98.6809H27.9148ZM28.9365 96.8595L30.2286 98.6809H29.6811L28.4053 96.8736L29.5626 95.3469H30.1041L28.9357 96.8603L28.9365 96.8595Z" fill="white"/>
<path d="M30.2508 98.6928H29.6752L29.6715 98.6883L28.3912 96.8736L28.3964 96.867L29.5566 95.3358H30.1271L28.9498 96.8603L30.2501 98.6928H30.2508ZM29.687 98.6697H30.2064L28.9217 96.8595L30.0812 95.3581H29.5685L28.4201 96.8736L29.687 98.6697ZM28.3608 98.6928H27.9037V95.3358H28.3608V98.6928ZM27.9259 98.6697H28.3378V95.3581H27.9259V98.6697Z" fill="white"/>
<path d="M31.7808 97.0106C31.7734 96.5359 31.9134 96.1252 32.2016 95.7785C32.4891 95.4318 32.8292 95.2629 33.2204 95.2718C33.6153 95.2629 33.9561 95.4318 34.2421 95.7785C34.5281 96.1252 34.6673 96.5359 34.6599 97.0106C34.6673 97.4808 34.5266 97.89 34.2369 98.2397C33.9472 98.5886 33.6064 98.759 33.2152 98.7501C32.824 98.759 32.4854 98.5893 32.1994 98.2397C31.9134 97.8907 31.7741 97.4808 31.7815 97.0106H31.7808ZM34.2132 97.0172C34.2132 96.6616 34.1183 96.3625 33.9279 96.1207C33.7375 95.8789 33.5019 95.7576 33.2196 95.7576C32.9373 95.7576 32.701 95.8774 32.5113 96.117C32.3209 96.3566 32.2261 96.6564 32.2261 97.0172C32.2261 97.3781 32.3209 97.6645 32.5113 97.9041C32.701 98.1437 32.9351 98.2635 33.2137 98.2635C33.4923 98.2635 33.7279 98.1429 33.922 97.9004C34.1154 97.6586 34.2124 97.364 34.2124 97.0172H34.2132Z" fill="white"/>
<path d="M33.1848 98.7612C32.804 98.7612 32.4691 98.5879 32.1898 98.2464C31.903 97.8967 31.7623 97.4808 31.7697 97.0106C31.7623 96.5351 31.9045 96.1185 32.1927 95.771C32.4817 95.4228 32.8284 95.2502 33.2204 95.2606C33.2307 95.2606 33.2404 95.2606 33.2507 95.2606C33.6345 95.2606 33.9709 95.4325 34.251 95.7718C34.5377 96.1192 34.6784 96.5366 34.671 97.0113C34.6784 97.4815 34.5355 97.8974 34.245 98.2471C33.9613 98.5886 33.6249 98.762 33.2441 98.762C33.2344 98.762 33.2248 98.762 33.2144 98.762C33.2048 98.762 33.1944 98.762 33.1848 98.762V98.7612ZM33.1907 95.283C32.8166 95.283 32.4869 95.4518 32.2098 95.7859C31.9253 96.1289 31.7845 96.5411 31.7919 97.0106C31.7845 97.4763 31.9238 97.887 32.2068 98.2322C32.4817 98.5685 32.8106 98.7381 33.1848 98.7381C33.1944 98.7381 33.2041 98.7381 33.2137 98.7381C33.599 98.7478 33.9405 98.5767 34.2265 98.2322C34.5132 97.887 34.6547 97.4763 34.6473 97.0106C34.6547 96.5403 34.5155 96.1282 34.2324 95.7852C33.9501 95.4429 33.6101 95.274 33.2196 95.283C33.21 95.283 33.2004 95.283 33.19 95.283H33.1907ZM33.2144 98.2754C32.9336 98.2754 32.6943 98.1534 32.5032 97.9115C32.3128 97.6712 32.2157 97.3707 32.2157 97.018C32.2157 96.6653 32.3128 96.3514 32.5032 96.1103C32.6943 95.8692 32.9359 95.7465 33.2204 95.7465C33.5049 95.7465 33.7464 95.87 33.9375 96.1133C34.128 96.3566 34.225 96.6601 34.225 97.0172C34.225 97.3744 34.1265 97.6645 33.9316 97.9078C33.7368 98.1511 33.4952 98.2746 33.2144 98.2746V98.2754ZM33.2204 95.7695C32.9433 95.7695 32.7077 95.8893 32.521 96.1244C32.3335 96.361 32.2387 96.6609 32.2387 97.0172C32.2387 97.3736 32.3335 97.6601 32.521 97.8967C32.7077 98.1325 32.941 98.2516 33.2144 98.2516C33.4878 98.2516 33.7234 98.131 33.9138 97.8929C34.105 97.6541 34.2021 97.3595 34.2021 97.0172C34.2021 96.675 34.1072 96.3662 33.9198 96.1274C33.7331 95.8893 33.4975 95.7688 33.2204 95.7688V95.7695Z" fill="white"/>
<path d="M41.9007 95.3469L40.5464 99.1466C40.3434 99.7084 40.0329 99.9888 39.615 99.9888C39.4683 99.9888 39.3276 99.9658 39.192 99.9204V99.4755C39.3498 99.4985 39.4609 99.5097 39.5247 99.5097C39.6751 99.5097 39.7995 99.4695 39.8973 99.3899C39.9951 99.3103 40.0781 99.1719 40.1455 98.9755L40.2922 98.5782L39.152 95.3469H39.6202L40.5286 98.0031L41.4369 95.3469H41.9007Z" fill="white"/>
<path d="M39.6143 100C39.4669 100 39.3239 99.9769 39.1876 99.9308L39.1794 99.9278V99.4613L39.1927 99.4628C39.3498 99.4851 39.4609 99.497 39.5239 99.497C39.6706 99.497 39.7936 99.4576 39.8892 99.3795C39.9848 99.3014 40.067 99.1637 40.1337 98.9703L40.2789 98.5767L39.1349 95.3335H39.6276L39.6306 95.341L40.5286 97.9659L41.4288 95.3335H41.9155L41.9104 95.3492L40.556 99.1488C40.3522 99.7128 40.0351 99.9985 39.6143 99.9985V100ZM39.2024 99.9122C39.3343 99.9554 39.4721 99.9777 39.6143 99.9777C40.0248 99.9777 40.3345 99.6972 40.5345 99.1429L41.8837 95.3588H41.4451L40.5286 98.0388L40.5175 98.0075L39.6114 95.3588H39.1668L40.3026 98.5789L40.3011 98.5826L40.1544 98.9799C40.0863 99.1771 40.0018 99.3185 39.9025 99.3988C39.8025 99.4799 39.6751 99.5209 39.5232 99.5209C39.4602 99.5209 39.355 99.5104 39.2016 99.4881V99.9115L39.2024 99.9122Z" fill="white"/>
<path d="M43.4581 97.0106C43.4507 96.5359 43.59 96.1252 43.8759 95.7785C44.1619 95.4318 44.502 95.2629 44.8977 95.2718C45.1347 95.2718 45.3511 95.3358 45.5467 95.4637C45.7423 95.5917 45.9038 95.7695 46.032 95.9979L45.7215 96.2993C45.503 95.9384 45.2303 95.7584 44.9028 95.7584C44.6206 95.7584 44.3835 95.8804 44.1916 96.1244C43.9997 96.3685 43.9041 96.6646 43.9041 97.0113C43.9041 97.358 43.9997 97.6608 44.1916 97.9049C44.3835 98.1489 44.6206 98.2709 44.9028 98.2709C45.2266 98.2709 45.497 98.0931 45.7156 97.7367L46.026 98.0313C45.7549 98.5149 45.3792 98.7567 44.8977 98.7567C44.4991 98.7567 44.159 98.5864 43.8789 98.2464C43.5989 97.9063 43.4588 97.4942 43.4588 97.0106H43.4581Z" fill="white"/>
<path d="M44.8969 98.7679C44.4961 98.7679 44.1508 98.5946 43.8693 98.2538C43.5885 97.913 43.4462 97.4949 43.4462 97.0106C43.4388 96.5351 43.5803 96.1185 43.8663 95.771C44.153 95.4228 44.4998 95.2517 44.8969 95.2606C45.1347 95.2606 45.3555 95.3254 45.5519 95.4541C45.7482 95.582 45.9127 95.7636 46.0409 95.992L46.0453 95.9994L46.0394 96.0054L45.7186 96.3164L45.7112 96.3045C45.4963 95.9496 45.2244 95.7688 44.9028 95.7688C44.6257 95.7688 44.3894 95.8908 44.2005 96.1304C44.0108 96.3714 43.9152 96.6676 43.9152 97.0098C43.9152 97.3521 44.0115 97.6556 44.2005 97.8959C44.3894 98.1362 44.625 98.2575 44.9028 98.2575C45.2207 98.2575 45.4911 98.0797 45.706 97.7293L45.7134 97.7174L46.0401 98.0276L46.0357 98.0358C45.7638 98.5209 45.3807 98.7672 44.8969 98.7672V98.7679ZM44.8673 95.283C44.4894 95.283 44.159 95.4518 43.8841 95.7859C43.6011 96.1289 43.4618 96.5411 43.4692 97.0106C43.4692 97.4897 43.61 97.9026 43.8871 98.2389C44.1634 98.5745 44.5035 98.7449 44.8969 98.7449C45.3689 98.7449 45.7438 98.5053 46.0112 98.0328L45.7178 97.7538C45.4993 98.1042 45.2251 98.2813 44.9028 98.2813C44.6183 98.2813 44.3761 98.1563 44.1827 97.9108C43.99 97.666 43.8923 97.3625 43.8923 97.0106C43.8923 96.6586 43.99 96.3618 44.1827 96.117C44.3761 95.8707 44.6183 95.7465 44.9028 95.7465C45.2288 95.7465 45.5052 95.9265 45.7238 96.2807L46.0179 95.9957C45.8919 95.774 45.7312 95.5984 45.5407 95.4734C45.3481 95.3477 45.1318 95.2837 44.8976 95.2837C44.888 95.2837 44.8776 95.2837 44.868 95.2837L44.8673 95.283Z" fill="white"/>
<path d="M50.0669 96.6274V98.6816H49.6601V98.2501C49.4497 98.5879 49.1408 98.7567 48.7348 98.7567C48.4488 98.7567 48.2176 98.6712 48.0405 98.5001C47.8635 98.3289 47.7753 98.102 47.7753 97.8185C47.7753 97.5351 47.8657 97.3096 48.0465 97.1407C48.2272 96.9719 48.4658 96.887 48.7629 96.887H49.632V96.5999C49.632 96.3305 49.5727 96.1229 49.4542 95.9771C49.3356 95.8313 49.1726 95.7584 48.9659 95.7584C48.6577 95.7584 48.3902 95.9362 48.1643 96.2926L47.8768 96.0046C48.1213 95.5166 48.494 95.2725 48.9941 95.2725C49.3253 95.2725 49.5868 95.3901 49.7787 95.6252C49.9706 95.8603 50.0662 96.1944 50.0662 96.6281L50.0669 96.6274ZM49.632 97.4012V97.3193H48.8133C48.4184 97.3193 48.2206 97.477 48.2206 97.7918C48.2206 97.9562 48.2739 98.0849 48.3814 98.1787C48.4888 98.2724 48.6251 98.3193 48.7903 98.3193C49.02 98.3193 49.2171 98.23 49.383 98.0522C49.5483 97.8744 49.6312 97.6571 49.6312 97.4019L49.632 97.4012Z" fill="white"/>
<path d="M48.7348 98.7679C48.4473 98.7679 48.2109 98.6801 48.0324 98.5082C47.8538 98.3356 47.7634 98.1035 47.7634 97.8185C47.7634 97.5336 47.8561 97.3029 48.0383 97.1326C48.2206 96.9622 48.4643 96.8759 48.7629 96.8759H49.6209V96.5999C49.6209 96.3342 49.5616 96.1274 49.446 95.9838C49.3304 95.841 49.1689 95.7688 48.9667 95.7688C48.6636 95.7688 48.3977 95.9466 48.1746 96.2978L48.1672 96.3097L47.8635 96.0061L47.8672 95.9987C48.1124 95.5084 48.4925 95.2599 48.9948 95.2599C49.3282 95.2599 49.5949 95.3797 49.7883 95.6163C49.9809 95.8521 50.0788 96.1921 50.0788 96.6266V98.692H49.6498V98.288C49.4386 98.6065 49.1311 98.7672 48.7355 98.7672L48.7348 98.7679ZM48.7629 96.8989C48.4703 96.8989 48.2317 96.983 48.0539 97.1489C47.8768 97.3148 47.7864 97.5403 47.7864 97.8185C47.7864 98.0968 47.8746 98.3237 48.048 98.4919C48.2221 98.66 48.4525 98.7456 48.734 98.7456C49.1341 98.7456 49.4423 98.5767 49.6498 98.2441L49.6705 98.2106V98.6704H50.0543V96.6281C50.0543 96.1996 49.958 95.864 49.7691 95.6326C49.5801 95.4012 49.3193 95.2844 48.9933 95.2844C48.5021 95.2844 48.1309 95.5262 47.8894 96.0032L48.1613 96.2747C48.3865 95.925 48.657 95.7472 48.9644 95.7472C49.1741 95.7472 49.3408 95.8224 49.4616 95.9704C49.5816 96.1177 49.6416 96.3298 49.6416 96.6006V96.8997H48.7614L48.7629 96.8989ZM48.7911 98.3297C48.6236 98.3297 48.4836 98.2813 48.3747 98.1868C48.265 98.0916 48.2102 97.9584 48.2102 97.7918C48.2102 97.4704 48.4132 97.3082 48.814 97.3082H49.6438V97.4019C49.6438 97.6593 49.5594 97.881 49.3927 98.0603C49.226 98.2397 49.0237 98.3312 48.7918 98.3312L48.7911 98.3297ZM48.8133 97.3305C48.4221 97.3305 48.2324 97.4815 48.2324 97.7918C48.2324 97.9517 48.285 98.079 48.3895 98.1697C48.494 98.2612 48.6288 98.3074 48.7911 98.3074C49.0163 98.3074 49.2126 98.2188 49.3756 98.044C49.5386 97.8691 49.6209 97.6526 49.6209 97.4012V97.3305H48.8133Z" fill="white"/>
<path d="M54.8072 98.2159V99.6466H54.3722V98.6816H52.211V99.6466H51.7761V98.2159H52.0866C52.3126 97.9331 52.4326 97.2896 52.4474 96.2851L52.4644 95.3469H54.3604V98.2159H54.8072ZM53.9262 98.2159V95.8194H52.8764L52.8593 96.2918C52.8408 97.2457 52.7349 97.887 52.543 98.2159H53.9262Z" fill="white"/>
<path d="M54.3619 99.6578V98.6928H52.2229V99.6578H51.7658V98.2039H52.0821C52.3029 97.922 52.4222 97.2762 52.4378 96.2844L52.4548 95.335H54.3737V98.2039H54.8198V99.6578H54.3619ZM54.3841 99.6347H54.796V98.227H54.35V95.3581H52.4763L52.4592 96.2844C52.4444 97.2866 52.3222 97.9383 52.0955 98.2218L52.0918 98.2263H51.7873V99.6339H52.1992V98.669H54.3834V99.6339L54.3841 99.6347ZM53.9381 98.227H52.5237L52.5341 98.2099C52.7237 97.8848 52.8297 97.239 52.8482 96.2918L52.8653 95.8082H53.9373V98.227H53.9381ZM52.5637 98.2039H53.9151V95.8305H52.8875L52.8712 96.2918C52.8527 97.2271 52.7489 97.8699 52.5637 98.2039Z" fill="white"/>
<path d="M56.7313 98.6809V95.3469H57.1662V96.4972H57.8211C58.133 96.4972 58.3827 96.5961 58.5687 96.7948C58.7547 96.9934 58.848 97.2568 58.848 97.5857C58.848 97.9145 58.7547 98.1794 58.5687 98.3795C58.3827 98.5804 58.133 98.6809 57.8211 98.6809H56.7313ZM57.1662 98.2151H57.7982C57.9863 98.2151 58.1338 98.1593 58.2412 98.0477C58.3486 97.9361 58.402 97.7843 58.402 97.5924C58.402 97.4004 58.3472 97.2479 58.2383 97.1333C58.1293 97.0195 57.9804 96.9622 57.7922 96.9622H57.1662V98.2151Z" fill="white"/>
<path d="M57.8211 98.6928H56.7201V95.3358H57.1773V96.486H57.8204C58.1345 96.486 58.3887 96.5872 58.5768 96.7873C58.7643 96.9867 58.8591 97.2561 58.8591 97.5857C58.8591 97.9153 58.7643 98.1853 58.5768 98.3877C58.3894 98.5901 58.1345 98.6928 57.8204 98.6928H57.8211ZM56.7431 98.6697H57.8211C58.1286 98.6697 58.3775 98.5693 58.5605 98.3721C58.7435 98.1742 58.8369 97.9101 58.8369 97.5857C58.8369 97.2613 58.7443 96.9979 58.5605 96.803C58.3775 96.608 58.1286 96.5091 57.8211 96.5091H57.1551V95.3588H56.7431V98.6704V98.6697ZM57.7982 98.227H57.1543V96.951H57.7922C57.9826 96.951 58.1353 97.0098 58.2464 97.1259C58.3568 97.2419 58.4131 97.3989 58.4131 97.5924C58.4131 97.7858 58.3583 97.9421 58.2494 98.0559C58.1405 98.1697 57.9886 98.227 57.7982 98.227ZM57.1773 98.2039H57.7982C57.9819 98.2039 58.1286 98.1489 58.2331 98.0395C58.3375 97.9302 58.3909 97.7799 58.3909 97.5924C58.3909 97.4049 58.3368 97.2531 58.2301 97.1415C58.1234 97.0306 57.9767 96.9741 57.7922 96.9741H57.1773V98.2039Z" fill="white"/>
<path d="M63.5327 97.0723C63.5401 97.5284 63.4008 97.9249 63.1148 98.2598C62.8289 98.5953 62.4903 98.7582 62.0991 98.7493C61.6775 98.7493 61.3359 98.576 61.0744 98.2292C60.8129 97.8825 60.6825 97.4309 60.6825 96.8736V96.2918C60.6825 95.7718 60.724 95.3514 60.8069 95.0322C60.9877 94.3477 61.5108 93.9162 62.3762 93.7384C62.8392 93.6379 63.1474 93.5487 63.3015 93.4713V93.9779C63.1245 94.0695 62.8333 94.1513 62.4265 94.2242C62.0391 94.2927 61.7471 94.4139 61.5515 94.5873C61.356 94.7607 61.2337 94.9615 61.1848 95.1899C61.1322 95.4228 61.1055 95.7152 61.1055 96.0664C61.2218 95.8566 61.3737 95.6922 61.5597 95.5739C61.7457 95.4556 61.9464 95.396 62.1606 95.396C62.5295 95.3871 62.8518 95.5523 63.1282 95.8923C63.4045 96.2323 63.5394 96.6259 63.532 97.073L63.5327 97.0723ZM62.8014 97.9175C62.9911 97.6869 63.0867 97.4049 63.0867 97.0723C63.0867 96.7397 62.9919 96.457 62.8014 96.2264C62.6118 95.9957 62.3791 95.8804 62.1043 95.8804C61.8294 95.8804 61.6019 95.9965 61.41 96.2293C61.2181 96.4622 61.1226 96.7427 61.1226 97.0716C61.1226 97.4004 61.2196 97.6749 61.413 97.9101C61.6064 98.1452 61.8368 98.2627 62.1043 98.2627C62.3717 98.2627 62.611 98.1474 62.8014 97.9168V97.9175Z" fill="white"/>
<path d="M62.1294 98.7612C62.1191 98.7612 62.1087 98.7612 62.0991 98.7612C61.676 98.7612 61.3285 98.5849 61.0655 98.2367C60.804 97.89 60.6714 97.4309 60.6714 96.8744V96.2926C60.6714 95.7732 60.7136 95.3484 60.7958 95.03C60.9766 94.344 61.5078 93.9058 62.3732 93.728C62.8326 93.6283 63.143 93.539 63.2956 93.4616L63.3119 93.4534V93.9854L63.306 93.9884C63.1289 94.0799 62.8333 94.1632 62.428 94.2361C62.0442 94.3038 61.7523 94.4251 61.559 94.5962C61.3663 94.7673 61.2441 94.9675 61.1959 95.1922C61.1455 95.4132 61.1196 95.6929 61.1174 96.0232C61.2315 95.8305 61.3782 95.6758 61.5538 95.5634C61.7412 95.4444 61.9457 95.3834 62.1606 95.3834C62.5318 95.3737 62.86 95.5426 63.1371 95.8841C63.4142 96.2249 63.5505 96.6244 63.5431 97.0723C63.5505 97.5291 63.409 97.9316 63.123 98.2672C62.8437 98.5953 62.5088 98.7612 62.1287 98.7612H62.1294ZM63.2897 93.4891C63.1304 93.565 62.8237 93.6521 62.3777 93.7488C61.5212 93.9251 60.9959 94.3574 60.8173 95.0344C60.7351 95.3514 60.6936 95.774 60.6936 96.2911V96.8729C60.6936 97.425 60.8247 97.8788 61.0833 98.2218C61.3411 98.564 61.6827 98.7374 62.0983 98.7374C62.1087 98.7374 62.1183 98.7374 62.1287 98.7374C62.5021 98.7374 62.8311 98.5737 63.106 98.2516C63.3882 97.9197 63.5283 97.5224 63.5209 97.0716C63.5283 96.6289 63.3934 96.2338 63.12 95.8975C62.854 95.5709 62.5406 95.405 62.1887 95.405C62.1791 95.405 62.1702 95.405 62.1606 95.405C61.9494 95.405 61.7486 95.4645 61.5656 95.5813C61.3819 95.6989 61.23 95.8633 61.1152 96.0701L61.0937 96.1088V96.0649C61.0937 95.7145 61.1203 95.4184 61.173 95.1862C61.2219 94.9571 61.3471 94.7517 61.5434 94.5776C61.7397 94.4035 62.0361 94.2808 62.4236 94.2123C62.8222 94.1409 63.1134 94.059 63.289 93.9698V93.4884L63.2897 93.4891ZM62.1043 98.2746C61.8346 98.2746 61.599 98.1548 61.4041 97.9183C61.2093 97.6824 61.1107 97.3974 61.1107 97.0723C61.1107 96.7472 61.2085 96.457 61.4011 96.2226C61.5945 95.9883 61.8309 95.8692 62.1043 95.8692C62.3776 95.8692 62.6184 95.9868 62.8103 96.2189C63.0015 96.4503 63.0978 96.7375 63.0978 97.0716C63.0978 97.4056 63.0007 97.6928 62.8103 97.9242C62.6192 98.1563 62.3814 98.2739 62.1043 98.2739V98.2746ZM62.1043 95.8923C61.8383 95.8923 61.6079 96.0084 61.4189 96.2375C61.23 96.4674 61.1337 96.7479 61.1337 97.0723C61.1337 97.3967 61.2307 97.672 61.4219 97.9034C61.6123 98.1348 61.842 98.2516 62.1043 98.2516C62.3665 98.2516 62.6058 98.1362 62.7926 97.9101C62.98 97.6831 63.0748 97.4004 63.0748 97.0716C63.0748 96.7427 62.98 96.4607 62.7926 96.2331C62.6058 96.0061 62.3739 95.8916 62.1043 95.8916V95.8923Z" fill="white"/>
<path d="M67.5958 96.6274V98.6816H67.189V98.2501C66.9786 98.5879 66.6697 98.7567 66.2637 98.7567C65.9777 98.7567 65.7465 98.6712 65.5694 98.5001C65.3924 98.3289 65.3042 98.102 65.3042 97.8185C65.3042 97.5351 65.3946 97.3096 65.5754 97.1407C65.7561 96.9719 65.9947 96.887 66.2918 96.887H67.1609V96.5999C67.1609 96.3305 67.1016 96.1229 66.9831 95.9771C66.8645 95.8313 66.7015 95.7584 66.4948 95.7584C66.1866 95.7584 65.9191 95.9362 65.6932 96.2926L65.4057 96.0046C65.6502 95.5166 66.0229 95.2725 66.523 95.2725C66.8541 95.2725 67.1157 95.3901 67.3076 95.6252C67.4995 95.8603 67.595 96.1944 67.595 96.6281L67.5958 96.6274ZM67.1609 97.4012V97.3193H66.3422C65.9473 97.3193 65.7495 97.477 65.7495 97.7918C65.7495 97.9562 65.8028 98.0849 65.9102 98.1787C66.0177 98.2724 66.154 98.3193 66.3192 98.3193C66.5489 98.3193 66.746 98.23 66.9119 98.0522C67.0772 97.8744 67.1601 97.6571 67.1601 97.4019L67.1609 97.4012Z" fill="white"/>
<path d="M66.2637 98.7679C65.9762 98.7679 65.7398 98.6801 65.5613 98.5082C65.3827 98.3356 65.2923 98.1035 65.2923 97.8185C65.2923 97.5336 65.3849 97.3029 65.5672 97.1326C65.7495 96.9622 65.9932 96.8759 66.2918 96.8759H67.1498V96.5999C67.1498 96.3342 67.0905 96.1274 66.9749 95.9838C66.8593 95.841 66.6978 95.7688 66.4956 95.7688C66.1925 95.7688 65.9265 95.9466 65.7035 96.2978L65.6961 96.3097L65.3924 96.0061L65.3961 95.9987C65.6413 95.5084 66.0214 95.2599 66.5237 95.2599C66.8571 95.2599 67.1238 95.3797 67.3172 95.6163C67.5098 95.8521 67.6076 96.1921 67.6076 96.6266V98.692H67.1787V98.288C66.9675 98.6065 66.66 98.7672 66.2644 98.7672L66.2637 98.7679ZM66.2918 96.8989C65.9992 96.8989 65.7606 96.983 65.5828 97.1489C65.4057 97.3148 65.3153 97.5403 65.3153 97.8185C65.3153 98.0968 65.4035 98.3237 65.5768 98.4919C65.751 98.66 65.9814 98.7456 66.2629 98.7456C66.663 98.7456 66.9712 98.5767 67.1787 98.2441L67.1994 98.2106V98.6704H67.5832V96.6281C67.5832 96.1996 67.4869 95.864 67.2979 95.6326C67.109 95.4012 66.8482 95.2844 66.5222 95.2844C66.031 95.2844 65.6598 95.5262 65.4183 96.0032L65.6902 96.2747C65.9154 95.925 66.1859 95.7472 66.4933 95.7472C66.703 95.7472 66.8697 95.8224 66.9905 95.9704C67.1105 96.1177 67.1705 96.3298 67.1705 96.6006V96.8997H66.2903L66.2918 96.8989ZM66.32 98.3297C66.1525 98.3297 66.0125 98.2813 65.9036 98.1868C65.7939 98.0916 65.7391 97.9584 65.7391 97.7918C65.7391 97.4704 65.9421 97.3082 66.3429 97.3082H67.1727V97.4019C67.1727 97.6593 67.0883 97.881 66.9216 98.0603C66.7549 98.2397 66.5526 98.3312 66.3207 98.3312L66.32 98.3297ZM66.3422 97.3305C65.951 97.3305 65.7613 97.4815 65.7613 97.7918C65.7613 97.9517 65.8139 98.079 65.9184 98.1697C66.0229 98.2612 66.1577 98.3074 66.32 98.3074C66.5452 98.3074 66.7415 98.2188 66.9045 98.044C67.0675 97.8691 67.1498 97.6526 67.1498 97.4012V97.3305H66.3422Z" fill="white"/>
</svg>
