<svg width="55" height="60" viewBox="0 0 55 60" fill="none" xmlns="http://www.w3.org/2000/svg">
<path d="M18.9202 19.6112C18.8782 19.6112 18.8356 19.6005 18.7967 19.5777C18.678 19.5094 18.6377 19.3581 18.7062 19.2402L25.8821 6.85014C25.9265 6.77381 26.0084 6.72649 26.0966 6.72649C26.1848 6.72649 26.2672 6.77336 26.3111 6.85014L33.3464 18.9983C33.4149 19.1166 33.3742 19.2679 33.256 19.3357C33.1369 19.404 32.9855 19.3634 32.9174 19.2456L26.0966 7.46842L19.1356 19.488C19.09 19.5674 19.0062 19.6116 18.9207 19.6116L18.9202 19.6112Z" fill="#1D1914"/>
<path d="M35.1663 19.4465C35.0807 19.4465 34.997 19.4023 34.9513 19.3228L27.8524 7.06665C27.7839 6.94835 27.8247 6.79702 27.9429 6.72917C28.062 6.66042 28.2133 6.70149 28.2814 6.81934L35.3803 19.0755C35.4488 19.1938 35.4081 19.3451 35.2898 19.413C35.2509 19.4353 35.2079 19.4465 35.1663 19.4465Z" fill="#1D1914"/>
<path d="M37.0479 19.4465C36.9624 19.4465 36.8786 19.4023 36.833 19.3228L29.7341 7.06665C29.6655 6.94835 29.7063 6.79702 29.8245 6.72917C29.9436 6.66042 30.095 6.70149 30.163 6.81934L37.2619 19.0755C37.3305 19.1938 37.2897 19.3451 37.1715 19.413C37.1325 19.4353 37.0895 19.4465 37.0479 19.4465Z" fill="#1D1914"/>
<path d="M17.511 19.4465C17.374 19.4465 17.263 19.3357 17.263 19.1991V10.5567L15.4973 12.7173C15.4109 12.8231 15.2546 12.8392 15.1485 12.753C15.0423 12.6668 15.0262 12.511 15.1126 12.4053L17.3189 9.70582C17.3852 9.62457 17.4963 9.59422 17.5943 9.62903C17.6933 9.6643 17.7591 9.7576 17.7591 9.86206V19.1991C17.7591 19.3357 17.6481 19.4465 17.511 19.4465Z" fill="#1D1914"/>
<path d="M15.3374 15.389C15.2824 15.389 15.2268 15.3707 15.1812 15.3337C15.075 15.2475 15.0589 15.0917 15.1453 14.9859L17.2862 12.3673C17.3727 12.2615 17.5289 12.2454 17.6351 12.3316C17.7412 12.4178 17.7573 12.5735 17.6709 12.6793L15.53 15.298C15.4807 15.3578 15.4095 15.389 15.3374 15.389Z" fill="#1D1914"/>
<path d="M19.6846 15.389C19.6125 15.389 19.5413 15.3582 19.4921 15.298L17.3512 12.6793C17.2647 12.5735 17.2804 12.4178 17.387 12.3316C17.4931 12.2454 17.6494 12.2611 17.7358 12.3673L19.8767 14.9859C19.9632 15.0917 19.9475 15.2475 19.8409 15.3337C19.7948 15.3712 19.7393 15.389 19.6846 15.389Z" fill="#1D1914"/>
<path d="M15.3374 18.0505C15.2824 18.0505 15.2268 18.0322 15.1812 17.9952C15.075 17.909 15.0589 17.7532 15.1453 17.6474L17.2862 15.0292C17.3727 14.9234 17.5289 14.9074 17.6351 14.9935C17.7412 15.0797 17.7573 15.2355 17.6709 15.3413L15.53 17.9595C15.4807 18.0193 15.4095 18.0505 15.3374 18.0505Z" fill="#1D1914"/>
<path d="M19.7084 18.0505C19.6363 18.0505 19.5651 18.0197 19.5158 17.9595L17.3749 15.3413C17.2885 15.2355 17.3041 15.0797 17.4107 14.9935C17.5168 14.9074 17.6731 14.923 17.7596 15.0292L19.9005 17.6474C19.9869 17.7532 19.9712 17.909 19.8646 17.9952C19.8185 18.0327 19.763 18.0505 19.7084 18.0505Z" fill="#1D1914"/>
<path d="M19.7173 12.8088C19.6452 12.8088 19.574 12.7776 19.5248 12.7177L17.3185 10.0183C17.2321 9.91251 17.2482 9.75671 17.3543 9.67055C17.4604 9.58439 17.6167 9.60047 17.7031 9.70626L19.9094 12.4057C19.9958 12.5115 19.9797 12.6673 19.8736 12.7534C19.8275 12.7909 19.7719 12.8088 19.7173 12.8088Z" fill="#1D1914"/>
<path d="M38.5507 19.4465C38.4137 19.4465 38.3026 19.3357 38.3026 19.1991V10.5567L36.537 12.7173C36.4505 12.8231 36.2943 12.8392 36.1881 12.753C36.082 12.6668 36.0659 12.511 36.1523 12.4053L38.3581 9.70582C38.4244 9.62457 38.535 9.59422 38.6335 9.62903C38.7325 9.6643 38.7983 9.7576 38.7983 9.86206V19.1991C38.7983 19.3357 38.6877 19.4465 38.5507 19.4465Z" fill="#1D1914"/>
<path d="M36.3771 15.389C36.322 15.389 36.2665 15.3707 36.2204 15.3337C36.1142 15.2475 36.0986 15.0917 36.185 14.9859L38.3259 12.3673C38.4123 12.2615 38.5686 12.2454 38.6747 12.3316C38.7809 12.4178 38.797 12.5735 38.7106 12.6793L36.5696 15.298C36.5204 15.3578 36.4492 15.389 36.3771 15.389Z" fill="#1D1914"/>
<path d="M40.7238 15.389C40.6517 15.389 40.5806 15.3582 40.5313 15.298L38.3904 12.6793C38.304 12.5735 38.3196 12.4178 38.4262 12.3316C38.5323 12.2454 38.6886 12.2611 38.775 12.3673L40.916 14.9859C41.0024 15.0917 40.9867 15.2475 40.8801 15.3337C40.834 15.3712 40.7785 15.389 40.7238 15.389Z" fill="#1D1914"/>
<path d="M36.3771 18.0505C36.322 18.0505 36.2665 18.0322 36.2204 17.9952C36.1142 17.909 36.0986 17.7532 36.185 17.6474L38.3259 15.0292C38.4123 14.9234 38.5686 14.9074 38.6747 14.994C38.7809 15.0801 38.7965 15.2359 38.7101 15.3417L36.5692 17.9599C36.5199 18.0197 36.4487 18.051 36.3766 18.051L36.3771 18.0505Z" fill="#1D1914"/>
<path d="M40.748 18.0505C40.6759 18.0505 40.6047 18.0197 40.5555 17.9595L38.4146 15.3413C38.3281 15.2355 38.3438 15.0797 38.4504 14.9935C38.5565 14.9074 38.7128 14.923 38.7992 15.0292L40.9401 17.6474C41.0266 17.7532 41.0109 17.909 40.9043 17.9952C40.8582 18.0327 40.8027 18.0505 40.748 18.0505Z" fill="#1D1914"/>
<path d="M40.7565 12.8088C40.6844 12.8088 40.6132 12.7776 40.564 12.7177L38.3577 10.0183C38.2713 9.91251 38.2874 9.75671 38.3935 9.67055C38.4996 9.58439 38.6559 9.60047 38.7423 9.70626L40.9486 12.4057C41.0351 12.5115 41.0189 12.6673 40.9128 12.7534C40.8667 12.7909 40.8112 12.8088 40.7565 12.8088Z" fill="#1D1914"/>
<path d="M27.2407 19.5009C27.1037 19.5009 26.9927 19.3902 26.9927 19.2536V15.6145H25.1124V19.1991C25.1124 19.3357 25.0013 19.4465 24.8643 19.4465C24.7273 19.4465 24.6162 19.3357 24.6162 19.1991V15.3672C24.6162 15.2306 24.7273 15.1199 24.8643 15.1199H27.2403C27.3773 15.1199 27.4884 15.2306 27.4884 15.3672V19.2536C27.4884 19.3902 27.3778 19.5009 27.2407 19.5009Z" fill="#1D1914"/>
<path d="M14.8637 28.4867C14.8784 28.4867 14.8928 28.4867 14.9076 28.4867C16.443 28.4867 17.228 28.013 17.9879 27.555C18.7214 27.1126 19.4142 26.6948 20.8113 26.6948C20.8252 26.6948 20.8391 26.6948 20.8525 26.6948C22.2774 26.7033 22.9719 27.1332 23.7072 27.5881C24.4684 28.0595 25.2557 28.5465 26.8202 28.5559C26.835 28.5559 26.8494 28.5559 26.8641 28.5559C28.3996 28.5559 29.1851 28.0822 29.9445 27.6242C30.678 27.1818 31.3707 26.764 32.7679 26.764C32.7817 26.764 32.7956 26.764 32.8091 26.764C34.2339 26.7725 34.9285 27.2024 35.6642 27.6572C36.4255 28.1287 37.2131 28.6157 38.7777 28.6251C38.7925 28.6251 38.8068 28.6251 38.8216 28.6251C40.3571 28.6251 41.1425 28.1514 41.9024 27.6934C42.6359 27.251 43.3291 26.8332 44.7262 26.8332C44.7406 26.8332 44.7567 26.8345 44.7692 26.8332C44.9054 26.8332 45.0164 26.7234 45.0173 26.5877C45.0182 26.4511 44.9076 26.3399 44.771 26.339C44.7562 26.339 44.7419 26.339 44.7271 26.339C43.1916 26.339 42.4062 26.8126 41.6463 27.2707C40.9128 27.713 40.2196 28.1309 38.8225 28.1309C38.8086 28.1309 38.7952 28.1309 38.7813 28.1309C37.3564 28.1224 36.6619 27.6925 35.9262 27.2376C35.1649 26.7662 34.3772 26.2792 32.8126 26.2698C31.2458 26.2636 30.455 26.739 29.6884 27.201C28.9549 27.6434 28.2621 28.0612 26.865 28.0612C26.8511 28.0612 26.8373 28.0612 26.8238 28.0612C25.3989 28.0528 24.7044 27.6229 23.9691 27.168C23.2079 26.6966 22.4207 26.2095 20.8561 26.2002C19.2879 26.1926 18.4984 26.6693 17.7318 27.1314C16.9983 27.5738 16.3056 27.9916 14.9084 27.9916C14.8946 27.9916 14.8807 27.9916 14.8673 27.9916C13.5418 27.984 12.7859 27.476 12.0555 26.985C11.3865 26.5354 10.6987 26.0761 9.63387 26.0591C9.67059 26.1587 9.70686 26.2573 9.74805 26.3591C9.77582 26.4274 9.80627 26.4939 9.83448 26.5618C10.6311 26.6269 11.1761 26.9899 11.7779 27.3948C12.5329 27.9023 13.3882 28.4773 14.8641 28.4862L14.8637 28.4867Z" fill="#1D1914"/>
<path d="M38.8221 31.7856C38.8086 31.7856 38.7947 31.7856 38.7809 31.7856C37.356 31.7772 36.6614 31.3473 35.9257 30.8924C35.1645 30.421 34.3768 29.9335 32.8122 29.9246C32.7974 29.9246 32.7831 29.9246 32.7683 29.9246C31.2328 29.9246 30.4474 30.3982 29.6879 30.8562C28.9544 31.2986 28.2617 31.7164 26.8646 31.7164C26.8511 31.7164 26.8373 31.7164 26.8234 31.7164C25.3985 31.7084 24.704 31.2785 23.9687 30.8232C23.2074 30.3518 22.4202 29.8643 20.8556 29.8554C20.8408 29.8554 20.8265 29.8554 20.8117 29.8554C19.2762 29.8554 18.4908 30.329 17.7313 30.787C16.9979 31.229 16.3047 31.6468 14.908 31.6468C14.8941 31.6468 14.8802 31.6468 14.8664 31.6468C13.6945 31.6401 12.9681 31.2424 12.3103 30.8107C12.5795 31.158 12.8611 31.4959 13.1544 31.824C13.6251 32.0097 14.1768 32.1374 14.8637 32.1414C14.8784 32.1414 14.8932 32.1414 14.908 32.1414C16.4435 32.1414 17.2285 31.6678 17.9879 31.2102C18.7214 30.7678 19.4146 30.35 20.8113 30.35C20.8252 30.35 20.8386 30.35 20.8525 30.35C22.2774 30.3585 22.9719 30.7884 23.7072 31.2432C24.4684 31.7147 25.2557 32.2017 26.8202 32.2111C26.835 32.2111 26.8494 32.2111 26.8641 32.2111C28.3996 32.2111 29.1851 31.7374 29.9445 31.2794C30.678 30.837 31.3707 30.4192 32.7679 30.4192C32.7817 30.4192 32.7956 30.4192 32.8091 30.4192C34.2339 30.4277 34.9285 30.8576 35.6642 31.3124C36.4255 31.7839 37.2131 32.2709 38.7777 32.2803C38.7925 32.2803 38.8068 32.2803 38.8216 32.2803C40.3571 32.2803 41.1425 31.8066 41.9024 31.3486C42.2822 31.1196 42.6516 30.8982 43.1124 30.7366C43.2154 30.604 43.3175 30.4705 43.4169 30.3348C43.4747 30.2558 43.532 30.1768 43.587 30.0978C42.7515 30.2625 42.1899 30.5977 41.6459 30.9254C40.9124 31.3678 40.2192 31.7856 38.8221 31.7856Z" fill="#1D1914"/>
<path d="M32.8126 33.578C31.2458 33.565 30.455 34.0467 29.6884 34.5092C28.9549 34.9516 28.2621 35.3694 26.865 35.3694C26.8511 35.3694 26.8373 35.3694 26.8238 35.3694C25.3989 35.3609 24.7044 34.931 23.9691 34.4761C23.2079 34.0047 22.4207 33.5177 20.8561 33.5083C19.2879 33.494 18.4984 33.9771 17.7318 34.4395C17.4219 34.6261 17.1192 34.8083 16.7677 34.9565C16.9302 35.065 17.0937 35.1721 17.2589 35.2752C17.5182 35.1453 17.7546 35.0034 17.9884 34.8623C18.7219 34.4199 19.4146 34.0021 20.8117 34.0021C20.8256 34.0021 20.8395 34.0021 20.8529 34.0021C22.2778 34.0105 22.9723 34.4404 23.7076 34.8953C24.4689 35.3667 25.2561 35.8538 26.8207 35.8631C28.388 35.8752 29.1783 35.3944 29.945 34.9319C30.6785 34.4895 31.3712 34.0717 32.7683 34.0717C32.7817 34.0717 32.7961 34.0717 32.8095 34.0717C34.2344 34.0802 34.9289 34.5101 35.6646 34.965C36.1321 35.2542 36.6104 35.5493 37.2718 35.7364C37.4849 35.6181 37.6954 35.4953 37.9041 35.3694C37.0354 35.2297 36.4922 34.8953 35.9266 34.5449C35.1654 34.0739 34.3777 33.5864 32.8131 33.5771L32.8126 33.578Z" fill="#1D1914"/>
<path d="M46.4968 15.2386C46.4032 14.2248 46.1278 13.132 45.7006 12.078C44.2708 8.55141 41.8469 5.54484 38.6909 3.38333C35.4591 1.16959 31.6703 0 27.7346 0H26.8941C20.7293 0 14.8516 2.98915 11.1707 7.99607C9.16234 10.7281 8.72663 13.6338 9.97598 15.968C11.087 18.0438 13.4186 19.4206 16.0611 19.5607C18.4922 19.6893 20.9819 19.6447 23.3897 19.6018C24.5969 19.5799 25.8454 19.5576 27.0652 19.5576L28.0996 19.5598C29.2679 19.5581 30.4604 19.5366 31.6134 19.5161C34.0109 19.4732 36.4904 19.4286 38.9027 19.5567C41.2867 19.6831 43.3923 20.879 44.462 22.6923C44.5485 22.6892 44.6371 22.6869 44.7285 22.6869C44.7433 22.6869 44.7576 22.6869 44.7724 22.6869C44.9094 22.6878 45.0195 22.799 45.0187 22.9356C45.0178 23.0717 44.9071 23.1811 44.7706 23.1811C44.7585 23.1833 44.7424 23.1811 44.7276 23.1811C44.7249 23.1811 44.7227 23.1811 44.7204 23.1811C45.659 25.2225 45.2537 27.7113 43.5884 30.0978C43.7895 30.058 44.0057 30.0281 44.2422 30.0112C45.882 27.4631 46.1695 24.8145 45.0137 22.6552C43.9027 20.5794 41.5711 19.2027 38.9286 19.0625C36.4989 18.934 34.0105 18.9782 31.6045 19.0215C30.4532 19.042 29.263 19.0634 28.0996 19.0652L27.0656 19.063C25.8409 19.063 24.5902 19.0853 23.3807 19.1072C20.9814 19.15 18.5007 19.1947 16.0875 19.067C13.6175 18.9362 11.4434 17.6595 10.4135 15.7355C9.25772 13.5757 9.67954 10.8611 11.571 8.28847C15.1588 3.40833 20.887 0.494622 26.8941 0.494622H27.7346C31.57 0.494622 35.2616 1.63475 38.4101 3.79135C41.486 5.89795 43.8481 8.82773 45.2412 12.2642C45.6505 13.2735 45.9138 14.3181 46.0038 15.2846C46.0163 15.4207 46.1404 15.5234 46.2734 15.5082C46.41 15.4957 46.5103 15.3752 46.4977 15.2395L46.4968 15.2386Z" fill="#1D1914"/>
<path d="M44.4607 22.6918C43.0985 22.7432 42.361 23.1874 41.6468 23.6181C40.9133 24.0605 40.2201 24.4784 38.823 24.4784C38.8091 24.4784 38.7952 24.4784 38.7813 24.4784C37.3564 24.4699 36.6619 24.04 35.9262 23.5851C35.1649 23.1137 34.3772 22.6267 32.8126 22.6173C32.7979 22.6173 32.7831 22.6173 32.7683 22.6173C31.2328 22.6173 30.4478 23.0909 29.6884 23.5485C28.9549 23.9909 28.2617 24.4087 26.865 24.4087C26.8511 24.4087 26.8377 24.4087 26.8238 24.4087C25.3989 24.4003 24.7044 23.9704 23.9691 23.5155C23.2079 23.0441 22.4207 22.557 20.8561 22.5477C19.2879 22.5365 18.4984 23.0168 17.7318 23.4789C16.9983 23.9213 16.3056 24.3391 14.9084 24.3391C14.8946 24.3391 14.8807 24.3391 14.8673 24.3391C13.5418 24.3315 12.7859 23.8235 12.0551 23.3324C11.202 22.7588 10.319 22.1651 8.66126 22.5017C8.52692 22.5289 8.44004 22.6593 8.46736 22.7932C8.47945 22.8535 8.51393 22.9034 8.55916 22.9383C8.59767 22.8994 8.64872 22.8718 8.70783 22.8655C8.79515 22.8552 8.87665 22.8927 8.92769 22.9566C10.2702 22.7325 10.9719 23.2007 11.7775 23.7422C12.5324 24.2498 13.3882 24.8252 14.8637 24.8337C16.4292 24.8476 17.2213 24.365 17.9879 23.9025C18.7214 23.4601 19.4142 23.0423 20.8113 23.0423C20.8247 23.0423 20.8386 23.0423 20.8525 23.0423C22.2774 23.0503 22.9719 23.4802 23.7072 23.9355C24.4684 24.4069 25.2557 24.8944 26.8202 24.9033C28.3875 24.9185 29.1774 24.4346 29.9445 23.9721C30.678 23.5298 31.3712 23.1119 32.7679 23.1119C32.7817 23.1119 32.7956 23.1119 32.8095 23.1119C34.2344 23.1204 34.9289 23.5503 35.6646 24.0052C36.4264 24.4761 37.2136 24.9636 38.7782 24.9725C38.7934 24.9725 38.8077 24.9725 38.8225 24.9725C40.358 24.9725 41.1434 24.4989 41.9029 24.0413C42.635 23.5998 43.3273 23.1829 44.7195 23.1816C44.6743 23.0829 44.6268 22.9851 44.5753 22.8887C44.5395 22.8218 44.4992 22.7575 44.4607 22.6918Z" fill="#1D1914"/>
<path d="M8.55916 22.9374C8.50856 22.9883 8.4799 23.0601 8.48841 23.1374C8.6017 24.1659 8.75753 25.0806 9.11353 26.0854C9.29668 26.0654 9.46953 26.0569 9.63342 26.0596C9.25682 25.0426 9.09562 24.1235 8.98143 23.0833C8.97606 23.0347 8.95635 22.9914 8.92814 22.9557C8.87262 22.965 8.81798 22.9735 8.76022 22.9851C8.68678 22.9999 8.61424 22.9798 8.55916 22.9374Z" fill="#1D1914"/>
<path d="M12.3108 30.8093C11.3077 29.5148 10.4744 28.0903 9.83403 26.5622C9.66656 26.5484 9.48833 26.547 9.29533 26.5622C9.80448 27.8153 10.4417 29.0009 11.1904 30.1076C11.4985 30.2652 11.7784 30.4527 12.0551 30.6384C12.1397 30.6951 12.2248 30.7522 12.3112 30.8089L12.3108 30.8093Z" fill="#1D1914"/>
<path d="M16.5783 34.8319C15.3088 33.9623 14.1629 32.9508 13.1544 31.8227C12.6981 31.6428 12.3184 31.4084 11.9682 31.1763C13.1549 32.6941 14.569 34.0351 16.1779 35.1547C16.3924 35.1002 16.5868 35.0333 16.7677 34.9565C16.705 34.9145 16.641 34.8748 16.5783 34.8319Z" fill="#1D1914"/>
<path d="M27.2542 38.1287C23.6915 38.1287 20.2538 37.1434 17.2589 35.2752C17.0883 35.3605 16.907 35.4404 16.7099 35.5105C19.8499 37.5465 23.4837 38.6228 27.2542 38.6228H28.0947C31.6108 38.6228 35.0333 37.6488 38.0084 35.8841C37.7379 35.8502 37.4943 35.7997 37.2722 35.7372C34.4883 37.2818 31.3327 38.1291 28.0951 38.1291L27.2542 38.1287Z" fill="#1D1914"/>
<path d="M37.9041 35.3694C38.1495 35.4087 38.4208 35.4332 38.7262 35.4373C40.6741 34.1659 42.4076 32.5454 43.8181 30.6268C43.8369 30.6009 43.8548 30.575 43.8736 30.5491C43.5897 30.5924 43.3403 30.6567 43.1133 30.7361C41.6606 32.6061 39.8865 34.169 37.9041 35.3694Z" fill="#1D1914"/>
<path d="M8.75932 22.9851C8.81709 22.9735 8.87172 22.965 8.92725 22.9557C8.87575 22.8918 8.79425 22.8543 8.70738 22.8646C8.64827 22.8709 8.59812 22.8985 8.55916 22.9374C8.61424 22.9798 8.68588 23.0003 8.75932 22.9851Z" fill="#1D1914"/>
<path d="M44.7195 23.1816C44.7222 23.1816 44.7244 23.1811 44.7267 23.1811C44.741 23.1811 44.7571 23.1838 44.7697 23.1811C44.9058 23.1811 45.0169 23.0713 45.0177 22.9356C45.0186 22.799 44.908 22.6878 44.7715 22.6869C44.7567 22.6869 44.7424 22.6869 44.7276 22.6869C44.6358 22.6869 44.5476 22.6887 44.4611 22.6923C44.4997 22.7575 44.5395 22.8218 44.5753 22.8887C44.6268 22.9851 44.6743 23.0829 44.7195 23.1816Z" fill="#1D1914"/>
<path d="M9.83403 26.5622C9.80582 26.4944 9.77492 26.4278 9.74761 26.3595C9.70641 26.2582 9.67014 26.1591 9.63342 26.0596C9.46953 26.0569 9.29668 26.0654 9.11353 26.0854C9.16726 26.2363 9.22458 26.389 9.28772 26.5448C9.28996 26.5506 9.29265 26.556 9.29533 26.5622C9.48833 26.547 9.66656 26.5484 9.83403 26.5622Z" fill="#1D1914"/>
<path d="M12.3108 30.8093C12.2248 30.7526 12.1393 30.696 12.0546 30.6388C11.7784 30.4531 11.498 30.2656 11.19 30.108C11.4371 30.4732 11.6969 30.8294 11.9682 31.1763C12.3184 31.4084 12.6981 31.6428 13.1544 31.8227C12.8611 31.4946 12.5799 31.1566 12.3108 30.8093Z" fill="#1D1914"/>
<path d="M43.4178 30.3348C43.3179 30.4705 43.2163 30.6035 43.1133 30.7361C43.3403 30.6567 43.5897 30.5924 43.8736 30.5491C44.0031 30.3701 44.1257 30.1911 44.2413 30.0112C44.0048 30.0281 43.7881 30.0585 43.587 30.0978C43.532 30.1768 43.476 30.2558 43.4178 30.3348Z" fill="#1D1914"/>
<path d="M37.2722 35.7372C37.4948 35.8002 37.7375 35.8506 38.008 35.8846C38.2502 35.7408 38.4898 35.5917 38.7258 35.4377C38.4204 35.4337 38.149 35.4096 37.9036 35.3703C37.695 35.4966 37.4845 35.6194 37.2713 35.7372H37.2722Z" fill="#1D1914"/>
<path d="M16.7677 34.9565C16.5868 35.0333 16.3924 35.1002 16.1779 35.1547C16.2182 35.1828 16.2572 35.2118 16.2975 35.2395C16.4336 35.3328 16.572 35.4212 16.7099 35.5105C16.907 35.4404 17.0883 35.3605 17.2589 35.2752C17.0937 35.1721 16.9302 35.065 16.7677 34.9565Z" fill="#1D1914"/>
<path d="M45.269 26.8609C45.2573 26.8609 45.2452 26.86 45.2331 26.8582C45.0975 26.8385 44.9291 26.8309 44.7173 26.8341C44.7159 26.8341 44.7146 26.8341 44.7133 26.8341C44.578 26.8341 44.4674 26.726 44.4652 26.5908C44.4629 26.4542 44.5722 26.3417 44.7092 26.3395C44.947 26.3354 45.1418 26.3453 45.3039 26.3685C45.4396 26.3881 45.5332 26.5136 45.5139 26.6484C45.496 26.7716 45.3899 26.86 45.269 26.86V26.8609Z" fill="#1D1914"/>
<path d="M8.46243 22.7459L8.48841 23.1374L8.98143 23.0833L8.96397 22.9262" fill="#1D1914"/>
<path d="M3.02351 53.3226V45.4507H0.0823928V45.0891H6.34302V45.4507H3.4019V53.3226H3.02351Z" fill="#1D1914"/>
<path d="M2.94112 53.4048V45.5328H0V45.006H6.42586V45.5328H3.48474V53.4048H2.94112ZM3.10636 53.24H3.31906V45.3681H6.26018V45.1712H0.165237V45.3681H3.10636V53.24Z" fill="#1D1914"/>
<path d="M14.6465 44.9641H14.8238V53.3226H14.4459V45.7997L9.00068 53.4472H8.82336V45.0886H9.2013V52.6115L14.6465 44.9641Z" fill="#1D1914"/>
<path d="M9.04323 53.5298H8.74052V45.0065H9.28369V52.353L14.6035 44.8815H14.9062V53.4048H14.363V46.0582L9.04323 53.5298ZM8.9062 53.365H8.95814L14.5287 45.5417V53.2405H14.7414V45.0467H14.6895L9.1189 52.87V45.1712H8.9062V53.365Z" fill="#1D1914"/>
<path d="M18.202 53.3226V45.0886H18.5799V52.9606H22.525V45.0886H22.9029V52.9606H26.848V45.0886H27.226V53.3226H18.202Z" fill="#1D1914"/>
<path d="M27.3088 53.4048H18.1191V45.006H18.6623V52.878H22.4422V45.006H22.9853V52.878H26.7652V45.006H27.3083L27.3088 53.4048ZM27.1436 53.24V45.1712H26.9309V53.0432H22.8201V45.1712H22.6074V53.0432H18.4966V45.1712H18.2839V53.24H27.1436Z" fill="#1D1914"/>
<path d="M36.4277 44.9641H36.605V53.3226H36.2271V45.7997L30.7819 53.4472H30.6046V45.0886H30.9825V52.6115L36.4277 44.9641Z" fill="#1D1914"/>
<path d="M30.8244 53.5298H30.5222V45.0065H31.0653V52.353L36.3852 44.8815H36.6879V53.4048H36.1447V46.0582L30.8244 53.5298ZM30.6874 53.365H30.7394L36.3099 45.5417V53.2405H36.5226V45.0467H36.4707L30.9001 52.87V45.1712H30.6874V53.365Z" fill="#1D1914"/>
<path d="M39.9832 53.3226V45.0886H40.3611V48.6568H45.4875V45.0886H45.8654V53.3226H45.4875V49.0188H40.3611V53.3226H39.9832Z" fill="#1D1914"/>
<path d="M45.9483 53.4048H45.4051V49.1009H40.444V53.4048H39.9008V45.006H40.444V48.5742H45.4051V45.006H45.9483V53.4048ZM45.5703 53.24H45.783V45.1712H45.5703V48.7393H40.2787V45.1712H40.066V53.24H40.2787V48.9362H45.5703V53.24Z" fill="#1D1914"/>
<path d="M54.4882 53.3226L53.6257 51.1392H49.326L48.4756 53.3226H48.086L51.3935 44.9641H51.5708L54.8782 53.3226H54.4882ZM51.4759 45.6627L49.4679 50.7776H53.4842L51.4759 45.6627Z" fill="#1D1914"/>
<path d="M54.4322 53.4048L53.5697 51.2214H49.3829L48.5325 53.4048H47.9647L51.3375 44.8815H51.6272L55 53.4048H54.4322ZM54.5446 53.24H54.7564L51.5144 45.0462H51.4499L48.2078 53.24H48.4197L49.27 51.0567H53.6826L54.5446 53.24ZM53.6056 50.8598H49.347L51.4763 45.4364L53.6056 50.8598ZM49.5893 50.6951H53.3633L51.4763 45.8886L49.5893 50.6951Z" fill="#1D1914"/>
<path d="M15.6607 58.2063C15.6607 58.4965 15.5761 58.7438 15.4068 58.9478C15.2376 59.1518 15.032 59.254 14.7911 59.254C14.5001 59.254 14.2726 59.109 14.1091 58.8188L14.2932 58.642C14.4253 58.8559 14.5901 58.9626 14.788 58.9626C14.9425 58.9626 15.0755 58.9023 15.187 58.7817C15.2985 58.6639 15.3643 58.5108 15.3849 58.3215H14.6684V58.0421H15.3777C15.3482 57.8697 15.2792 57.7287 15.1713 57.6189C15.0634 57.5095 14.9353 57.4546 14.7875 57.4546C14.5874 57.4546 14.4212 57.5626 14.2896 57.7791L14.1056 57.5983C14.2672 57.3082 14.4956 57.1631 14.7911 57.1631C15.0298 57.1577 15.2358 57.2591 15.4086 57.4671C15.5815 57.6751 15.6652 57.9215 15.6607 58.2063Z" fill="#1D1914"/>
<path d="M14.7911 59.2607C14.4987 59.2607 14.2672 59.113 14.1029 58.8219L14.1002 58.8175L14.2945 58.6313L14.299 58.6385C14.4289 58.8487 14.5932 58.9554 14.7875 58.9554C14.9393 58.9554 15.0719 58.8951 15.1816 58.7768C15.29 58.6621 15.3558 58.5112 15.3768 58.3282H14.6613V58.0354H15.3692C15.3392 57.8688 15.2712 57.7305 15.1664 57.6238C15.0603 57.5162 14.9326 57.4617 14.7875 57.4617C14.591 57.4617 14.4253 57.5698 14.2954 57.7831L14.2909 57.7907L14.0966 57.6001L14.0993 57.5956C14.2614 57.3046 14.4938 57.1568 14.7911 57.1568C15.0307 57.1506 15.2403 57.2546 15.414 57.4631C15.5869 57.6715 15.6724 57.922 15.6679 58.2068C15.6679 58.4974 15.5819 58.7483 15.4122 58.9527C15.2421 59.1576 15.0334 59.2607 14.7911 59.2607ZM14.1176 58.8197C14.2793 59.1032 14.5059 59.2469 14.7911 59.2469C15.0289 59.2469 15.2344 59.1447 15.4015 58.9434C15.5689 58.7416 15.654 58.4938 15.654 58.2063C15.6585 57.9242 15.5743 57.6773 15.4033 57.4711C15.2371 57.2707 15.037 57.1693 14.809 57.1693C14.8032 57.1693 14.7969 57.1693 14.7911 57.1693C14.501 57.1693 14.273 57.3131 14.1141 57.5965L14.2882 57.7675C14.4203 57.555 14.5883 57.447 14.7875 57.447C14.9367 57.447 15.0674 57.5028 15.1762 57.6135C15.2846 57.7238 15.3549 57.8671 15.3845 58.0403L15.3858 58.0483H14.6751V58.3139H15.3921L15.3912 58.3215C15.3706 58.5112 15.3034 58.667 15.1915 58.7853C15.0791 58.9067 14.9434 58.9684 14.7875 58.9684C14.5901 58.9684 14.4235 58.8621 14.2914 58.6518L14.1172 58.8188L14.1176 58.8197Z" fill="#1D1914"/>
<path d="M16.8716 59.2085V57.2082H17.1344V59.2085H16.8716ZM17.4891 58.1157L18.27 59.2085H17.9391L17.168 58.1242L17.8675 57.2082H18.1948L17.4886 58.1162L17.4891 58.1157Z" fill="#1D1914"/>
<path d="M18.2835 59.2157H17.9355L17.9333 59.213L17.1595 58.1242L17.1626 58.1202L17.8639 57.2015H18.2087L17.4972 58.1162L18.2835 59.2157ZM17.9427 59.2018H18.2566L17.4801 58.1157L18.1809 57.2149H17.8711L17.177 58.1242L17.9427 59.2018ZM17.1412 59.2157H16.8649V57.2015H17.1412V59.2157ZM16.8783 59.2018H17.1273V57.2149H16.8783V59.2018Z" fill="#1D1914"/>
<path d="M19.2082 58.2063C19.2037 57.9215 19.2883 57.6751 19.4625 57.4671C19.6363 57.2591 19.8418 57.1577 20.0782 57.1631C20.3169 57.1577 20.5229 57.2591 20.6958 57.4671C20.8686 57.6751 20.9528 57.9215 20.9483 58.2063C20.9528 58.4885 20.8677 58.734 20.6926 58.9438C20.5175 59.1532 20.3115 59.2554 20.0751 59.25C19.8387 59.2554 19.634 59.1536 19.4612 58.9438C19.2883 58.7344 19.2037 58.4885 19.2082 58.2063ZM20.6783 58.2103C20.6783 57.997 20.621 57.8175 20.5059 57.6724C20.3908 57.5273 20.2484 57.4546 20.0778 57.4546C19.9072 57.4546 19.7643 57.5265 19.6497 57.6702C19.5346 57.8139 19.4773 57.9938 19.4773 58.2103C19.4773 58.4269 19.5346 58.5987 19.6497 58.7425C19.7643 58.8862 19.9058 58.9581 20.0742 58.9581C20.2426 58.9581 20.385 58.8858 20.5023 58.7402C20.6192 58.5952 20.6783 58.4184 20.6783 58.2103Z" fill="#1D1914"/>
<path d="M20.0567 59.2567C19.8266 59.2567 19.6242 59.1527 19.4554 58.9478C19.2821 58.738 19.197 58.4885 19.2015 58.2063C19.197 57.9211 19.283 57.6711 19.4571 57.4626C19.6318 57.2537 19.8414 57.1501 20.0782 57.1564C20.0845 57.1564 20.0903 57.1564 20.0966 57.1564C20.3286 57.1564 20.5319 57.2595 20.7011 57.4631C20.8744 57.6715 20.9595 57.922 20.955 58.2068C20.9595 58.4889 20.8731 58.7384 20.6975 58.9483C20.526 59.1532 20.3227 59.2572 20.0926 59.2572C20.0867 59.2572 20.0809 59.2572 20.0747 59.2572C20.0688 59.2572 20.0626 59.2567 20.0567 59.2567ZM20.0603 57.1698C19.8342 57.1698 19.6349 57.2711 19.4674 57.4715C19.2955 57.6773 19.2104 57.9246 19.2149 58.2063C19.2104 58.4858 19.2946 58.7322 19.4657 58.9393C19.6318 59.1411 19.8306 59.2429 20.0567 59.2429C20.0626 59.2429 20.0684 59.2429 20.0742 59.2429C20.3071 59.2487 20.5135 59.146 20.6863 58.9393C20.8596 58.7322 20.9452 58.4858 20.9407 58.2063C20.9452 57.9242 20.861 57.6769 20.6899 57.4711C20.5193 57.2657 20.3138 57.1644 20.0778 57.1698C20.072 57.1698 20.0666 57.1698 20.0603 57.1698ZM20.0747 58.9652C19.9049 58.9652 19.7603 58.892 19.6448 58.7469C19.5297 58.6027 19.471 58.4224 19.471 58.2108C19.471 57.9992 19.5297 57.8108 19.6448 57.6662C19.7603 57.5215 19.9063 57.4479 20.0782 57.4479C20.2502 57.4479 20.3962 57.522 20.5117 57.668C20.6268 57.8139 20.6855 57.9961 20.6855 58.2103C20.6855 58.4246 20.6259 58.5987 20.5081 58.7447C20.3904 58.8907 20.2444 58.9652 20.0747 58.9652ZM20.0782 57.4617C19.9108 57.4617 19.7684 57.5336 19.6555 57.6747C19.5422 57.8166 19.4849 57.9965 19.4849 58.2103C19.4849 58.4242 19.5422 58.5961 19.6555 58.738C19.7684 58.8795 19.9094 58.9509 20.0747 58.9509C20.2399 58.9509 20.3823 58.8786 20.4974 58.7358C20.6129 58.5925 20.6716 58.4157 20.6716 58.2103C20.6716 58.005 20.6143 57.8197 20.501 57.6764C20.3881 57.5336 20.2457 57.4617 20.0782 57.4617Z" fill="#1D1914"/>
<path d="M25.3246 57.2082L24.506 59.488C24.3833 59.825 24.1957 59.9933 23.9432 59.9933C23.8545 59.9933 23.7694 59.9795 23.6875 59.9522V59.6853C23.7829 59.6991 23.85 59.7058 23.8885 59.7058C23.9794 59.7058 24.0547 59.6817 24.1138 59.6339C24.1729 59.5862 24.223 59.5032 24.2638 59.3853L24.3524 59.1469L23.6633 57.2082H23.9463L24.4953 58.8018L25.0443 57.2082H25.3246Z" fill="#1D1914"/>
<path d="M23.9427 60C23.8536 60 23.7672 59.9862 23.6848 59.9585L23.6799 59.9567V59.6768L23.6879 59.6777C23.7829 59.6911 23.85 59.6982 23.8881 59.6982C23.9767 59.6982 24.0511 59.6746 24.1089 59.6277C24.1666 59.5808 24.2163 59.4982 24.2566 59.3822L24.3444 59.146L23.653 57.2001H23.9508L23.9526 57.2046L24.4953 58.7795L25.0394 57.2001H25.3336L25.3304 57.2095L24.5119 59.4893C24.3887 59.8277 24.1971 59.9991 23.9427 59.9991V60ZM23.6937 59.9473C23.7735 59.9732 23.8567 59.9866 23.9427 59.9866C24.1908 59.9866 24.378 59.8183 24.4989 59.4857L25.3143 57.2153H25.0492L24.4953 58.8233L24.4886 58.8045L23.9409 57.2153H23.6722L24.3587 59.1474L24.3578 59.1496L24.2692 59.388C24.228 59.5063 24.1769 59.5911 24.1169 59.6393C24.0565 59.688 23.9794 59.7125 23.8876 59.7125C23.8496 59.7125 23.786 59.7063 23.6933 59.6929V59.9469L23.6937 59.9473Z" fill="#1D1914"/>
<path d="M26.2659 58.2063C26.2614 57.9215 26.3456 57.6751 26.5184 57.4671C26.6913 57.2591 26.8968 57.1577 27.1359 57.1631C27.2792 57.1631 27.41 57.2015 27.5282 57.2782C27.6464 57.355 27.744 57.4617 27.8215 57.5988L27.6339 57.7796C27.5018 57.5631 27.337 57.455 27.1391 57.455C26.9685 57.455 26.8252 57.5282 26.7092 57.6747C26.5932 57.8211 26.5354 57.9988 26.5354 58.2068C26.5354 58.4148 26.5932 58.5965 26.7092 58.7429C26.8252 58.8893 26.9685 58.9626 27.1391 58.9626C27.3348 58.9626 27.4982 58.8559 27.6303 58.642L27.8179 58.8188C27.654 59.109 27.427 59.254 27.1359 59.254C26.895 59.254 26.6895 59.1518 26.5202 58.9478C26.351 58.7438 26.2659 58.4965 26.2659 58.2063Z" fill="#1D1914"/>
<path d="M27.1355 59.2607C26.8932 59.2607 26.6846 59.1567 26.5144 58.9523C26.3447 58.7478 26.2587 58.4969 26.2587 58.2063C26.2542 57.9211 26.3398 57.6711 26.5126 57.4626C26.6859 57.2537 26.8955 57.151 27.1355 57.1564C27.2792 57.1564 27.4127 57.1952 27.5313 57.2724C27.65 57.3492 27.7494 57.4582 27.8269 57.5952L27.8296 57.5997L27.826 57.6032L27.6321 57.7898L27.6276 57.7827C27.4978 57.5698 27.3334 57.4613 27.1391 57.4613C26.9716 57.4613 26.8288 57.5345 26.7146 57.6782C26.5999 57.8229 26.5422 58.0005 26.5422 58.2059C26.5422 58.4112 26.6004 58.5934 26.7146 58.7376C26.8288 58.8817 26.9711 58.9545 27.1391 58.9545C27.3312 58.9545 27.4946 58.8478 27.6245 58.6376L27.629 58.6304L27.8264 58.8166L27.8238 58.8215C27.6594 59.1125 27.4279 59.2607 27.1355 59.2607ZM27.1176 57.1698C26.8892 57.1698 26.6895 57.2711 26.5234 57.4715C26.3523 57.6773 26.2681 57.9246 26.2726 58.2063C26.2726 58.4938 26.3577 58.7416 26.5251 58.9434C26.6922 59.1447 26.8977 59.2469 27.1355 59.2469C27.4207 59.2469 27.6473 59.1032 27.809 58.8197L27.6316 58.6523C27.4995 58.8625 27.3339 58.9688 27.1391 58.9688C26.9671 58.9688 26.8207 58.8938 26.7038 58.7465C26.5874 58.5996 26.5283 58.4175 26.5283 58.2063C26.5283 57.9952 26.5874 57.8171 26.7038 57.6702C26.8207 57.5224 26.9671 57.4479 27.1391 57.4479C27.3361 57.4479 27.5031 57.5559 27.6352 57.7684L27.813 57.5974C27.7369 57.4644 27.6397 57.359 27.5246 57.284C27.4082 57.2086 27.2774 57.1702 27.1359 57.1702C27.1301 57.1702 27.1238 57.1702 27.118 57.1702L27.1176 57.1698Z" fill="#1D1914"/>
<path d="M30.2602 57.9764V59.209H30.0144V58.95C29.8872 59.1527 29.7005 59.254 29.4551 59.254C29.2822 59.254 29.1425 59.2027 29.0355 59.1C28.9285 58.9974 28.8752 58.8612 28.8752 58.6911C28.8752 58.521 28.9298 58.3858 29.0391 58.2845C29.1483 58.1831 29.2925 58.1322 29.4721 58.1322H29.9974V57.9599C29.9974 57.7983 29.9615 57.6738 29.8899 57.5863C29.8182 57.4988 29.7197 57.455 29.5948 57.455C29.4085 57.455 29.2469 57.5617 29.1103 57.7755L28.9365 57.6028C29.0843 57.3099 29.3095 57.1635 29.6118 57.1635C29.812 57.1635 29.97 57.2341 30.086 57.3751C30.202 57.5162 30.2598 57.7166 30.2598 57.9769L30.2602 57.9764ZM29.9974 58.4407V58.3916H29.5025C29.2639 58.3916 29.1443 58.4862 29.1443 58.6751C29.1443 58.7737 29.1765 58.8509 29.2415 58.9072C29.3064 58.9634 29.3888 58.9916 29.4887 58.9916C29.6275 58.9916 29.7466 58.938 29.8469 58.8313C29.9468 58.7246 29.9969 58.5943 29.9969 58.4411L29.9974 58.4407Z" fill="#1D1914"/>
<path d="M29.4551 59.2607C29.2813 59.2607 29.1385 59.2081 29.0306 59.1049C28.9226 59.0014 28.868 58.8621 28.868 58.6911C28.868 58.5202 28.924 58.3818 29.0341 58.2795C29.1443 58.1773 29.2916 58.1255 29.4721 58.1255H29.9906V57.9599C29.9906 57.8005 29.9548 57.6764 29.885 57.5903C29.8151 57.5046 29.7175 57.4613 29.5952 57.4613C29.4121 57.4613 29.2513 57.568 29.1165 57.7787L29.1121 57.7858L28.9285 57.6037L28.9307 57.5992C29.0789 57.305 29.3086 57.1559 29.6123 57.1559C29.8138 57.1559 29.975 57.2278 30.0918 57.3698C30.2083 57.5113 30.2674 57.7153 30.2674 57.976V59.2152H30.0081V58.9728C29.8805 59.1639 29.6946 59.2603 29.4555 59.2603L29.4551 59.2607ZM29.4721 58.1394C29.2952 58.1394 29.151 58.1898 29.0436 58.2894C28.9365 58.3889 28.8819 58.5242 28.8819 58.6911C28.8819 58.8581 28.9352 58.9942 29.04 59.0951C29.1452 59.196 29.2845 59.2474 29.4546 59.2474C29.6964 59.2474 29.8827 59.146 30.0081 58.9465L30.0206 58.9264V59.2023H30.2526V57.9769C30.2526 57.7197 30.1944 57.5184 30.0802 57.3796C29.966 57.2407 29.8084 57.1707 29.6114 57.1707C29.3145 57.1707 29.0901 57.3158 28.9441 57.6019L29.1085 57.7648C29.2446 57.555 29.4081 57.4483 29.5939 57.4483C29.7206 57.4483 29.8214 57.4934 29.8944 57.5822C29.9669 57.6706 30.0032 57.7979 30.0032 57.9604V58.1398H29.4712L29.4721 58.1394ZM29.4891 58.9978C29.3879 58.9978 29.3033 58.9688 29.2374 58.9121C29.1712 58.855 29.138 58.7751 29.138 58.6751C29.138 58.4822 29.2607 58.3849 29.503 58.3849H30.0045V58.4411C30.0045 58.5956 29.9535 58.7286 29.8527 58.8362C29.752 58.9438 29.6297 58.9987 29.4896 58.9987L29.4891 58.9978ZM29.5025 58.3983C29.2661 58.3983 29.1515 58.4889 29.1515 58.6751C29.1515 58.771 29.1833 58.8474 29.2464 58.9018C29.3095 58.9567 29.391 58.9844 29.4891 58.9844C29.6252 58.9844 29.7439 58.9313 29.8424 58.8264C29.9409 58.7215 29.9906 58.5916 29.9906 58.4407V58.3983H29.5025Z" fill="#1D1914"/>
<path d="M33.1252 58.9295V59.788H32.8624V59.209H31.5561V59.788H31.2933V58.9295H31.4809C31.6175 58.7599 31.69 58.3737 31.699 57.7711L31.7093 57.2082H32.8552V58.9295H33.1252ZM32.5928 58.9295V57.4916H31.9582L31.948 57.7751C31.9368 58.3474 31.8727 58.7322 31.7567 58.9295H32.5928Z" fill="#1D1914"/>
<path d="M32.8561 59.7947V59.2157H31.5633V59.7947H31.287V58.9224H31.4782C31.6117 58.7532 31.6838 58.3657 31.6932 57.7706L31.7035 57.201H32.8632V58.9224H33.1328V59.7947H32.8561ZM32.8695 59.7808H33.1185V58.9362H32.8489V57.2149H31.7164L31.7061 57.7706C31.6972 58.3719 31.6233 58.763 31.4863 58.9331L31.484 58.9358H31.3V59.7804H31.549V59.2014H32.8691V59.7804L32.8695 59.7808ZM32.5999 58.9362H31.7451L31.7514 58.9259C31.866 58.7309 31.93 58.3434 31.9412 57.7751L31.9515 57.4849H32.5995L32.5999 58.9362ZM31.7693 58.9224H32.5861V57.4983H31.965L31.9551 57.7751C31.9439 58.3362 31.8812 58.7219 31.7693 58.9224Z" fill="#1D1914"/>
<path d="M34.2881 59.2085V57.2082H34.551V57.8983H34.9468C35.1354 57.8983 35.2863 57.9577 35.3987 58.0769C35.5111 58.1961 35.5675 58.3541 35.5675 58.5514C35.5675 58.7487 35.5111 58.9076 35.3987 59.0277C35.2863 59.1483 35.1354 59.2085 34.9468 59.2085H34.2881ZM34.551 58.9291H34.933C35.0467 58.9291 35.1358 58.8956 35.2007 58.8286C35.2657 58.7617 35.2979 58.6706 35.2979 58.5554C35.2979 58.4403 35.2648 58.3487 35.1989 58.28C35.1331 58.2117 35.0431 58.1773 34.9294 58.1773H34.551V58.9291Z" fill="#1D1914"/>
<path d="M34.9468 59.2157H34.2814V57.2015H34.5577V57.8916H34.9464C35.1363 57.8916 35.2898 57.9523 35.4036 58.0724C35.5169 58.192 35.5742 58.3536 35.5742 58.5514C35.5742 58.7492 35.5169 58.9112 35.4036 59.0326C35.2903 59.1541 35.1367 59.2157 34.9468 59.2157ZM34.2953 59.2018H34.9468C35.1327 59.2018 35.2831 59.1416 35.3937 59.0233C35.5043 58.9045 35.5608 58.746 35.5608 58.5514C35.5608 58.3568 35.5048 58.1987 35.3937 58.0818C35.2831 57.9648 35.1327 57.9054 34.9468 57.9054H34.5443V57.2153H34.2953V59.2018ZM34.933 58.9362H34.5438V58.1706H34.9294C35.0445 58.1706 35.1367 58.2059 35.2039 58.2755C35.2706 58.3452 35.3046 58.4394 35.3046 58.5554C35.3046 58.6715 35.2715 58.7652 35.2057 58.8335C35.1398 58.9018 35.048 58.9362 34.933 58.9362ZM34.5577 58.9224H34.933C35.044 58.9224 35.1327 58.8893 35.1958 58.8237C35.2589 58.7581 35.2912 58.6679 35.2912 58.5554C35.2912 58.4429 35.2585 58.3519 35.194 58.2849C35.1295 58.2184 35.0409 58.1845 34.9294 58.1845H34.5577V58.9224Z" fill="#1D1914"/>
<path d="M38.3989 58.2434C38.4034 58.517 38.3192 58.755 38.1463 58.9559C37.9735 59.1572 37.7688 59.2549 37.5324 59.2496C37.2776 59.2496 37.0712 59.1456 36.9131 58.9375C36.755 58.7295 36.6762 58.4586 36.6762 58.1242V57.7751C36.6762 57.4631 36.7013 57.2108 36.7515 57.0193C36.8607 56.6086 37.1769 56.3497 37.6999 56.243C37.9798 56.1828 38.166 56.1292 38.2592 56.0828V56.3868C38.1522 56.4417 37.9762 56.4908 37.7303 56.5345C37.4961 56.5756 37.3197 56.6484 37.2015 56.7524C37.0833 56.8564 37.0094 56.9769 36.9798 57.114C36.948 57.2537 36.9319 57.4291 36.9319 57.6398C37.0022 57.514 37.094 57.4153 37.2064 57.3443C37.3188 57.2733 37.4402 57.2376 37.5696 57.2376C37.7926 57.2323 37.9874 57.3314 38.1544 57.5354C38.3214 57.7394 38.4029 57.9755 38.3984 58.2438L38.3989 58.2434ZM37.9569 58.7505C38.0716 58.6121 38.1293 58.4429 38.1293 58.2434C38.1293 58.0438 38.072 57.8742 37.9569 57.7358C37.8423 57.5974 37.7017 57.5282 37.5355 57.5282C37.3694 57.5282 37.2319 57.5979 37.116 57.7376C37 57.8773 36.9422 58.0456 36.9422 58.2429C36.9422 58.4403 37.0009 58.605 37.1177 58.746C37.2346 58.8871 37.3739 58.9576 37.5355 58.9576C37.6972 58.9576 37.8418 58.8889 37.9569 58.7505Z" fill="#1D1914"/>
<path d="M37.5508 59.2567C37.5445 59.2567 37.5382 59.2567 37.5324 59.2567C37.2767 59.2567 37.0667 59.1509 36.9077 58.942C36.7497 58.734 36.6695 58.4586 36.6695 58.1246V57.7755C36.6695 57.464 36.695 57.2091 36.7447 57.018C36.854 56.6064 37.1751 56.3435 37.6981 56.2368C37.9757 56.177 38.1633 56.1234 38.2556 56.077L38.2654 56.0721V56.3912L38.2619 56.393C38.1548 56.4479 37.9762 56.4979 37.7312 56.5417C37.4993 56.5823 37.3228 56.6551 37.206 56.7577C37.0895 56.8604 37.0157 56.9805 36.9865 57.1153C36.9561 57.2479 36.9404 57.4157 36.9391 57.6139C37.008 57.4983 37.0967 57.4055 37.2028 57.3381C37.3161 57.2666 37.4397 57.23 37.5696 57.23C37.7939 57.2242 37.9923 57.3256 38.1598 57.5305C38.3272 57.7349 38.4096 57.9746 38.4052 58.2434C38.4096 58.5175 38.3241 58.759 38.1513 58.9603C37.9824 59.1572 37.7805 59.2567 37.5508 59.2567ZM38.252 56.0935C38.1557 56.139 37.9704 56.1912 37.7008 56.2493C37.1831 56.3551 36.8656 56.6144 36.7577 57.0207C36.708 57.2108 36.6829 57.4644 36.6829 57.7747V58.1237C36.6829 58.455 36.7622 58.7273 36.9185 58.9331C37.0743 59.1384 37.2807 59.2425 37.532 59.2425C37.5382 59.2425 37.544 59.2425 37.5503 59.2425C37.776 59.2425 37.9748 59.1442 38.141 58.9509C38.3116 58.7518 38.3962 58.5135 38.3917 58.2429C38.3962 57.9773 38.3147 57.7403 38.1495 57.5385C37.9887 57.3425 37.7993 57.243 37.5866 57.243C37.5808 57.243 37.5754 57.243 37.5696 57.243C37.442 57.243 37.3206 57.2787 37.21 57.3488C37.0989 57.4193 37.0071 57.518 36.9377 57.6421L36.9247 57.6653V57.639C36.9247 57.4287 36.9409 57.251 36.9727 57.1117C37.0022 56.9742 37.0779 56.851 37.1966 56.7466C37.3152 56.6421 37.4943 56.5685 37.7285 56.5274C37.9695 56.4845 38.1454 56.4354 38.2516 56.3819V56.093L38.252 56.0935ZM37.5355 58.9648C37.3725 58.9648 37.2301 58.8929 37.1124 58.751C36.9946 58.6094 36.935 58.4385 36.935 58.2434C36.935 58.0483 36.9942 57.8742 37.1106 57.7336C37.2275 57.593 37.3703 57.5215 37.5355 57.5215C37.7008 57.5215 37.8463 57.5921 37.9623 57.7314C38.0778 57.8702 38.136 58.0425 38.136 58.2429C38.136 58.4434 38.0774 58.6157 37.9623 58.7545C37.8468 58.8938 37.703 58.9648 37.5355 58.9648ZM37.5355 57.5354C37.3748 57.5354 37.2355 57.605 37.1213 57.7425C37.0071 57.8805 36.9489 58.0488 36.9489 58.2434C36.9489 58.438 37.0076 58.6032 37.1231 58.742C37.2382 58.8809 37.377 58.9509 37.5355 58.9509C37.6941 58.9509 37.8387 58.8817 37.9515 58.746C38.0648 58.6099 38.1222 58.4403 38.1222 58.2429C38.1222 58.0456 38.0648 57.8764 37.9515 57.7398C37.8387 57.6037 37.6985 57.5354 37.5355 57.5354Z" fill="#1D1914"/>
<path d="M40.8546 57.9764V59.209H40.6088V58.95C40.4816 59.1527 40.2949 59.254 40.0495 59.254C39.8766 59.254 39.7369 59.2027 39.6299 59.1C39.5229 58.9974 39.4696 58.8612 39.4696 58.6911C39.4696 58.521 39.5242 58.3858 39.6335 58.2845C39.7427 58.1831 39.8869 58.1322 40.0665 58.1322H40.5917V57.9599C40.5917 57.7983 40.5559 57.6738 40.4843 57.5863C40.4126 57.4988 40.3141 57.455 40.1892 57.455C40.0029 57.455 39.8412 57.5617 39.7047 57.7755L39.5309 57.6028C39.6787 57.3099 39.9039 57.1635 40.2062 57.1635C40.4064 57.1635 40.5644 57.2341 40.6804 57.3751C40.7964 57.5162 40.8542 57.7166 40.8542 57.9769L40.8546 57.9764ZM40.5917 58.4407V58.3916H40.0969C39.8583 58.3916 39.7387 58.4862 39.7387 58.6751C39.7387 58.7737 39.7709 58.8509 39.8359 58.9072C39.9008 58.9634 39.9832 58.9916 40.083 58.9916C40.2219 58.9916 40.341 58.938 40.4413 58.8313C40.5411 58.7246 40.5913 58.5943 40.5913 58.4411L40.5917 58.4407Z" fill="#1D1914"/>
<path d="M40.0495 59.2607C39.8757 59.2607 39.7329 59.2081 39.625 59.1049C39.517 59.0014 39.4624 58.8621 39.4624 58.6911C39.4624 58.5202 39.5184 58.3818 39.6285 58.2795C39.7387 58.1773 39.886 58.1255 40.0665 58.1255H40.585V57.9599C40.585 57.8005 40.5492 57.6764 40.4793 57.5903C40.4095 57.5046 40.3119 57.4613 40.1896 57.4613C40.0065 57.4613 39.8457 57.568 39.7109 57.7787L39.7065 57.7858L39.5229 57.6037L39.5251 57.5992C39.6733 57.305 39.903 57.1559 40.2066 57.1559C40.4081 57.1559 40.5694 57.2278 40.6862 57.3698C40.8027 57.5113 40.8618 57.7153 40.8618 57.976V59.2152H40.6025V58.9728C40.4749 59.1639 40.289 59.2603 40.0499 59.2603L40.0495 59.2607ZM40.0665 58.1394C39.8896 58.1394 39.7454 58.1898 39.6379 58.2894C39.5309 58.3889 39.4763 58.5242 39.4763 58.6911C39.4763 58.8581 39.5296 58.9942 39.6344 59.0951C39.7396 59.196 39.8789 59.2474 40.049 59.2474C40.2908 59.2474 40.4771 59.146 40.6025 58.9465L40.615 58.9264V59.2023H40.847V57.9769C40.847 57.7197 40.7888 57.5184 40.6746 57.3796C40.5604 57.2407 40.4028 57.1707 40.2057 57.1707C39.9089 57.1707 39.6845 57.3158 39.5385 57.6019L39.7029 57.7648C39.839 57.555 40.0024 57.4483 40.1883 57.4483C40.315 57.4483 40.4158 57.4934 40.4887 57.5822C40.5613 57.6706 40.5976 57.7979 40.5976 57.9604V58.1398H40.0656L40.0665 58.1394ZM40.0835 58.9978C39.9823 58.9978 39.8977 58.9688 39.8318 58.9121C39.7656 58.855 39.7324 58.7751 39.7324 58.6751C39.7324 58.4822 39.8551 58.3849 40.0974 58.3849H40.5989V58.4411C40.5989 58.5956 40.5479 58.7286 40.4471 58.8362C40.3464 58.9438 40.2241 58.9987 40.0839 58.9987L40.0835 58.9978ZM40.0969 58.3983C39.8605 58.3983 39.7459 58.4889 39.7459 58.6751C39.7459 58.771 39.7777 58.8474 39.8408 58.9018C39.9039 58.9567 39.9854 58.9844 40.0835 58.9844C40.2196 58.9844 40.3383 58.9313 40.4368 58.8264C40.5353 58.7215 40.585 58.5916 40.585 58.4407V58.3983H40.0969Z" fill="#1D1914"/>
</svg>
