<svg width="173" height="66" viewBox="0 0 173 66" fill="none" xmlns="http://www.w3.org/2000/svg">
<path d="M17.5964 33.5122C17.5256 33.5122 17.454 33.4939 17.3885 33.455C17.1888 33.3383 17.121 33.0797 17.2363 32.8783L29.3105 11.7058C29.3851 11.5753 29.5229 11.4944 29.6714 11.4944C29.8198 11.4944 29.9584 11.5745 30.0323 11.7058L41.8699 32.4649C41.9852 32.667 41.9166 32.9256 41.7177 33.0416C41.5173 33.1583 41.2626 33.0889 41.1481 32.8875L29.6714 12.7623L17.9589 33.3017C17.882 33.4375 17.7404 33.5122 17.5964 33.5122Z" fill="#1D1914"/>
<path d="M44.9319 33.2308C44.788 33.2308 44.6471 33.1552 44.5703 33.0195L32.6257 12.0757C32.5104 11.8736 32.579 11.615 32.7779 11.499C32.9783 11.3816 33.233 11.4517 33.3475 11.6531L45.2921 32.5968C45.4074 32.799 45.3388 33.0576 45.1399 33.1735C45.0743 33.2117 45.002 33.2308 44.9319 33.2308Z" fill="#1D1914"/>
<path d="M48.098 33.2308C47.9541 33.2308 47.8132 33.1552 47.7363 33.0195L35.7917 12.0757C35.6764 11.8736 35.745 11.615 35.9439 11.499C36.1443 11.3816 36.399 11.4517 36.5135 11.6531L48.4581 32.5968C48.5734 32.799 48.5048 33.0576 48.3059 33.1735C48.2404 33.2117 48.168 33.2308 48.098 33.2308Z" fill="#1D1914"/>
<path d="M15.2253 33.2308C14.9947 33.2308 14.8079 33.0416 14.8079 32.8081V18.0396L11.837 21.7317C11.6916 21.9125 11.4286 21.94 11.2501 21.7928C11.0715 21.6455 11.0444 21.3793 11.1898 21.1985L14.9021 16.5856C15.0136 16.4468 15.2004 16.3949 15.3655 16.4544C15.532 16.5147 15.6427 16.6741 15.6427 16.8526V32.8081C15.6427 33.0416 15.4559 33.2308 15.2253 33.2308Z" fill="#1D1914"/>
<path d="M11.568 26.2973C11.4753 26.2973 11.3819 26.266 11.3051 26.2027C11.1265 26.0555 11.0994 25.7893 11.2448 25.6085L14.8471 21.1337C14.9925 20.9529 15.2554 20.9254 15.434 21.0726C15.6126 21.2199 15.6397 21.4861 15.4943 21.6669L11.892 26.1417C11.8091 26.2439 11.6893 26.2973 11.568 26.2973Z" fill="#1D1914"/>
<path d="M18.8826 26.2973C18.7613 26.2973 18.6415 26.2447 18.5586 26.1417L14.9563 21.6669C14.8109 21.4861 14.8373 21.2199 15.0166 21.0726C15.1952 20.9254 15.4581 20.9521 15.6035 21.1337L19.2058 25.6085C19.3512 25.7893 19.3249 26.0555 19.1456 26.2027C19.0679 26.2668 18.9745 26.2973 18.8826 26.2973Z" fill="#1D1914"/>
<path d="M11.568 30.8454C11.4753 30.8454 11.3819 30.8141 11.3051 30.7508C11.1265 30.6035 11.0994 30.3373 11.2448 30.1565L14.8471 25.6825C14.9925 25.5017 15.2554 25.4742 15.434 25.6215C15.6126 25.7687 15.6397 26.0349 15.4943 26.2157L11.892 30.6897C11.8091 30.792 11.6893 30.8454 11.568 30.8454Z" fill="#1D1914"/>
<path d="M18.9225 30.8454C18.8012 30.8454 18.6814 30.7927 18.5985 30.6897L14.9963 26.2157C14.8508 26.0349 14.8772 25.7687 15.0565 25.6215C15.2351 25.4742 15.4981 25.5009 15.6435 25.6825L19.2458 30.1565C19.3912 30.3373 19.3648 30.6035 19.1855 30.7508C19.1079 30.8149 19.0145 30.8454 18.9225 30.8454Z" fill="#1D1914"/>
<path d="M18.9376 21.8881C18.8163 21.8881 18.6965 21.8347 18.6136 21.7325L14.9013 17.1196C14.7559 16.9388 14.783 16.6726 14.9616 16.5254C15.1402 16.3781 15.4031 16.4056 15.5485 16.5864L19.2608 21.1993C19.4063 21.3801 19.3791 21.6463 19.2006 21.7935C19.1229 21.8576 19.0295 21.8881 18.9376 21.8881Z" fill="#1D1914"/>
<path d="M50.6266 33.2308C50.396 33.2308 50.2092 33.0416 50.2092 32.8081V18.0396L47.2383 21.7317C47.0929 21.9125 46.8299 21.94 46.6513 21.7928C46.4728 21.6455 46.4456 21.3793 46.5911 21.1985L50.3026 16.5856C50.4141 16.4468 50.6002 16.3949 50.766 16.4544C50.9325 16.5147 51.0432 16.6741 51.0432 16.8526V32.8081C51.0432 33.0416 50.8571 33.2308 50.6266 33.2308Z" fill="#1D1914"/>
<path d="M46.9693 26.2973C46.8766 26.2973 46.7832 26.266 46.7056 26.2027C46.527 26.0555 46.5006 25.7893 46.6461 25.6085L50.2483 21.1337C50.3938 20.9529 50.6567 20.9254 50.8353 21.0726C51.0139 21.2199 51.041 21.4861 50.8956 21.6669L47.2933 26.1417C47.2104 26.2439 47.0906 26.2973 46.9693 26.2973Z" fill="#1D1914"/>
<path d="M54.2831 26.2973C54.1618 26.2973 54.042 26.2447 53.9591 26.1417L50.3568 21.6669C50.2114 21.4861 50.2378 21.2199 50.4171 21.0726C50.5957 20.9254 50.8587 20.9521 51.0041 21.1337L54.6064 25.6085C54.7518 25.7893 54.7254 26.0555 54.5461 26.2027C54.4685 26.2668 54.375 26.2973 54.2831 26.2973Z" fill="#1D1914"/>
<path d="M46.9693 30.8454C46.8766 30.8454 46.7832 30.8141 46.7056 30.7508C46.527 30.6035 46.5006 30.3373 46.6461 30.1565L50.2483 25.6825C50.3938 25.5017 50.6567 25.4742 50.8353 25.6222C51.0139 25.7694 51.0402 26.0357 50.8948 26.2165L47.2925 30.6905C47.2096 30.7927 47.0906 30.8454 46.9693 30.8454Z" fill="#1D1914"/>
<path d="M54.3238 30.8454C54.2025 30.8454 54.0827 30.7927 53.9998 30.6897L50.3975 26.2157C50.2521 26.0349 50.2785 25.7687 50.4578 25.6215C50.6364 25.4742 50.8993 25.5009 51.0448 25.6825L54.647 30.1565C54.7925 30.3373 54.7661 30.6035 54.5868 30.7508C54.5092 30.8149 54.4157 30.8454 54.3238 30.8454Z" fill="#1D1914"/>
<path d="M54.3381 21.8881C54.2168 21.8881 54.097 21.8347 54.0141 21.7325L50.3018 17.1196C50.1564 16.9388 50.1836 16.6726 50.3621 16.5254C50.5407 16.3781 50.8036 16.4056 50.9491 16.5864L54.6614 21.1993C54.8068 21.3801 54.7797 21.6463 54.6011 21.7935C54.5235 21.8576 54.43 21.8881 54.3381 21.8881Z" fill="#1D1914"/>
<path d="M31.5965 33.3238C31.3659 33.3238 31.1791 33.1346 31.1791 32.9012V26.6826H28.0153V32.8081C28.0153 33.0416 27.8284 33.2308 27.5979 33.2308C27.3673 33.2308 27.1804 33.0416 27.1804 32.8081V26.2599C27.1804 26.0265 27.3673 25.8373 27.5979 25.8373H31.5957C31.8263 25.8373 32.0131 26.0265 32.0131 26.2599V32.9012C32.0131 33.1346 31.827 33.3238 31.5965 33.3238Z" fill="#1D1914"/>
<path d="M10.7709 48.679C10.7957 48.679 10.8198 48.679 10.8447 48.679C13.4283 48.679 14.7491 47.8696 16.0277 47.0869C17.2619 46.331 18.4275 45.617 20.7783 45.617C20.8017 45.617 20.825 45.617 20.8476 45.617C23.2451 45.6315 24.4137 46.3661 25.6509 47.1434C26.9318 47.949 28.2564 48.7812 30.889 48.7972C30.9138 48.7972 30.9379 48.7972 30.9628 48.7972C33.5464 48.7972 34.868 47.9879 36.1459 47.2052C37.38 46.4492 38.5456 45.7352 40.8964 45.7352C40.9198 45.7352 40.9431 45.7352 40.9657 45.7352C43.3632 45.7497 44.5318 46.4843 45.7698 47.2616C47.0507 48.0672 48.376 48.8994 51.0086 48.9155C51.0334 48.9155 51.0576 48.9155 51.0824 48.9155C53.666 48.9155 54.9876 48.1061 56.2662 47.3234C57.5004 46.5675 58.6667 45.8534 61.0175 45.8534C61.0416 45.8534 61.0688 45.8557 61.0899 45.8534C61.3189 45.8534 61.5058 45.6658 61.5073 45.4339C61.5088 45.2005 61.3227 45.0105 61.0929 45.009C61.068 45.009 61.0439 45.009 61.019 45.009C58.4354 45.009 57.1139 45.8183 55.8352 46.601C54.6011 47.357 53.4347 48.071 51.0839 48.071C51.0606 48.071 51.038 48.071 51.0146 48.071C48.6171 48.0565 47.4485 47.3219 46.2106 46.5446C44.9297 45.739 43.6043 44.9068 40.9718 44.8907C38.3354 44.8801 37.0048 45.6925 35.7149 46.482C34.4807 47.238 33.3151 47.952 30.9643 47.952C30.941 47.952 30.9176 47.952 30.895 47.952C28.4975 47.9375 27.3289 47.2029 26.0917 46.4256C24.8108 45.62 23.4862 44.7878 20.8536 44.7717C18.215 44.7588 16.8867 45.5735 15.5968 46.363C14.3626 47.119 13.197 47.833 10.8462 47.833C10.8228 47.833 10.7995 47.833 10.7769 47.833C8.54665 47.82 7.27481 46.9519 6.04592 46.1128C4.92025 45.3446 3.76294 44.5597 1.97121 44.5307C2.033 44.7008 2.09402 44.8694 2.16334 45.0433C2.21006 45.16 2.26129 45.2737 2.30876 45.3896C3.64916 45.501 4.56612 46.1212 5.57877 46.8131C6.8491 47.6804 8.28746 48.6637 10.7709 48.679Z" fill="#1D1914"/>
<path d="M51.0832 54.3164C51.0606 54.3164 51.0372 54.3164 51.0139 54.3164C48.6164 54.3026 47.447 53.568 46.2098 52.7899C44.9289 51.9844 43.6036 51.1514 40.971 51.1361C40.9461 51.1361 40.922 51.1361 40.8972 51.1361C38.3136 51.1361 36.992 51.9455 35.7141 52.7281C34.48 53.4841 33.3144 54.1981 30.9636 54.1981C30.941 54.1981 30.9176 54.1981 30.8942 54.1981C28.4967 54.1844 27.3281 53.4498 26.0909 52.6717C24.8101 51.8661 23.4855 51.0331 20.8529 51.0178C20.828 51.0178 20.8039 51.0178 20.7791 51.0178C18.1954 51.0178 16.8739 51.8272 15.596 52.6099C14.3618 53.3651 13.1955 54.0791 10.8455 54.0791C10.8221 54.0791 10.7987 54.0791 10.7754 54.0791C8.80358 54.0677 7.58146 53.388 6.47463 52.6503C6.92746 53.2438 7.40139 53.8213 7.89491 54.382C8.68679 54.6993 9.61505 54.9175 10.7709 54.9243C10.7957 54.9243 10.8206 54.9243 10.8455 54.9243C13.4291 54.9243 14.7499 54.115 16.0277 53.3331C17.2619 52.5771 18.4283 51.8631 20.7783 51.8631C20.8017 51.8631 20.8243 51.8631 20.8476 51.8631C23.2451 51.8776 24.4137 52.6122 25.6509 53.3895C26.9318 54.1951 28.2564 55.0273 30.889 55.0434C30.9138 55.0434 30.9379 55.0434 30.9628 55.0434C33.5464 55.0434 34.868 54.234 36.1459 53.4513C37.38 52.6953 38.5456 51.9813 40.8964 51.9813C40.9198 51.9813 40.9431 51.9813 40.9657 51.9813C43.3632 51.9958 44.5318 52.7304 45.7698 53.5078C47.0507 54.3133 48.376 55.1456 51.0086 55.1616C51.0334 55.1616 51.0576 55.1616 51.0824 55.1616C53.666 55.1616 54.9876 54.3522 56.2662 53.5695C56.9052 53.1782 57.5268 52.7998 58.3021 52.5237C58.4754 52.2971 58.6471 52.069 58.8144 51.8371C58.9116 51.7021 59.0081 51.5671 59.1007 51.4321C57.6948 51.7136 56.7499 52.2864 55.8345 52.8464C54.6003 53.6023 53.434 54.3164 51.0832 54.3164Z" fill="#1D1914"/>
<path d="M40.9718 57.3792C38.3354 57.357 37.0048 58.1801 35.7149 58.9704C34.4807 59.7264 33.3151 60.4404 30.9643 60.4404C30.941 60.4404 30.9176 60.4404 30.895 60.4404C28.4975 60.4259 27.3289 59.6913 26.0917 58.914C24.8108 58.1084 23.4862 57.2762 20.8536 57.2602C18.215 57.2358 16.8867 58.0611 15.5968 58.8514C15.0754 59.1703 14.566 59.4816 13.9746 59.7348C14.2481 59.9202 14.5238 60.104 14.8019 60.2802C15.2389 60.0583 15.6359 59.8149 16.0292 59.5746C17.2634 58.8186 18.429 58.1046 20.7798 58.1046C20.8024 58.1046 20.8258 58.1046 20.8491 58.1046C23.2466 58.1184 24.4152 58.853 25.6524 59.6311C26.9333 60.4366 28.2579 61.2696 30.8905 61.2849C33.5276 61.3055 34.8574 60.4839 36.1474 59.6936C37.3815 58.9376 38.5471 58.2236 40.8979 58.2236C40.9205 58.2236 40.9439 58.2236 40.9672 58.2236C43.3647 58.2381 44.5326 58.972 45.7705 59.7493C46.5571 60.2436 47.3618 60.7479 48.4747 61.0675C48.8333 60.8653 49.1875 60.6556 49.5386 60.4404C48.0769 60.2017 47.1629 59.6303 46.2113 59.0315C44.9304 58.2267 43.6051 57.3937 40.9725 57.3776L40.9718 57.3792Z" fill="#1D1914"/>
<path d="M63.9967 26.0402C63.8392 24.3078 63.3759 22.4404 62.6571 20.6394C60.2513 14.6129 56.1728 9.47522 50.8624 5.78155C45.4247 1.99864 39.0497 0 32.4275 0H31.0133C20.6404 0 10.7505 5.10797 4.55708 13.664C1.17782 18.3325 0.444703 23.2978 2.54685 27.2867C4.41618 30.8339 8.33945 33.1865 12.7856 33.426C16.8761 33.6457 21.0654 33.5695 25.1167 33.4962C27.148 33.4588 29.2487 33.4207 31.3011 33.4207L33.0416 33.4245C35.0074 33.4215 37.0138 33.3849 38.954 33.3498C42.988 33.2765 47.1599 33.2002 51.2188 33.4192C55.2302 33.6351 58.773 35.6787 60.573 38.7774C60.7184 38.772 60.8676 38.7682 61.0213 38.7682C61.0462 38.7682 61.0703 38.7682 61.0951 38.7682C61.3257 38.7697 61.5111 38.9597 61.5095 39.1931C61.508 39.4258 61.3219 39.6127 61.0921 39.6127C61.0718 39.6165 61.0447 39.6127 61.0198 39.6127C61.0153 39.6127 61.0115 39.6127 61.0077 39.6127C62.587 43.1011 61.9051 47.3539 59.103 51.4321C59.4413 51.3642 59.8052 51.3131 60.203 51.2841C62.9622 46.9298 63.4459 42.4039 61.5013 38.714C59.6319 35.1668 55.7087 32.8142 51.2625 32.5747C47.1742 32.355 42.9873 32.4305 38.9389 32.5045C37.0018 32.5396 34.9991 32.5762 33.0416 32.5793L31.3019 32.5755C29.2412 32.5755 27.1367 32.6136 25.1016 32.651C21.0646 32.7242 16.8905 32.8005 12.8301 32.5823C8.67398 32.3588 5.01594 30.1771 3.28298 26.8893C1.33831 23.1987 2.04806 18.5599 5.23067 14.1636C11.2674 5.82427 20.9056 0.845226 31.0133 0.845226H32.4275C38.8809 0.845226 45.0924 2.79352 50.39 6.47879C55.5655 10.0786 59.54 15.0851 61.884 20.9575C62.5727 22.6822 63.0157 24.4673 63.1672 26.1188C63.1883 26.3515 63.397 26.5269 63.6207 26.501C63.8505 26.4796 64.0193 26.2737 63.9982 26.0418L63.9967 26.0402Z" fill="#1D1914"/>
<path d="M60.5707 38.7766C58.2787 38.8643 57.0378 39.6234 55.836 40.3595C54.6018 41.1155 53.4355 41.8295 51.0847 41.8295C51.0613 41.8295 51.038 41.8295 51.0146 41.8295C48.6171 41.815 47.4485 41.0804 46.2106 40.303C44.9297 39.4975 43.6043 38.6652 40.9718 38.6492C40.9469 38.6492 40.922 38.6492 40.8972 38.6492C38.3136 38.6492 36.9927 39.4586 35.7149 40.2405C34.4807 40.9965 33.3144 41.7105 30.9643 41.7105C30.941 41.7105 30.9184 41.7105 30.895 41.7105C28.4975 41.696 27.3289 40.9614 26.0917 40.184C24.8108 39.3785 23.4862 38.5462 20.8536 38.5302C18.215 38.5111 16.8867 39.3319 15.5968 40.1215C14.3626 40.8775 13.197 41.5915 10.8462 41.5915C10.8228 41.5915 10.7995 41.5915 10.7769 41.5915C8.54665 41.5785 7.27481 40.7104 6.04516 39.8713C4.60982 38.891 3.124 37.8765 0.334698 38.4516C0.10866 38.4982 -0.0375122 38.7209 0.00844883 38.9498C0.0287922 39.0527 0.0868128 39.1382 0.162912 39.1977C0.22771 39.1313 0.3136 39.084 0.413056 39.0733C0.559981 39.0558 0.697112 39.1199 0.783006 39.229C3.04188 38.846 4.22255 39.6462 5.57802 40.5715C6.84835 41.4389 8.28821 42.4222 10.7709 42.4367C13.405 42.4603 14.7378 41.6357 16.0277 40.8454C17.2619 40.0894 18.4275 39.3754 20.7783 39.3754C20.8009 39.3754 20.8243 39.3754 20.8476 39.3754C23.2451 39.3891 24.4137 40.1238 25.6509 40.9019C26.9318 41.7074 28.2564 42.5404 30.889 42.5557C33.5261 42.5816 34.8552 41.7547 36.1459 40.9644C37.38 40.2084 38.5464 39.4944 40.8964 39.4944C40.9198 39.4944 40.9431 39.4944 40.9665 39.4944C43.364 39.5081 44.5334 40.2428 45.7705 41.0209C47.0522 41.8256 48.3768 42.6587 51.0093 42.6739C51.035 42.6739 51.0591 42.6739 51.0839 42.6739C53.6675 42.6739 54.9876 41.8646 56.2662 41.0819C57.4981 40.3282 58.663 39.6149 61.0055 39.6127C60.9294 39.4441 60.8503 39.2778 60.7636 39.113C60.7033 38.9986 60.6355 38.8887 60.5707 38.7766Z" fill="#1D1914"/>
<path d="M0.162911 39.1962C0.0777702 39.2831 0.0295468 39.4059 0.0438625 39.5379C0.234488 41.2955 0.496689 42.8585 1.09569 44.5757C1.40385 44.5414 1.69545 44.5261 1.97121 44.5307C1.33755 42.7929 1.06555 41.223 0.873422 39.4456C0.864381 39.3625 0.831228 39.2885 0.78376 39.2274C0.690331 39.2434 0.598409 39.2579 0.501213 39.2778C0.377646 39.3029 0.255587 39.2686 0.162911 39.1962Z" fill="#1D1914"/>
<path d="M6.47539 52.648C4.78764 50.4358 3.38621 48.0008 2.30876 45.3896C2.02697 45.366 1.72633 45.3645 1.40159 45.3904C2.25828 47.5317 3.33045 49.5578 4.59023 51.4489C5.10861 51.7181 5.57952 52.0385 6.04516 52.3559C6.18757 52.4528 6.32997 52.5512 6.47539 52.648Z" fill="#1D1914"/>
<path d="M13.6559 59.522C11.5198 58.036 9.5917 56.3074 7.89491 54.3797C7.12713 54.0723 6.48819 53.6718 5.89899 53.2751C7.89566 55.8687 10.2751 58.1603 12.9823 60.0735C13.3432 59.9804 13.6702 59.866 13.9746 59.7348C13.8691 59.6631 13.7613 59.5952 13.6559 59.522Z" fill="#1D1914"/>
<path d="M31.6198 65.1563C25.6253 65.1563 19.841 63.4727 14.8019 60.2802C14.5148 60.4259 14.2089 60.5617 13.8774 60.6815C19.1606 64.1608 25.2749 66 31.6191 66H33.0333C38.9495 66 44.7082 64.3355 49.7141 61.32C49.2591 61.262 48.8492 61.1758 48.4755 61.069C43.7912 63.7084 38.4816 65.1563 33.0341 65.1563H31.6198Z" fill="#1D1914"/>
<path d="M49.5386 60.4404C49.9515 60.5076 50.4081 60.5495 50.9219 60.5564C54.1995 58.3838 57.1161 55.6147 59.4895 52.336C59.5212 52.2918 59.5513 52.2476 59.583 52.2033C59.1053 52.2773 58.6856 52.3871 58.3036 52.5229C55.8594 55.7185 52.8741 58.3892 49.5386 60.4404Z" fill="#1D1914"/>
<path d="M0.499704 39.2778C0.596901 39.2579 0.688823 39.2434 0.782252 39.2274C0.695604 39.1183 0.558476 39.0543 0.412305 39.0718C0.312848 39.0825 0.228462 39.1298 0.162911 39.1962C0.255587 39.2686 0.376137 39.3037 0.499704 39.2778Z" fill="#1D1914"/>
<path d="M61.0055 39.6127C61.01 39.6127 61.0145 39.6127 61.0183 39.6127C61.0424 39.6127 61.0695 39.6172 61.0906 39.6127C61.3197 39.6127 61.5065 39.425 61.508 39.1931C61.5095 38.9597 61.3234 38.7697 61.0936 38.7682C61.0688 38.7682 61.0447 38.7682 61.0198 38.7682C60.8653 38.7682 60.7162 38.7705 60.5707 38.7766C60.6355 38.8887 60.7033 38.9986 60.7636 39.113C60.8503 39.2778 60.9316 39.4441 61.0077 39.6127L61.0055 39.6127Z" fill="#1D1914"/>
<path d="M2.30876 45.3896C2.26129 45.2737 2.21006 45.16 2.16334 45.0433C2.09402 44.8694 2.033 44.7008 1.97121 44.5307C1.69545 44.5261 1.40385 44.5414 1.09569 44.5757C1.1861 44.8335 1.28255 45.0944 1.38879 45.3606C1.39255 45.3706 1.39707 45.3797 1.40159 45.3904C1.72633 45.3645 2.02621 45.3675 2.30801 45.3912L2.30876 45.3896Z" fill="#1D1914"/>
<path d="M6.47539 52.648C6.32997 52.5512 6.18757 52.4528 6.04516 52.3559C5.57952 52.0385 5.10861 51.7181 4.59023 51.4489C5.00614 52.0729 5.44239 52.6824 5.89899 53.2751C6.48819 53.6718 7.12713 54.0723 7.89491 54.3797C7.40139 53.819 6.92822 53.2415 6.47539 52.648Z" fill="#1D1914"/>
<path d="M58.8159 51.8371C58.6479 52.069 58.4769 52.2964 58.3036 52.5229C58.6856 52.3871 59.1053 52.2773 59.583 52.2033C59.8007 51.8974 60.0071 51.5915 60.2015 51.2841C59.8037 51.3131 59.439 51.3649 59.1007 51.4321C59.0081 51.5671 58.9139 51.7021 58.8159 51.8371Z" fill="#1D1914"/>
<path d="M48.4755 61.069C48.8492 61.1758 49.2591 61.262 49.7141 61.32C50.1218 61.0744 50.5249 60.8196 50.9219 60.5564C50.4081 60.5495 49.9507 60.5091 49.5378 60.442C49.1867 60.6578 48.8326 60.8676 48.4739 61.069H48.4755Z" fill="#1D1914"/>
<path d="M13.9746 59.7348C13.6702 59.866 13.3432 59.9804 12.9823 60.0735C13.0501 60.1216 13.1156 60.1712 13.1834 60.2184C13.4125 60.3779 13.6453 60.5289 13.8774 60.6815C14.2089 60.5617 14.5148 60.4259 14.8019 60.2802C14.5238 60.104 14.2481 59.9202 13.9746 59.7348Z" fill="#1D1914"/>
<path d="M61.9307 45.9007C61.9111 45.9007 61.8908 45.8992 61.8704 45.8962C61.6422 45.8626 61.3589 45.8496 61.0025 45.855C61.0002 45.855 60.9979 45.855 60.9957 45.855C60.7681 45.855 60.582 45.6704 60.5783 45.4392C60.5745 45.2058 60.7583 45.0136 60.9889 45.0097C61.389 45.0029 61.7167 45.0197 61.9895 45.0593C62.2178 45.0929 62.3753 45.3073 62.3429 45.5376C62.3127 45.7482 62.1342 45.8992 61.9307 45.8992V45.9007Z" fill="#1D1914"/>
<path d="M0.000161195 38.8689L0.0438625 39.5379L0.873422 39.4456L0.844036 39.1771" fill="#1D1914"/>
<path d="M85.5575 34.5166V20.9788H80.6378V20.357H91.1101V20.9788H86.1904V34.5166H85.5575Z" fill="#1D1914"/>
<path d="M85.4197 34.6579V21.1201H80.5V20.2142H91.2487V21.1201H86.329V34.6579H85.4197ZM85.6961 34.3746H86.0519V20.8368H90.9716V20.4982H80.7764V20.8368H85.6961V34.3746Z" fill="#1D1914"/>
<path d="M105 20.142H105.296V34.5166H104.664V21.5792L95.5557 34.7308H95.2591V20.3562H95.8913V33.2937L105 20.142Z" fill="#1D1914"/>
<path d="M95.6268 34.8728H95.1205V20.215H96.0291V32.8491L104.928 20H105.434V34.6579H104.525V22.0237L95.6268 34.8728ZM95.3976 34.5895H95.4845L104.803 21.1354V34.3753H105.158V20.2841H105.071L95.7534 33.7382V20.4982H95.3976V34.5895Z" fill="#1D1914"/>
<path d="M110.947 34.5166V20.3562H111.579V33.894H118.178V20.3562H118.81V33.894H125.409V20.3562H126.042V34.5166H110.947Z" fill="#1D1914"/>
<path d="M126.18 34.6579H110.808V20.2142H111.717V33.752H118.04V20.2142H118.948V33.752H125.271V20.2142H126.179L126.18 34.6579ZM125.904 34.3746V20.4982H125.548V34.036H118.672V20.4982H118.316V34.036H111.44V20.4982H111.084V34.3746H125.904Z" fill="#1D1914"/>
<path d="M141.434 20.142H141.73V34.5166H141.098V21.5792L131.99 34.7308H131.693V20.3562H132.325V33.2937L141.434 20.142Z" fill="#1D1914"/>
<path d="M132.061 34.8728H131.555V20.215H132.464V32.8491L141.362 20H141.869V34.6579H140.96V22.0237L132.061 34.8728ZM131.832 34.5895H131.919L141.237 21.1354V34.3753H141.592V20.2841H141.505L132.187 33.7382V20.4982H131.832V34.5895Z" fill="#1D1914"/>
<path d="M147.381 34.5166V20.3562H148.013V26.4925H156.588V20.3562H157.22V34.5166H156.588V27.1151H148.013V34.5166H147.381Z" fill="#1D1914"/>
<path d="M157.359 34.6579H156.45V27.2564H148.152V34.6579H147.243V20.2142H148.152V26.3505H156.45V20.2142H157.359V34.6579ZM156.727 34.3746H157.083V20.4982H156.727V26.6345H147.875V20.4982H147.52V34.3746H147.875V26.9731H156.727V34.3746Z" fill="#1D1914"/>
<path d="M171.644 34.5166L170.201 30.7617H163.009L161.587 34.5166H160.935L166.467 20.142H166.764L172.296 34.5166H171.644ZM166.605 21.3435L163.246 30.1399H169.965L166.605 21.3435Z" fill="#1D1914"/>
<path d="M171.55 34.6579L170.108 30.903H163.104L161.682 34.6579H160.732L166.374 20H166.858L172.5 34.6579H171.55ZM171.738 34.3746H172.093L166.669 20.2833H166.562L161.139 34.3746H161.493L162.915 30.6197H170.296L171.738 34.3746ZM170.167 30.2812H163.044L166.606 20.9543L170.167 30.2812ZM163.449 29.9979H169.762L166.606 21.732L163.449 29.9979Z" fill="#1D1914"/>
<path d="M106.696 42.9153C106.696 43.4144 106.555 43.8397 106.271 44.1905C105.988 44.5413 105.644 44.7172 105.242 44.7172C104.755 44.7172 104.374 44.4677 104.101 43.9686L104.409 43.6646C104.63 44.0324 104.905 44.2158 105.236 44.2158C105.495 44.2158 105.717 44.1122 105.904 43.9049C106.09 43.7022 106.2 43.4389 106.235 43.1134H105.036V42.6328H106.223C106.173 42.3365 106.058 42.0939 105.877 41.905C105.697 41.717 105.483 41.6225 105.236 41.6225C104.901 41.6225 104.623 41.8083 104.403 42.1806L104.095 41.8697C104.365 41.3707 104.747 41.1212 105.242 41.1212C105.641 41.112 105.985 41.2863 106.274 41.644C106.564 42.0018 106.704 42.4255 106.696 42.9153Z" fill="#1D1914"/>
<path d="M105.242 44.7287C104.752 44.7287 104.365 44.4746 104.09 43.974L104.086 43.9663L104.411 43.6462L104.418 43.6585C104.636 44.0201 104.91 44.2036 105.236 44.2036C105.489 44.2036 105.711 44.0999 105.895 43.8965C106.076 43.6992 106.186 43.4397 106.221 43.1249H105.024V42.6213H106.209C106.158 42.335 106.044 42.097 105.869 41.9135C105.692 41.7285 105.478 41.6348 105.236 41.6348C104.907 41.6348 104.63 41.8206 104.412 42.1876L104.405 42.2006L104.08 41.8728L104.084 41.8651C104.355 41.3646 104.744 41.1105 105.242 41.1105C105.642 41.0997 105.993 41.2786 106.283 41.6371C106.573 41.9956 106.716 42.4263 106.708 42.9161C106.708 43.4159 106.564 43.8473 106.28 44.199C105.996 44.5513 105.647 44.7287 105.242 44.7287ZM104.115 43.9702C104.385 44.4577 104.764 44.7049 105.242 44.7049C105.639 44.7049 105.983 44.5291 106.262 44.1828C106.543 43.8358 106.685 43.4097 106.685 42.9153C106.692 42.4302 106.552 42.0056 106.265 41.6509C105.988 41.3062 105.653 41.132 105.271 41.132C105.262 41.132 105.251 41.132 105.242 41.132C104.756 41.132 104.375 41.3792 104.109 41.8667L104.4 42.1607C104.621 41.7953 104.902 41.6095 105.236 41.6095C105.485 41.6095 105.704 41.7054 105.886 41.8958C106.067 42.0854 106.185 42.3319 106.234 42.6298L106.236 42.6436H105.048V43.1004H106.247L106.245 43.1134C106.211 43.4397 106.098 43.7076 105.911 43.9111C105.723 44.1199 105.496 44.2258 105.236 44.2258C104.905 44.2258 104.627 44.0431 104.406 43.6815L104.114 43.9686L104.115 43.9702Z" fill="#1D1914"/>
<path d="M108.722 44.6389V41.1988H109.161V44.6389H108.722ZM109.754 42.7595L111.061 44.6389H110.507L109.217 42.7741L110.387 41.1988H110.935L109.754 42.7595Z" fill="#1D1914"/>
<path d="M111.083 44.6511H110.501L110.498 44.6465L109.203 42.7741L109.208 42.7672L110.381 41.1872H110.958L109.768 42.7603L111.083 44.6511ZM110.513 44.6273H111.038L109.739 42.7595L110.912 41.2103H110.393L109.232 42.7741L110.513 44.6273ZM109.172 44.6511H108.71V41.1872H109.172V44.6511ZM108.733 44.6273H109.149V41.2103H108.733V44.6273Z" fill="#1D1914"/>
<path d="M112.63 42.9153C112.623 42.4255 112.764 42.0018 113.055 41.644C113.346 41.2863 113.69 41.112 114.085 41.1212C114.485 41.112 114.829 41.2863 115.118 41.644C115.407 42.0018 115.548 42.4255 115.541 42.9153C115.548 43.4005 115.406 43.8228 115.113 44.1836C114.82 44.5437 114.476 44.7195 114.08 44.7103C113.685 44.7195 113.342 44.5444 113.053 44.1836C112.764 43.8235 112.623 43.4005 112.63 42.9153ZM115.089 42.9223C115.089 42.5553 114.993 42.2467 114.801 41.9972C114.608 41.7477 114.37 41.6225 114.085 41.6225C113.799 41.6225 113.56 41.7461 113.369 41.9933C113.176 42.2405 113.08 42.5499 113.08 42.9223C113.08 43.2946 113.176 43.5902 113.369 43.8374C113.56 44.0846 113.797 44.2082 114.079 44.2082C114.36 44.2082 114.599 44.0838 114.795 43.8335C114.99 43.584 115.089 43.28 115.089 42.9223Z" fill="#1D1914"/>
<path d="M114.049 44.7218C113.664 44.7218 113.326 44.5429 113.044 44.1905C112.754 43.8297 112.611 43.4005 112.619 42.9153C112.611 42.4248 112.755 41.9949 113.047 41.6363C113.339 41.2771 113.689 41.0989 114.085 41.1097C114.096 41.1097 114.106 41.1097 114.116 41.1097C114.504 41.1097 114.844 41.287 115.127 41.6371C115.417 41.9956 115.56 42.4263 115.552 42.9161C115.56 43.4013 115.415 43.8305 115.121 44.1913C114.834 44.5437 114.494 44.7225 114.109 44.7225C114.1 44.7225 114.09 44.7225 114.079 44.7225C114.07 44.7225 114.059 44.7218 114.049 44.7218ZM114.055 41.1327C113.677 41.1327 113.344 41.307 113.064 41.6517C112.776 42.0056 112.634 42.4309 112.641 42.9153C112.634 43.3959 112.775 43.8197 113.061 44.1759C113.339 44.5229 113.671 44.698 114.049 44.698C114.059 44.698 114.069 44.698 114.079 44.698C114.468 44.7079 114.813 44.5314 115.103 44.1759C115.392 43.8197 115.536 43.3959 115.528 42.9153C115.536 42.4302 115.395 42.0048 115.109 41.6509C114.823 41.2978 114.479 41.1235 114.085 41.1327C114.075 41.1327 114.066 41.1327 114.055 41.1327ZM114.079 44.2204C113.796 44.2204 113.554 44.0945 113.36 43.845C113.168 43.5971 113.07 43.2869 113.07 42.923C113.07 42.5591 113.168 42.2352 113.36 41.9864C113.554 41.7377 113.798 41.611 114.085 41.611C114.373 41.611 114.617 41.7385 114.81 41.9895C115.003 42.2405 115.101 42.5538 115.101 42.9223C115.101 43.2908 115.001 43.5902 114.804 43.8412C114.607 44.0923 114.363 44.2204 114.079 44.2204ZM114.085 41.6348C113.805 41.6348 113.567 41.7584 113.378 42.001C113.189 42.2451 113.093 42.5545 113.093 42.9223C113.093 43.29 113.189 43.5856 113.378 43.8297C113.567 44.0731 113.803 44.1959 114.079 44.1959C114.356 44.1959 114.594 44.0715 114.787 43.8258C114.98 43.5794 115.078 43.2754 115.078 42.9223C115.078 42.5691 114.982 42.2505 114.793 42.0041C114.604 41.7584 114.366 41.6348 114.085 41.6348Z" fill="#1D1914"/>
<path d="M122.861 41.1988L121.492 45.1194C121.287 45.6991 120.973 45.9885 120.55 45.9885C120.402 45.9885 120.26 45.9647 120.123 45.9179V45.4588C120.282 45.4826 120.395 45.4941 120.459 45.4941C120.611 45.4941 120.737 45.4526 120.836 45.3705C120.935 45.2883 121.019 45.1455 121.087 44.9429L121.235 44.5329L120.082 41.1988H120.556L121.474 43.9395L122.392 41.1988H122.861Z" fill="#1D1914"/>
<path d="M120.55 46C120.401 46 120.256 45.9762 120.118 45.9286L120.11 45.9255V45.4442L120.123 45.4457C120.282 45.4687 120.395 45.481 120.458 45.481C120.607 45.481 120.731 45.4403 120.828 45.3597C120.924 45.2791 121.007 45.1371 121.075 44.9375L121.222 44.5314L120.065 41.1849H120.563L120.566 41.1926L121.474 43.9011L122.384 41.1849H122.876L122.871 41.2011L121.502 45.1217C121.296 45.7037 120.975 45.9985 120.55 45.9985V46ZM120.133 45.9094C120.266 45.9539 120.406 45.977 120.55 45.977C120.965 45.977 121.278 45.6875 121.48 45.1156L122.844 41.211H122.401L121.474 43.9763L121.463 43.9441L120.547 41.211H120.097L121.245 44.5337L121.244 44.5375L121.096 44.9475C121.027 45.1509 120.941 45.2968 120.841 45.3797C120.74 45.4634 120.611 45.5056 120.457 45.5056C120.394 45.5056 120.287 45.4949 120.132 45.4718L120.133 45.9094Z" fill="#1D1914"/>
<path d="M124.436 42.9153C124.428 42.4255 124.569 42.0018 124.858 41.644C125.147 41.2863 125.491 41.112 125.891 41.1212C126.131 41.1212 126.349 41.1872 126.547 41.3193C126.745 41.4513 126.908 41.6348 127.038 41.8705L126.724 42.1814C126.503 41.8091 126.227 41.6233 125.896 41.6233C125.611 41.6233 125.371 41.7492 125.177 42.001C124.983 42.2528 124.887 42.5584 124.887 42.9161C124.887 43.2739 124.983 43.5863 125.177 43.8381C125.371 44.0899 125.611 44.2158 125.896 44.2158C126.224 44.2158 126.497 44.0324 126.718 43.6646L127.032 43.9686C126.758 44.4677 126.378 44.7172 125.891 44.7172C125.488 44.7172 125.144 44.5413 124.861 44.1905C124.578 43.8397 124.436 43.4144 124.436 42.9153Z" fill="#1D1914"/>
<path d="M125.89 44.7287C125.485 44.7287 125.136 44.5498 124.851 44.1982C124.567 43.8466 124.424 43.4151 124.424 42.9153C124.416 42.4248 124.559 41.9949 124.848 41.6363C125.138 41.2771 125.489 41.1005 125.89 41.1097C126.131 41.1097 126.354 41.1765 126.552 41.3093C126.751 41.4414 126.917 41.6287 127.047 41.8644L127.051 41.872L127.045 41.8782L126.721 42.1991L126.713 42.1868C126.496 41.8206 126.221 41.634 125.896 41.634C125.616 41.634 125.377 41.7599 125.186 42.0072C124.994 42.2559 124.898 42.5614 124.898 42.9146C124.898 43.2677 124.995 43.5809 125.186 43.8289C125.377 44.0769 125.615 44.202 125.896 44.202C126.218 44.202 126.491 44.0185 126.708 43.657L126.716 43.6447L127.046 43.9648L127.042 43.9732C126.767 44.4738 126.379 44.7287 125.89 44.7287ZM125.86 41.1327C125.478 41.1327 125.144 41.307 124.866 41.6517C124.58 42.0056 124.439 42.4309 124.447 42.9153C124.447 43.4097 124.589 43.8358 124.869 44.1828C125.149 44.5291 125.493 44.7049 125.89 44.7049C126.367 44.7049 126.746 44.4577 127.017 43.9702L126.72 43.6823C126.499 44.0439 126.222 44.2266 125.896 44.2266C125.609 44.2266 125.364 44.0976 125.168 43.8443C124.973 43.5917 124.875 43.2785 124.875 42.9153C124.875 42.5522 124.973 42.2459 125.168 41.9933C125.364 41.7392 125.609 41.611 125.896 41.611C126.226 41.611 126.505 41.7968 126.726 42.1622L127.024 41.8682C126.896 41.6394 126.734 41.4582 126.541 41.3293C126.346 41.1995 126.128 41.1335 125.891 41.1335C125.881 41.1335 125.87 41.1327 125.86 41.1327Z" fill="#1D1914"/>
<path d="M131.117 42.52V44.6396H130.706V44.1943C130.493 44.5429 130.181 44.7172 129.77 44.7172C129.481 44.7172 129.247 44.6289 129.068 44.4523C128.889 44.2757 128.8 44.0416 128.8 43.7491C128.8 43.4566 128.892 43.224 129.074 43.0497C129.257 42.8754 129.498 42.7879 129.799 42.7879H130.677V42.4916C130.677 42.2137 130.617 41.9995 130.498 41.849C130.378 41.6985 130.213 41.6233 130.004 41.6233C129.692 41.6233 129.422 41.8068 129.194 42.1745L128.903 41.8774C129.15 41.3738 129.527 41.122 130.032 41.122C130.367 41.122 130.632 41.2433 130.826 41.4859C131.02 41.7285 131.117 42.0724 131.117 42.52ZM130.677 43.3184V43.2339H129.85C129.45 43.2339 129.25 43.3967 129.25 43.7214C129.25 43.8911 129.304 44.0239 129.413 44.1207C129.522 44.2174 129.659 44.2657 129.826 44.2657C130.059 44.2657 130.258 44.1736 130.426 43.9901C130.593 43.8067 130.677 43.5817 130.677 43.3184Z" fill="#1D1914"/>
<path d="M129.77 44.7287C129.48 44.7287 129.241 44.6381 129.06 44.4607C128.88 44.2826 128.788 44.0431 128.788 43.7491C128.788 43.455 128.882 43.2171 129.066 43.0413C129.25 42.8654 129.497 42.7764 129.799 42.7764H130.666V42.4916C130.666 42.2175 130.606 42.0041 130.489 41.8559C130.373 41.7085 130.209 41.634 130.005 41.634C129.698 41.634 129.429 41.8175 129.204 42.1799L129.197 42.1922L128.889 41.8789L128.893 41.8713C129.141 41.3653 129.525 41.1089 130.033 41.1089C130.37 41.1089 130.64 41.2325 130.835 41.4767C131.03 41.72 131.129 42.0709 131.129 42.5192V44.6504H130.695V44.2335C130.482 44.5621 130.17 44.7287 129.77 44.7287ZM129.799 42.8002C129.503 42.8002 129.262 42.8869 129.082 43.0581C128.903 43.2293 128.812 43.462 128.812 43.7491C128.812 44.0362 128.901 44.2703 129.076 44.4439C129.252 44.6174 129.485 44.7056 129.77 44.7056C130.174 44.7056 130.486 44.5314 130.695 44.1882L130.716 44.1537V44.6281H131.104V42.5207C131.104 42.0785 131.007 41.7323 130.816 41.4935C130.625 41.2548 130.361 41.1343 130.032 41.1343C129.535 41.1343 129.16 41.3838 128.916 41.8759L129.191 42.1561C129.418 41.7953 129.692 41.6118 130.003 41.6118C130.214 41.6118 130.383 41.6893 130.505 41.8421C130.626 41.9941 130.687 42.2129 130.687 42.4923V42.801H129.797L129.799 42.8002ZM129.827 44.2765C129.658 44.2765 129.516 44.2266 129.406 44.1291C129.295 44.0308 129.24 43.8934 129.24 43.7214C129.24 43.3898 129.445 43.2224 129.85 43.2224H130.689V43.3192C130.689 43.5848 130.604 43.8136 130.435 43.9986C130.267 44.1836 130.062 44.278 129.828 44.278L129.827 44.2765ZM129.85 43.2455C129.454 43.2455 129.262 43.4013 129.262 43.7214C129.262 43.8865 129.316 44.0178 129.421 44.1114C129.527 44.2059 129.663 44.2535 129.827 44.2535C130.055 44.2535 130.253 44.1621 130.418 43.9817C130.583 43.8013 130.666 43.5779 130.666 43.3184V43.2455H129.85Z" fill="#1D1914"/>
<path d="M135.909 44.159V45.6353H135.47V44.6396H133.285V45.6353H132.845V44.159H133.159C133.387 43.8673 133.509 43.2032 133.524 42.1668L133.541 41.1988H135.458V44.159H135.909ZM135.019 44.159V41.6862H133.957L133.94 42.1737C133.921 43.1579 133.814 43.8197 133.62 44.159H135.019Z" fill="#1D1914"/>
<path d="M135.459 45.6469V44.6511H133.297V45.6469H132.835V44.1468H133.154C133.378 43.8558 133.498 43.1894 133.514 42.1661L133.531 41.1865H135.471V44.1468H135.922V45.6469H135.459ZM135.482 45.6231H135.898V44.1705H135.447V41.2103H133.553L133.536 42.1661C133.521 43.2002 133.397 43.8727 133.168 44.1652L133.164 44.1698H132.856V45.6223H133.273V44.6266H135.481L135.482 45.6231ZM135.031 44.1705H133.601L133.611 44.1529C133.803 43.8174 133.91 43.151 133.929 42.1737L133.946 41.6747H135.03L135.031 44.1705ZM133.641 44.1468H135.008V41.6978H133.969L133.952 42.1737C133.933 43.1387 133.829 43.802 133.641 44.1468Z" fill="#1D1914"/>
<path d="M137.855 44.6389V41.1988H138.294V42.3856H138.957C139.272 42.3856 139.524 42.4877 139.712 42.6927C139.9 42.8977 139.995 43.1695 139.995 43.5088C139.995 43.8481 139.9 44.1214 139.712 44.3279C139.524 44.5352 139.272 44.6389 138.957 44.6389H137.855ZM138.294 44.1583H138.933C139.124 44.1583 139.273 44.1007 139.381 43.9855C139.49 43.8704 139.544 43.7138 139.544 43.5157C139.544 43.3176 139.488 43.1602 139.378 43.042C139.268 42.9246 139.118 42.8654 138.927 42.8654H138.294V44.1583Z" fill="#1D1914"/>
<path d="M138.957 44.6511H137.843V41.1872H138.306V42.3741H138.956C139.273 42.3741 139.53 42.4785 139.721 42.685C139.91 42.8908 140.006 43.1687 140.006 43.5088C140.006 43.8489 139.91 44.1276 139.721 44.3364C139.531 44.5452 139.274 44.6511 138.957 44.6511ZM137.867 44.6273H138.957C139.267 44.6273 139.519 44.5237 139.704 44.3203C139.889 44.116 139.983 43.8435 139.983 43.5088C139.983 43.1741 139.89 42.9023 139.704 42.7012C139.519 42.5 139.267 42.3979 138.957 42.3979H138.283V41.211H137.867V44.6273ZM138.933 44.1705H138.282V42.8539H138.927C139.12 42.8539 139.274 42.9146 139.386 43.0343C139.498 43.1541 139.555 43.3161 139.555 43.5157C139.555 43.7153 139.5 43.8765 139.389 43.994C139.279 44.1114 139.126 44.1705 138.933 44.1705ZM138.306 44.1468H138.933C139.119 44.1468 139.267 44.0899 139.373 43.9771C139.479 43.8642 139.533 43.7092 139.533 43.5157C139.533 43.3222 139.478 43.1656 139.37 43.0505C139.262 42.9361 139.114 42.8777 138.927 42.8777H138.306V44.1468Z" fill="#1D1914"/>
<path d="M144.731 42.9791C144.738 43.4497 144.598 43.8589 144.308 44.2043C144.019 44.5506 143.677 44.7187 143.281 44.7095C142.855 44.7095 142.51 44.5306 142.246 44.1728C141.981 43.8151 141.849 43.3491 141.849 42.7741V42.1737C141.849 41.6371 141.891 41.2034 141.975 40.874C142.158 40.1677 142.687 39.7224 143.562 39.539C144.03 39.4353 144.341 39.3432 144.497 39.2634V39.7862C144.318 39.8806 144.024 39.965 143.613 40.0403C143.221 40.1109 142.926 40.236 142.728 40.4149C142.53 40.5938 142.407 40.8011 142.357 41.0368C142.304 41.2771 142.277 41.5788 142.277 41.9411C142.395 41.7246 142.548 41.555 142.736 41.4329C142.924 41.3108 143.127 41.2494 143.344 41.2494C143.717 41.2402 144.042 41.4106 144.322 41.7615C144.601 42.1123 144.738 42.5177 144.731 42.9791ZM143.992 43.8512C144.183 43.6132 144.28 43.3222 144.28 42.9791C144.28 42.6359 144.184 42.3442 143.992 42.1062C143.8 41.8682 143.565 41.7492 143.287 41.7492C143.009 41.7492 142.779 41.869 142.585 42.1092C142.391 42.3495 142.294 42.639 142.294 42.9783C142.294 43.3176 142.392 43.6009 142.588 43.8435C142.783 44.0861 143.016 44.2074 143.287 44.2074C143.557 44.2074 143.799 44.0892 143.992 43.8512Z" fill="#1D1914"/>
<path d="M143.312 44.7218C143.302 44.7218 143.291 44.7218 143.281 44.7218C142.854 44.7218 142.502 44.5398 142.237 44.1805C141.972 43.8228 141.838 43.3491 141.838 42.7749V42.1745C141.838 41.6386 141.881 41.2003 141.964 40.8717C142.147 40.1639 142.684 39.7117 143.559 39.5282C144.023 39.4253 144.337 39.3332 144.491 39.2534L144.508 39.2449V39.7938L144.502 39.7969C144.323 39.8913 144.024 39.9773 143.614 40.0526C143.226 40.1224 142.931 40.2476 142.735 40.4241C142.541 40.6007 142.417 40.8072 142.368 41.0391C142.317 41.2671 142.291 41.5557 142.289 41.8966C142.404 41.6978 142.553 41.5381 142.73 41.4222C142.92 41.2993 143.126 41.2364 143.344 41.2364C143.719 41.2264 144.051 41.4007 144.331 41.753C144.611 42.1046 144.749 42.5169 144.741 42.9791C144.749 43.4504 144.606 43.8658 144.317 44.212C144.034 44.5506 143.696 44.7218 143.312 44.7218ZM144.485 39.2818C144.324 39.3601 144.014 39.4499 143.563 39.5497C142.697 39.7317 142.166 40.1777 141.986 40.8763C141.902 41.2034 141.861 41.6394 141.861 42.173V42.7733C141.861 43.343 141.993 43.8113 142.255 44.1652C142.515 44.5183 142.861 44.6972 143.281 44.6972C143.291 44.6972 143.301 44.6972 143.311 44.6972C143.689 44.6972 144.022 44.5283 144.299 44.1959C144.585 43.8535 144.726 43.4435 144.719 42.9783C144.726 42.5215 144.59 42.1139 144.314 41.7669C144.045 41.4298 143.728 41.2586 143.372 41.2586C143.362 41.2586 143.353 41.2586 143.344 41.2586C143.13 41.2586 142.927 41.32 142.742 41.4406C142.556 41.5619 142.403 41.7315 142.287 41.945L142.265 41.9849V41.9396C142.265 41.578 142.292 41.2724 142.345 41.0329C142.395 40.7965 142.521 40.5846 142.72 40.4049C142.918 40.2253 143.218 40.0986 143.61 40.028C144.013 39.9543 144.307 39.8698 144.484 39.7777L144.485 39.2818ZM143.287 44.2197C143.014 44.2197 142.776 44.0961 142.579 43.852C142.382 43.6086 142.282 43.3146 142.282 42.9791C142.282 42.6436 142.381 42.3442 142.576 42.1023C142.771 41.8605 143.01 41.7377 143.287 41.7377C143.563 41.7377 143.807 41.859 144.001 42.0985C144.194 42.3373 144.291 42.6336 144.291 42.9783C144.291 43.323 144.193 43.6193 144.001 43.8581C143.807 44.0976 143.567 44.2197 143.287 44.2197ZM143.287 41.7615C143.018 41.7615 142.785 41.8812 142.594 42.1177C142.403 42.3549 142.305 42.6443 142.305 42.9791C142.305 43.3138 142.404 43.5978 142.597 43.8366C142.789 44.0754 143.022 44.1959 143.287 44.1959C143.552 44.1959 143.794 44.0769 143.983 43.8435C144.172 43.6094 144.268 43.3176 144.268 42.9783C144.268 42.639 144.172 42.348 143.983 42.1131C143.794 41.8789 143.559 41.7615 143.287 41.7615Z" fill="#1D1914"/>
<path d="M148.839 42.52V44.6396H148.427V44.1943C148.215 44.5429 147.902 44.7172 147.492 44.7172C147.203 44.7172 146.969 44.6289 146.79 44.4523C146.611 44.2757 146.522 44.0416 146.522 43.7491C146.522 43.4566 146.613 43.224 146.796 43.0497C146.979 42.8754 147.22 42.7879 147.52 42.7879H148.399V42.4916C148.399 42.2137 148.339 41.9995 148.219 41.849C148.099 41.6985 147.935 41.6233 147.726 41.6233C147.414 41.6233 147.144 41.8068 146.915 42.1745L146.624 41.8774C146.872 41.3738 147.248 41.122 147.754 41.122C148.089 41.122 148.353 41.2433 148.547 41.4859C148.741 41.7285 148.839 42.0724 148.839 42.52ZM148.399 43.3184V43.2339H147.571C147.172 43.2339 146.972 43.3967 146.972 43.7214C146.972 43.8911 147.026 44.0239 147.135 44.1207C147.243 44.2174 147.381 44.2657 147.548 44.2657C147.78 44.2657 147.979 44.1736 148.147 43.9901C148.314 43.8067 148.399 43.5817 148.399 43.3184Z" fill="#1D1914"/>
<path d="M147.492 44.7287C147.201 44.7287 146.962 44.6381 146.782 44.4607C146.601 44.2826 146.51 44.0431 146.51 43.7491C146.51 43.455 146.603 43.2171 146.788 43.0413C146.972 42.8654 147.218 42.7764 147.52 42.7764H148.388V42.4916C148.388 42.2175 148.328 42.0041 148.211 41.8559C148.094 41.7085 147.931 41.634 147.726 41.634C147.42 41.634 147.151 41.8175 146.926 42.1799L146.918 42.1922L146.611 41.8789L146.615 41.8713C146.863 41.3653 147.247 41.1089 147.755 41.1089C148.092 41.1089 148.361 41.2325 148.557 41.4767C148.752 41.72 148.851 42.0709 148.851 42.5192V44.6504H148.417V44.2335C148.203 44.5621 147.892 44.7287 147.492 44.7287ZM147.52 42.8002C147.224 42.8002 146.983 42.8869 146.803 43.0581C146.624 43.2293 146.533 43.462 146.533 43.7491C146.533 44.0362 146.622 44.2703 146.797 44.4439C146.973 44.6174 147.206 44.7056 147.491 44.7056C147.896 44.7056 148.207 44.5314 148.417 44.1882L148.438 44.1537V44.6281H148.826V42.5207C148.826 42.0785 148.728 41.7323 148.537 41.4935C148.346 41.2548 148.083 41.1343 147.753 41.1343C147.257 41.1343 146.881 41.3838 146.637 41.8759L146.912 42.1561C147.14 41.7953 147.413 41.6118 147.724 41.6118C147.936 41.6118 148.105 41.6893 148.227 41.8421C148.348 41.9941 148.409 42.2129 148.409 42.4923V42.801H147.519L147.52 42.8002ZM147.549 44.2765C147.379 44.2765 147.238 44.2266 147.128 44.1291C147.017 44.0308 146.962 43.8934 146.962 43.7214C146.962 43.3898 147.167 43.2224 147.572 43.2224H148.411V43.3192C148.411 43.5848 148.326 43.8136 148.157 43.9986C147.988 44.1836 147.784 44.278 147.549 44.278L147.549 44.2765ZM147.571 43.2455C147.176 43.2455 146.984 43.4013 146.984 43.7214C146.984 43.8865 147.037 44.0178 147.143 44.1114C147.248 44.2059 147.385 44.2535 147.549 44.2535C147.776 44.2535 147.975 44.1621 148.14 43.9817C148.305 43.8013 148.388 43.5779 148.388 43.3184V43.2455H147.571Z" fill="#1D1914"/>
</svg>
