<svg width="38" height="34" viewBox="0 0 38 34" fill="none" xmlns="http://www.w3.org/2000/svg">
<path d="M26.2977 32.7497L26.2982 26.7503C26.2985 23.4364 23.6003 20.7498 20.2718 20.7498H6.77703C3.44903 20.7498 0.751052 23.4356 0.750677 26.7491L0.75 32.7497M36.7495 32.75L36.75 26.7506C36.7503 23.4367 34.0521 20.7501 30.7236 20.7501M25.1369 1.9287C26.6168 3.02196 27.5759 4.7746 27.5759 6.75026C27.5759 8.72593 26.6168 10.4786 25.1369 11.5718M19.6759 6.74994C19.6759 10.0636 16.9778 12.7499 13.6495 12.7499C10.3213 12.7499 7.62316 10.0636 7.62316 6.74994C7.62316 3.43626 10.3213 0.75 13.6495 0.75C16.9778 0.75 19.6759 3.43626 19.6759 6.74994Z" stroke="#B0C74C" stroke-width="1.5" stroke-linecap="round" stroke-linejoin="round"/>
</svg>
