<svg width="100" height="100" viewBox="0 0 100 100" fill="none" xmlns="http://www.w3.org/2000/svg">
<path d="M91 54.5296V44.4048C91 43.0624 89.9075 41.9742 88.5599 41.9742H84.3023M91 54.5296V95.5694C91 96.9118 89.9075 98 88.5599 98H12.4401C11.0925 98 10 96.9118 10 95.5694V54.5296M91 54.5296H10M10 54.5296V44.4048C10 43.0624 11.0925 41.9742 12.4401 41.9742H16.5888M84.3023 41.9742V41.1612C84.3023 39.8188 83.2099 38.7306 81.8622 38.7306H19.0289C17.6813 38.7306 16.5888 39.8188 16.5888 41.1612V41.9742M84.3023 41.9742H16.5888M24.3358 51.4904C25.798 51.4904 26.9834 50.3096 26.9834 48.8531C26.9834 47.3966 25.798 46.2159 24.3358 46.2159M24.3358 51.4904C22.8736 51.4904 21.6883 50.3096 21.6883 48.8531C21.6883 47.3966 22.8736 46.2159 24.3358 46.2159M24.3358 51.4904V46.2159M24.3358 46.2159V44.8072M34.3894 51.4904C35.8516 51.4904 37.037 50.3096 37.037 48.8531C37.037 47.3966 35.8516 46.2159 34.3894 46.2159M34.3894 51.4904C32.9273 51.4904 31.7419 50.3096 31.7419 48.8531C31.7419 47.3966 32.9273 46.2159 34.3894 46.2159M34.3894 51.4904V46.2159M34.3894 46.2159V44.8072M44.4419 51.4904C45.9041 51.4904 47.0894 50.3096 47.0894 48.8531C47.0894 47.3966 45.9041 46.2159 44.4419 46.2159M44.4419 51.4904C42.9797 51.4904 41.7943 50.3096 41.7943 48.8531C41.7943 47.3966 42.9797 46.2159 44.4419 46.2159M44.4419 51.4904V46.2159M44.4419 46.2159V44.8072M54.4955 51.4904C55.9577 51.4904 57.143 50.3096 57.143 48.8531C57.143 47.3966 55.9577 46.2159 54.4955 46.2159M54.4955 51.4904C53.0333 51.4904 51.8479 50.3096 51.8479 48.8531C51.8479 47.3966 53.0333 46.2159 54.4955 46.2159M54.4955 51.4904V46.2159M54.4955 46.2159V44.8072M70.7721 51.4904C72.2343 51.4904 73.4197 50.3096 73.4197 48.8531C73.4197 47.3966 72.2343 46.2159 70.7721 46.2159M70.7721 51.4904C69.3099 51.4904 68.1246 50.3096 68.1246 48.8531C68.1246 47.3966 69.3099 46.2159 70.7721 46.2159M70.7721 51.4904V46.2159M70.7721 46.2159V44.8072M29.3995 76.4052L37.9399 66.0751M64.7813 76.4052L73.3218 66.0751M27.5694 85.52L36.1098 75.1899M62.9512 85.52L71.4917 75.1899M18.4189 60.3012H81.2034C82.551 60.3012 83.6435 61.3894 83.6435 62.7318V88.4599C83.6435 89.8023 82.551 90.8905 81.2034 90.8905H18.4189C17.0713 90.8905 15.9788 89.8023 15.9788 88.4599V62.7318C15.9788 61.3894 17.0713 60.3012 18.4189 60.3012ZM80.813 48.842C80.813 49.1592 80.7185 49.4694 80.5415 49.7332C80.3646 49.997 80.1131 50.2027 79.8188 50.3241C79.5245 50.4455 79.2007 50.4772 78.8883 50.4154C78.5759 50.3535 78.2889 50.2007 78.0637 49.9763C77.8385 49.7519 77.6851 49.4661 77.6229 49.1549C77.5608 48.8438 77.5927 48.5212 77.7146 48.2281C77.8365 47.9349 78.0429 47.6844 78.3078 47.5081C78.5726 47.3318 78.884 47.2378 79.2025 47.2378C79.6296 47.2378 80.0392 47.4068 80.3413 47.7076C80.6433 48.0085 80.813 48.4165 80.813 48.842ZM60.498 7.41158V5.43062C60.498 4.08823 59.4055 3 58.0579 3H43.2829C41.9353 3 40.8428 4.08823 40.8428 5.43062V7.41158L21.1509 14.6305H80.1776L60.498 7.41158ZM18.6138 14.6297H81.9229C82.8663 14.6297 83.631 15.3915 83.631 16.3311C83.631 17.2708 82.8663 18.0326 81.9229 18.0326H18.6138C17.6705 18.0326 16.9057 17.2708 16.9057 16.3311C16.9057 15.3915 17.6705 14.6297 18.6138 14.6297Z" stroke="#B0C74C" stroke-linecap="round" stroke-linejoin="round"/>
<path d="M24.3361 51.4903C25.7982 51.4903 26.9836 50.3096 26.9836 48.8531C26.9836 47.3966 25.7982 46.2159 24.3361 46.2159M24.3361 51.4903C22.8739 51.4903 21.6885 50.3096 21.6885 48.8531C21.6885 47.3966 22.8739 46.2159 24.3361 46.2159M24.3361 51.4903V46.2159M24.3361 46.2159V44.8071M34.3897 51.4903C35.8519 51.4903 37.0372 50.3096 37.0372 48.8531C37.0372 47.3966 35.8519 46.2159 34.3897 46.2159M34.3897 51.4903C32.9275 51.4903 31.7421 50.3096 31.7421 48.8531C31.7421 47.3966 32.9275 46.2159 34.3897 46.2159M34.3897 51.4903V46.2159M34.3897 46.2159V44.8071M44.4421 51.4903C45.9043 51.4903 47.0896 50.3096 47.0896 48.8531C47.0896 47.3966 45.9043 46.2159 44.4421 46.2159M44.4421 51.4903C42.9799 51.4903 41.7945 50.3096 41.7945 48.8531C41.7945 47.3966 42.9799 46.2159 44.4421 46.2159M44.4421 51.4903V46.2159M44.4421 46.2159V44.8071M54.4957 51.4903C55.9579 51.4903 57.1432 50.3096 57.1432 48.8531C57.1432 47.3966 55.9579 46.2159 54.4957 46.2159M54.4957 51.4903C53.0335 51.4903 51.8482 50.3096 51.8482 48.8531C51.8482 47.3966 53.0335 46.2159 54.4957 46.2159M54.4957 51.4903V46.2159M54.4957 46.2159V44.8071M70.7723 51.4903C72.2345 51.4903 73.4199 50.3096 73.4199 48.8531C73.4199 47.3966 72.2345 46.2159 70.7723 46.2159M70.7723 51.4903C69.3101 51.4903 68.1248 50.3096 68.1248 48.8531C68.1248 47.3966 69.3101 46.2159 70.7723 46.2159M70.7723 51.4903V46.2159M70.7723 46.2159V44.8071M29.3997 76.4052L37.9401 66.0751M64.7815 76.4052L73.322 66.0751M27.5696 85.52L36.1101 75.1899M62.9514 85.52L71.4919 75.1899M18.4191 60.3011H81.2036C82.5512 60.3011 83.6437 61.3894 83.6437 62.7318V88.4599C83.6437 89.8023 82.5512 90.8905 81.2036 90.8905H18.4191C17.0715 90.8905 15.979 89.8023 15.979 88.4599V62.7318C15.979 61.3894 17.0715 60.3011 18.4191 60.3011ZM80.8132 48.8419C80.8132 49.1592 80.7187 49.4694 80.5418 49.7332C80.3648 49.997 80.1133 50.2026 79.819 50.3241C79.5247 50.4455 79.2009 50.4772 78.8885 50.4153C78.5761 50.3534 78.2891 50.2006 78.0639 49.9763C77.8387 49.7519 77.6853 49.4661 77.6231 49.1549C77.561 48.8437 77.5929 48.5212 77.7148 48.228C77.8367 47.9349 78.0431 47.6844 78.308 47.5081C78.5728 47.3318 78.8842 47.2377 79.2027 47.2377C79.6298 47.2377 80.0395 47.4067 80.3415 47.7076C80.6435 48.0084 80.8132 48.4165 80.8132 48.8419Z" stroke="#1D1914" stroke-linecap="round" stroke-linejoin="round"/>
</svg>
